<svg width="141" height="20" viewBox="0 0 141 20" fill="none" xmlns="http://www.w3.org/2000/svg">
<path d="M56.6881 19.0796H71.4785C71.5479 19.0795 71.616 19.0613 71.6761 19.0266C71.7362 18.9919 71.786 18.942 71.8207 18.8819L73.4077 16.1356C73.4136 16.1265 73.4217 16.119 73.4312 16.1138C73.4407 16.1086 73.4514 16.1059 73.4623 16.1059C73.4732 16.1059 73.4838 16.1086 73.4934 16.1138C73.5029 16.119 73.511 16.1265 73.5169 16.1356L75.1039 18.879C75.1386 18.9391 75.1884 18.9889 75.2485 19.0236C75.3086 19.0583 75.3767 19.0766 75.4461 19.0766H77.918C77.9767 19.0788 78.0349 19.0653 78.0865 19.0373C78.1381 19.0093 78.1812 18.968 78.2114 18.9176C78.2415 18.8673 78.2576 18.8097 78.2579 18.751C78.2582 18.6923 78.2427 18.6347 78.213 18.584L73.744 10.8702C73.7154 10.8199 73.674 10.7781 73.624 10.749C73.574 10.7199 73.5172 10.7045 73.4593 10.7045C73.4015 10.7045 73.3447 10.7199 73.2947 10.749C73.2447 10.7781 73.2033 10.8199 73.1747 10.8702L70.1098 16.1799C70.0973 16.2016 70.0792 16.2196 70.0574 16.232C70.0357 16.2445 70.011 16.2509 69.9859 16.2507H61.1364C61.1254 16.2504 61.1147 16.2473 61.1053 16.2418C61.0958 16.2362 61.0879 16.2284 61.0824 16.2189C61.0768 16.2095 61.0736 16.1988 61.0733 16.1879C61.0729 16.1769 61.0754 16.166 61.0804 16.1563L67.2544 5.47198C67.2602 5.46284 67.2683 5.45533 67.2779 5.45013C67.2874 5.44493 67.2981 5.4422 67.3089 5.4422C67.3198 5.4422 67.3305 5.44493 67.34 5.45013C67.3496 5.45533 67.3576 5.46284 67.3635 5.47198L68.7086 7.7994C68.7211 7.82092 68.7276 7.84534 68.7276 7.87019C68.7276 7.89505 68.7211 7.91947 68.7086 7.94099L65.6143 13.2743C65.5846 13.3249 65.5691 13.3826 65.5694 13.4413C65.5697 13.5 65.5858 13.5576 65.6159 13.6079C65.6461 13.6583 65.6892 13.6996 65.7408 13.7276C65.7924 13.7556 65.8506 13.7691 65.9092 13.7669H68.3812C68.4516 13.7679 68.5209 13.7502 68.5821 13.7154C68.6433 13.6807 68.6941 13.6302 68.7293 13.5693L70.39 10.6932L71.9122 8.06488C71.9468 8.00479 71.9651 7.93663 71.9651 7.86724C71.9651 7.79786 71.9468 7.72969 71.9122 7.6696L67.5847 0.206521C67.5562 0.156228 67.5148 0.114407 67.4648 0.0853134C67.4148 0.0562201 67.3579 0.0408936 67.3001 0.0408936C67.2422 0.0408936 67.1854 0.0562201 67.1354 0.0853134C67.0854 0.114407 67.044 0.156228 67.0154 0.206521L56.4049 18.584C56.375 18.6339 56.359 18.6907 56.3584 18.7488C56.3578 18.8069 56.3727 18.8642 56.4015 18.9146C56.4304 18.965 56.4721 19.0069 56.5224 19.0359C56.5728 19.0649 56.63 19.08 56.6881 19.0796Z" fill="#23303D"/>
<path d="M38.8624 19.3156C38.8907 19.3693 38.9331 19.4143 38.9851 19.4457C39.0371 19.4771 39.0967 19.4937 39.1574 19.4937C39.2181 19.4937 39.2777 19.4771 39.3297 19.4457C39.3817 19.4143 39.4241 19.3693 39.4524 19.3156L50.0718 0.941072C50.101 0.889973 50.1161 0.832063 50.1156 0.773228C50.1152 0.714392 50.0991 0.656726 50.0692 0.606089C50.0392 0.555452 49.9964 0.513649 49.945 0.484925C49.8937 0.456201 49.8356 0.441581 49.7768 0.44255H47.1367C47.0576 0.442959 46.98 0.464159 46.9116 0.504024C46.8433 0.543889 46.7866 0.60102 46.7473 0.669687L39.2046 13.8112C39.1993 13.8211 39.1914 13.8293 39.1818 13.8351C39.1722 13.8408 39.1612 13.8438 39.15 13.8438C39.1388 13.8438 39.1278 13.8408 39.1182 13.8351C39.1086 13.8293 39.1008 13.8211 39.0955 13.8112L31.5616 0.669687C31.5223 0.60102 31.4656 0.543889 31.3973 0.504024C31.3289 0.464159 31.2513 0.442959 31.1722 0.44255H28.5439C28.4851 0.441581 28.427 0.456201 28.3757 0.484925C28.3243 0.513649 28.2815 0.555452 28.2515 0.606089C28.2216 0.656726 28.2055 0.714392 28.2051 0.773228C28.2046 0.832063 28.2197 0.889973 28.2489 0.941072L38.8624 19.3156Z" fill="#23303D"/>
<path d="M89.7494 19.0796H92.1093C92.2016 19.0796 92.2901 19.043 92.3554 18.9777C92.4207 18.9124 92.4574 18.8239 92.4574 18.7315V6.48973C92.4579 6.4804 92.461 6.4714 92.4663 6.46374C92.4717 6.45609 92.4791 6.45008 92.4877 6.4464C92.4963 6.44272 92.5057 6.44152 92.5149 6.44292C92.5242 6.44432 92.5328 6.44827 92.54 6.45433L107.021 19.4336C107.069 19.4769 107.129 19.5052 107.193 19.5152C107.257 19.5252 107.323 19.5164 107.382 19.4899C107.441 19.4634 107.492 19.4203 107.527 19.3658C107.562 19.3113 107.581 19.2478 107.581 19.1829V0.793593C107.581 0.701276 107.544 0.61274 107.479 0.547463C107.414 0.482185 107.325 0.445512 107.233 0.445512H104.873C104.781 0.445512 104.692 0.482185 104.627 0.547463C104.562 0.61274 104.525 0.701276 104.525 0.793593V13.0266C104.525 13.0359 104.522 13.0449 104.516 13.0525C104.511 13.0602 104.503 13.0662 104.495 13.0699C104.486 13.0736 104.477 13.0748 104.468 13.0734C104.458 13.072 104.45 13.068 104.443 13.062L89.9677 0.0856322C89.9193 0.0423496 89.8594 0.0140004 89.7953 0.00400744C89.7311 -0.00598551 89.6654 0.00280505 89.6062 0.0293178C89.5469 0.0558305 89.4966 0.0989318 89.4613 0.153418C89.426 0.207904 89.4072 0.271444 89.4072 0.336368V18.7315C89.4072 18.8228 89.4431 18.9105 89.5071 18.9756C89.5711 19.0407 89.6581 19.0781 89.7494 19.0796Z" fill="#23303D"/>
<path d="M0.331236 19.0809H2.94774C3.02686 19.0805 3.10448 19.0593 3.17282 19.0194C3.24116 18.9796 3.29782 18.9225 3.33712 18.8538L5.54654 15.019C5.55883 14.9977 5.57644 14.98 5.59764 14.9676C5.61885 14.9552 5.64292 14.9485 5.66749 14.9482H16.2014C16.2259 14.9485 16.25 14.9552 16.2712 14.9676C16.2924 14.98 16.31 14.9977 16.3223 15.019L18.5317 18.8538C18.571 18.9225 18.6277 18.9796 18.696 19.0194C18.7644 19.0593 18.842 19.0805 18.9211 19.0809H21.5435C21.6009 19.0796 21.657 19.0634 21.7063 19.034C21.7556 19.0046 21.7965 18.9629 21.825 18.9131C21.8535 18.8632 21.8686 18.8068 21.8689 18.7494C21.8692 18.692 21.8546 18.6355 21.8267 18.5853L11.2073 0.210822C11.179 0.15708 11.1366 0.112084 11.0846 0.0806948C11.0326 0.0493054 10.973 0.0327148 10.9123 0.0327148C10.8516 0.0327148 10.792 0.0493054 10.74 0.0806948C10.688 0.112084 10.6456 0.15708 10.6173 0.210822L0.0421518 18.5853C0.0139674 18.6359 -0.000554558 18.693 1.61977e-05 18.7509C0.000586953 18.8088 0.0162308 18.8655 0.0454068 18.9156C0.0745828 18.9656 0.116284 19.0071 0.166404 19.0361C0.216524 19.0651 0.273333 19.0806 0.331236 19.0809ZM7.24565 12.0603L10.8857 5.71522C10.891 5.70535 10.8989 5.69711 10.9085 5.69136C10.9181 5.68562 10.9291 5.68258 10.9403 5.68258C10.9515 5.68258 10.9625 5.68562 10.9721 5.69136C10.9817 5.69711 10.9896 5.70535 10.9949 5.71522L14.632 12.0603C14.6378 12.0697 14.641 12.0805 14.6412 12.0916C14.6414 12.1026 14.6387 12.1135 14.6333 12.1231C14.6278 12.1328 14.62 12.1408 14.6104 12.1463C14.6009 12.1519 14.59 12.1548 14.5789 12.1547H7.29875C7.2877 12.1548 7.27684 12.1519 7.26729 12.1463C7.25774 12.1408 7.24984 12.1328 7.24443 12.1231C7.23901 12.1135 7.23627 12.1026 7.23648 12.0916C7.2367 12.0805 7.23986 12.0697 7.24565 12.0603Z" fill="#23303D"/>
<path d="M119.012 3.24483H125.071C125.079 3.24483 125.088 3.24643 125.095 3.24954C125.103 3.25266 125.109 3.25722 125.115 3.26297C125.121 3.26872 125.125 3.27555 125.129 3.28307C125.132 3.29059 125.133 3.29864 125.133 3.30678V18.7492C125.133 18.8376 125.168 18.9224 125.231 18.9849C125.293 19.0474 125.378 19.0825 125.467 19.0825H127.791C127.879 19.0825 127.964 19.0474 128.027 18.9849C128.089 18.9224 128.124 18.8376 128.124 18.7492V3.29203C128.124 3.28389 128.126 3.27584 128.129 3.26832C128.132 3.2608 128.137 3.25398 128.143 3.24822C128.148 3.24247 128.155 3.23791 128.163 3.23479C128.17 3.23168 128.178 3.23008 128.186 3.23008H134.251C134.34 3.23008 134.424 3.19496 134.487 3.13245C134.549 3.06994 134.585 2.98515 134.585 2.89675V0.778766C134.585 0.690361 134.549 0.605577 134.487 0.543065C134.424 0.480553 134.34 0.445435 134.251 0.445435H119.012C118.924 0.445435 118.839 0.480553 118.777 0.543065C118.714 0.605577 118.679 0.690361 118.679 0.778766V2.89675C118.677 2.94175 118.684 2.98668 118.7 3.02884C118.716 3.071 118.74 3.10951 118.771 3.14204C118.802 3.17457 118.84 3.20045 118.881 3.21812C118.923 3.23579 118.967 3.24487 119.012 3.24483Z" fill="#23303D"/>
<path d="M139.587 2.91158L139.153 2.18002H138.814V2.91158H138.469V0.949937H139.33C139.414 0.942724 139.498 0.953432 139.577 0.981346C139.656 1.00926 139.728 1.05374 139.789 1.11181C139.85 1.16989 139.897 1.24022 139.928 1.31811C139.96 1.396 139.974 1.47966 139.97 1.5635C139.982 1.70226 139.941 1.84042 139.855 1.94998C139.769 2.05953 139.645 2.13228 139.507 2.15347L139.985 2.92338H139.59L139.587 2.91158ZM139.616 1.56645C139.619 1.52252 139.613 1.47846 139.596 1.4375C139.58 1.39653 139.555 1.3597 139.523 1.32972C139.491 1.29973 139.452 1.27735 139.41 1.2642C139.368 1.25106 139.324 1.2475 139.28 1.25377H138.811V1.87619H139.28C139.323 1.88239 139.367 1.87888 139.409 1.8659C139.451 1.85293 139.489 1.83081 139.522 1.80116C139.554 1.7715 139.579 1.73506 139.595 1.69447C139.612 1.65387 139.619 1.61014 139.616 1.56645Z" fill="#23303D"/>
<path d="M139.159 3.71402C138.796 3.71285 138.442 3.60433 138.142 3.40214C137.841 3.19995 137.606 2.91317 137.468 2.57797C137.33 2.24278 137.295 1.8742 137.366 1.51875C137.437 1.16331 137.612 0.836923 137.869 0.580794C138.125 0.324666 138.452 0.150271 138.807 0.0796186C139.163 0.00896664 139.531 0.0452242 139.866 0.183815C140.201 0.322407 140.488 0.55712 140.689 0.858334C140.891 1.15955 140.999 1.51376 141 1.87627C141 2.11786 140.952 2.35707 140.859 2.58023C140.767 2.80339 140.631 3.00611 140.46 3.1768C140.289 3.34749 140.086 3.4828 139.863 3.57498C139.64 3.66716 139.401 3.71441 139.159 3.71402ZM139.159 0.31286C138.849 0.31286 138.546 0.404725 138.289 0.57684C138.031 0.748954 137.83 0.993586 137.712 1.2798C137.593 1.56602 137.562 1.88096 137.623 2.1848C137.683 2.48865 137.832 2.76775 138.051 2.98681C138.27 3.20587 138.55 3.35505 138.853 3.41549C139.157 3.47593 139.472 3.44491 139.758 3.32635C140.045 3.2078 140.289 3.00703 140.461 2.74945C140.633 2.49186 140.725 2.18902 140.725 1.87922C140.725 1.46353 140.56 1.06481 140.267 0.770593C139.973 0.476374 139.575 0.310691 139.159 0.30991V0.31286Z" fill="#23303D"/>
</svg>
