<svg width="49" height="41" viewBox="0 0 49 41" fill="none" xmlns="http://www.w3.org/2000/svg">
<path d="M1 37.26V4.60998C1 4.33998 1.05 4.08999 1.15 3.83999C1.25 3.58999 1.4 3.37999 1.58 3.18999C1.77 2.99999 1.98 2.85999 2.23 2.75999C2.47 2.65999 2.73 2.60999 3 2.60999H45.4C45.67 2.60999 45.92 2.65999 46.17 2.75999C46.41 2.85999 46.63 3.00999 46.82 3.18999C47.01 3.37999 47.15 3.58999 47.25 3.83999C47.35 4.07999 47.4 4.33998 47.4 4.60998V37.26C47.4 37.53 47.35 37.78 47.25 38.03C47.15 38.28 47 38.49 46.82 38.68C46.63 38.87 46.42 39.01 46.17 39.11C45.92 39.21 45.67 39.26 45.4 39.26H3C2.73 39.26 2.48 39.21 2.23 39.11C1.98 39.01 1.77 38.86 1.58 38.68C1.39 38.5 1.25 38.28 1.15 38.03C1.05 37.78 1 37.53 1 37.26Z" stroke="#A5D9C5" stroke-width="1.5" stroke-linejoin="round"/>
<path d="M1.58008 10.7H46.8201" stroke="#A5D9C5" stroke-width="1.5" stroke-linecap="square" stroke-linejoin="round"/>
<path d="M5.06006 18.24H12.0201" stroke="#A5D9C5" stroke-width="1.5" stroke-linejoin="round"/>
<path d="M5.06006 24.71H12.0201" stroke="#A5D9C5" stroke-width="1.5" stroke-linejoin="round"/>
<path d="M5.06006 31.1801H12.0201" stroke="#A5D9C5" stroke-width="1.5" stroke-linejoin="round"/>
<path d="M15.5 18.24H22.46" stroke="#A5D9C5" stroke-width="1.5" stroke-linejoin="round"/>
<path d="M12.02 4.23V1" stroke="#A5D9C5" stroke-width="1.5" stroke-linecap="square" stroke-linejoin="round"/>
<path d="M36.3799 4.23V1" stroke="#A5D9C5" stroke-width="1.5" stroke-linecap="square" stroke-linejoin="round"/>
<path d="M23.6201 4.23V1" stroke="#A5D9C5" stroke-width="1.5" stroke-linecap="square" stroke-linejoin="round"/>
<path d="M15.5 24.71H22.46" stroke="#A5D9C5" stroke-width="1.5" stroke-linejoin="round"/>
<path d="M15.5 31.1801H22.46" stroke="#A5D9C5" stroke-width="1.5" stroke-linejoin="round"/>
<path d="M25.9399 18.24H32.8999" stroke="#A5D9C5" stroke-width="1.5" stroke-linejoin="round"/>
<path d="M25.9399 24.71H32.8999" stroke="#A5D9C5" stroke-width="1.5" stroke-linejoin="round"/>
<path d="M25.9399 31.1801H32.8999" stroke="#A5D9C5" stroke-width="1.5" stroke-linejoin="round"/>
<path d="M36.3799 18.24H43.3399" stroke="#A5D9C5" stroke-width="1.5" stroke-linejoin="round"/>
<path d="M36.3799 24.71H43.3399" stroke="#A5D9C5" stroke-width="1.5" stroke-linejoin="round"/>
<path d="M36.3799 31.1801H43.3399" stroke="#A5D9C5" stroke-width="1.5" stroke-linejoin="round"/>
</svg>
