<svg width="17" height="19" viewBox="0 0 17 19" fill="none" xmlns="http://www.w3.org/2000/svg">
<path fill-rule="evenodd" clip-rule="evenodd" d="M0.277506 2.17998H3.64023L3.63578 2.12211V0.612888C3.63578 0.276022 3.986 0 4.41636 0C4.84523 0 5.19694 0.277506 5.19694 0.612888V2.12211L5.19248 2.17998H10.9192L10.9148 2.12211V0.612888C10.9148 0.276022 11.265 0 11.6938 0C12.1227 0 12.4744 0.277506 12.4744 0.612888V2.12211L12.47 2.17998H16.0479C16.2007 2.17998 16.3254 2.30464 16.3254 2.45749V5.34534C16.3254 5.49819 16.2007 5.62284 16.0479 5.62284H0.277506C0.124655 5.62136 0 5.4967 0 5.34385V2.45601C0 2.30315 0.124655 2.17998 0.277506 2.17998ZM0.0697476 6.26096H16.2571C16.2957 6.26096 16.3254 6.29212 16.3254 6.32922V18.1655C16.3254 18.2026 16.2942 18.2338 16.2571 18.2338H0.0697476C0.0326478 18.2338 0 18.2026 0 18.1655V6.33071C0 6.29212 0.0311638 6.26096 0.0697476 6.26096ZM14.4348 7.82954H12.4017C12.2785 7.82954 12.1791 7.92303 12.1791 8.0373V9.9279C12.1791 10.0422 12.2785 10.1357 12.4017 10.1357H14.4363C14.5594 10.1357 14.6603 10.0422 14.6603 9.9279V8.0373C14.6589 7.92303 14.558 7.82954 14.4348 7.82954ZM1.8164 11.1195H3.84947C3.97264 11.1195 4.07355 11.213 4.07355 11.3273V13.2179C4.07355 13.3322 3.97264 13.4257 3.84947 13.4257H1.88615C1.76298 13.4257 1.66355 13.3322 1.66355 13.2179V11.259C1.66355 11.1448 1.76447 11.0513 1.88615 11.0513L1.8164 11.1195ZM1.8164 14.411H3.84947C3.97264 14.411 4.07355 14.5045 4.07355 14.6188V16.5094C4.07355 16.6237 3.97264 16.7172 3.84947 16.7172H1.88467C1.7615 16.7172 1.66207 16.6237 1.66207 16.5094V14.6188C1.66207 14.5045 1.76298 14.411 1.88467 14.411H1.8164ZM1.8164 7.82954H3.84947C3.97264 7.82954 4.07355 7.92303 4.07355 8.0373V9.9279C4.07355 10.0422 3.97264 10.1357 3.84947 10.1357H1.88467C1.7615 10.1357 1.66207 10.0422 1.66207 9.9279V8.0373C1.66207 7.92303 1.76298 7.82954 1.88467 7.82954H1.8164ZM5.34534 7.82954H7.37989C7.50306 7.82954 7.60249 7.92303 7.60249 8.0373V9.9279C7.60249 10.0422 7.50157 10.1357 7.37989 10.1357H5.34534C5.22216 10.1357 5.12125 10.0422 5.12125 9.9279V8.0373C5.12125 7.92303 5.22216 7.82954 5.34534 7.82954ZM5.34534 11.1195H7.37989C7.50306 11.1195 7.60249 11.213 7.60249 11.3273V13.2179C7.60249 13.3322 7.50157 13.4257 7.37989 13.4257H5.34534C5.22216 13.4257 5.12125 13.3322 5.12125 13.2179V11.259C5.12125 11.1448 5.22216 11.0513 5.34534 11.0513V11.1195ZM5.34534 14.411H7.37989C7.50306 14.411 7.60249 14.5045 7.60249 14.6188V16.5094C7.60249 16.6237 7.50157 16.7172 7.37989 16.7172H5.34534C5.22216 16.7172 5.12125 16.6237 5.12125 16.5094V14.6188C5.12125 14.5045 5.22216 14.411 5.34534 14.411ZM8.87278 7.82954H10.9073C11.0305 7.82954 11.1314 7.92303 11.1314 8.0373V9.9279C11.1314 10.0422 11.0305 10.1357 10.9073 10.1357H8.87278C8.74961 10.1357 8.6487 10.0422 8.6487 9.9279V8.0373C8.65018 7.92303 8.74961 7.82954 8.87278 7.82954ZM8.87278 11.1195H10.9073C11.0305 11.1195 11.1314 11.213 11.1314 11.3273V13.2179C11.1314 13.3322 11.0305 13.4257 10.9073 13.4257H8.87278C8.74961 13.4257 8.6487 13.3322 8.6487 13.2179V11.259C8.6487 11.1448 8.74961 11.0513 8.87278 11.0513V11.1195ZM14.4348 11.1195H12.4017C12.2785 11.1195 12.1791 11.213 12.1791 11.3273V13.2179C12.1791 13.3322 12.2785 13.4257 12.4017 13.4257H14.4363C14.5594 13.4257 14.6603 13.3322 14.6603 13.2179V11.2576C14.6603 11.1433 14.5594 11.0498 14.4363 11.0498L14.4348 11.1195ZM14.4348 14.411H12.4017C12.2785 14.411 12.1791 14.5045 12.1791 14.6188V16.5094C12.1791 16.6237 12.2785 16.7172 12.4017 16.7172H14.4363C14.5594 16.7172 14.6603 16.6237 14.6603 16.5094V14.549C14.6603 14.4348 14.5594 14.3413 14.4363 14.3413L14.4348 14.411ZM8.87278 14.411H10.9073C11.0305 14.411 11.1314 14.5045 11.1314 14.6188V16.5094C11.1314 16.6237 11.0305 16.7172 10.9073 16.7172H8.87278C8.74961 16.7172 8.6487 16.6237 8.6487 16.5094V14.6188C8.65018 14.5045 8.74961 14.411 8.87278 14.411ZM1.04028 7.08012H15.4231C15.5003 7.08012 15.5626 7.14542 15.5626 7.21962V17.2766C15.5626 17.3508 15.4973 17.4161 15.4231 17.4161H0.902266C0.828067 17.4161 0.762771 17.3538 0.762771 17.2766V7.35763C0.762771 7.20478 0.887427 7.08012 1.04028 7.08012ZM11.6938 4.36293C12.1227 4.36293 12.4744 4.08543 12.4744 3.75005V2.24231L12.47 2.18147H10.9192L10.9148 2.24231V3.75005C10.9148 4.08691 11.265 4.36293 11.6938 4.36293ZM4.41636 4.36293C4.84523 4.36293 5.19694 4.08543 5.19694 3.75005V2.24231L5.19248 2.18147H3.64023L3.63578 2.24231V3.75005C3.63578 4.08691 3.986 4.36293 4.41636 4.36293Z" fill="#797D88"/>
</svg>
