<svg width="96" height="55" viewBox="0 0 96 55" fill="none" xmlns="http://www.w3.org/2000/svg">
<path d="M93.4251 12.3756C92.1268 8.37516 90.0213 5.27541 87.1555 3.13484C84.3598 1.05274 80.956 0 77.0374 0H18.2476C14.329 0 10.9251 1.05274 8.12952 3.14653C5.26372 5.28711 3.14653 8.39855 1.84815 12.399C0.596555 16.3058 0 21.1017 0 27.5V52.2512C0 52.8945 0.0584856 53.3741 0.187154 53.7601C0.315823 54.1578 0.526372 54.4736 0.818801 54.6842C1.09953 54.8947 1.43875 55 1.82476 55H77.0374C80.956 55 84.3598 53.9473 87.1555 51.8535C90.0213 49.7129 92.1385 46.6014 93.4368 42.601C94.6884 38.7059 95.2733 33.8983 95.2733 27.5C95.2733 21.1017 94.6884 16.2941 93.4251 12.3756Z" fill="#341CFF"/>
<path d="M45.5368 38.9165V45.5605H31.0908V9.4397H37.536V38.9165H45.5368Z" fill="white"/>
<path d="M55.4207 16.0837V24.1781H63.3748V30.8221H55.4207V38.9165H63.831V45.5605H48.9756V9.4397H63.831V16.0837H55.4207Z" fill="white"/>
<path d="M9.55704 39.5949C8.55109 36.4717 8.18848 32.3427 8.18848 27.5C8.18848 22.6574 8.55109 18.5283 9.55704 15.4052C10.9256 11.1708 13.5341 9.00684 18.248 9.00684C24.8335 9.00684 27.3484 13.3348 27.3484 22.868V22.9147H20.7161V22.8095C20.7161 17.5691 20.026 15.6508 18.0609 15.6508C16.7859 15.6508 16.0022 16.3526 15.4992 17.8733C14.9026 19.6863 14.8091 23.1136 14.8091 27.5C14.8091 32.1321 14.9494 35.5126 15.546 37.3724C16.0022 38.6825 16.6455 39.3375 17.6983 39.3375C19.523 39.3375 20.3067 37.3724 20.3067 32.0853H26.939C26.939 42.0162 24.3305 45.9932 17.8386 45.9932C13.5341 45.9932 10.9256 43.8293 9.55704 39.5949Z" fill="white"/>
<path d="M79.6456 36.9162C80.3358 34.7991 80.4177 31.0677 80.4177 27.4883C80.4177 23.909 80.3241 20.1776 79.6456 18.0604C79.1427 16.493 78.3239 15.6391 77.0372 15.6391C75.7973 15.6391 74.9785 16.493 74.4755 18.0604C73.7854 20.1776 73.6567 23.909 73.6567 27.4883C73.6567 31.0677 73.7971 34.7991 74.4755 36.9162C74.9785 38.4837 75.7973 39.3375 77.0372 39.3375C78.3122 39.3375 79.1427 38.4837 79.6456 36.9162ZM68.393 39.5949C67.387 36.4717 67.0244 32.3427 67.0244 27.5C67.0244 22.6574 67.387 18.5283 68.393 15.4052C69.7615 11.1708 72.37 9.00684 77.0372 9.00684C81.7043 9.00684 84.3479 11.1708 85.7282 15.4052C86.7341 18.5283 87.0967 22.6574 87.0967 27.5C87.0967 32.3427 86.7341 36.4717 85.7282 39.5949C84.3596 43.8293 81.7043 45.9932 77.0372 45.9932C72.37 45.9932 69.7615 43.8293 68.393 39.5949Z" fill="white"/>
</svg>
