<svg width="38" height="47" viewBox="0 0 38 47" fill="none" xmlns="http://www.w3.org/2000/svg">
<path d="M36.77 1H1V45.79H36.77V1Z" stroke="#013068" stroke-width="1.5"/>
<path d="M6.31006 24.53H31.4701" stroke="#013068" stroke-width="1.5"/>
<path d="M19.9302 18.38H31.4702" stroke="#013068" stroke-width="1.5"/>
<path d="M19.9302 12.22H31.4702" stroke="#013068" stroke-width="1.5"/>
<path d="M6.31006 30.6899H31.4701" stroke="#013068" stroke-width="1.5"/>
<path d="M6.31006 36.85H31.4701" stroke="#013068" stroke-width="1.5"/>
<path d="M11.0199 9.66003C11.3099 9.66003 11.5899 9.69003 11.8699 9.74003C12.1499 9.80003 12.4199 9.88003 12.6899 9.99003C12.9499 10.1 13.2099 10.23 13.4399 10.39C13.6799 10.55 13.8999 10.73 14.0999 10.93C14.2999 11.13 14.4799 11.35 14.6399 11.59C14.7999 11.83 14.9299 12.08 15.0399 12.34C15.1499 12.6 15.2299 12.88 15.2899 13.16C15.3499 13.44 15.3699 13.72 15.3699 14.01C15.3699 14.3 15.3399 14.58 15.2899 14.86C15.2299 15.14 15.1499 15.41 15.0399 15.68C14.9299 15.94 14.7999 16.2 14.6399 16.43C14.4799 16.67 14.2999 16.89 14.0999 17.09C13.8999 17.29 13.6799 17.47 13.4399 17.63C13.1999 17.79 12.9499 17.92 12.6899 18.03C12.4299 18.14 12.1499 18.22 11.8699 18.28C11.5899 18.34 11.3099 18.36 11.0199 18.36C10.7299 18.36 10.4499 18.33 10.1699 18.28C9.88992 18.22 9.61992 18.14 9.34992 18.03C9.08992 17.92 8.82992 17.79 8.59992 17.63C8.35992 17.47 8.13992 17.29 7.93992 17.09C7.73992 16.89 7.55992 16.67 7.39992 16.43C7.23992 16.19 7.10992 15.94 6.99992 15.68C6.88992 15.42 6.80992 15.14 6.74992 14.86C6.68992 14.58 6.66992 14.3 6.66992 14.01C6.66992 13.72 6.69992 13.44 6.74992 13.16C6.80992 12.88 6.88992 12.61 6.99992 12.34C7.10992 12.08 7.23992 11.82 7.39992 11.59C7.55992 11.35 7.73992 11.13 7.93992 10.93C8.13992 10.73 8.35992 10.55 8.59992 10.39C8.83992 10.23 9.08992 10.1 9.34992 9.99003C9.60992 9.88003 9.88992 9.80003 10.1699 9.74003C10.4499 9.69003 10.7299 9.66003 11.0199 9.66003Z" stroke="#013068" stroke-width="1.5"/>
</svg>
