<svg width="52" height="43" viewBox="0 0 52 43" fill="none" xmlns="http://www.w3.org/2000/svg">
<path d="M9.45508 25.3024C9.45508 25.3024 13.7711 24.3584 17.2791 24.8974C20.7861 25.4374 25.0911 28.1274 30.0251 28.6074C34.0221 28.9954 34.0721 33.2604 29.9571 33.2604H18.9641" fill="white"/>
<path d="M9.45508 25.3024C9.45508 25.3024 13.7711 24.3584 17.2791 24.8974C20.7861 25.4374 25.0911 28.1274 30.0251 28.6074C34.0221 28.9954 34.0721 33.2604 29.9571 33.2604H18.9641" stroke="#A5D9C5" stroke-width="1.5" stroke-linecap="round"/>
<path d="M9.45508 36.6641C9.45508 36.6641 20.8841 41.9821 28.4681 41.2461C36.0521 40.5081 48.0961 30.4761 49.1991 29.7001C52.1311 27.6411 50.2521 23.9051 46.1571 25.7091C42.2641 27.4231 33.0231 31.2481 33.0231 31.2481" fill="white"/>
<path d="M9.45508 36.6641C9.45508 36.6641 20.8841 41.9821 28.4681 41.2461C36.0521 40.5081 48.0961 30.4761 49.1991 29.7001C52.1311 27.6411 50.2521 23.9051 46.1571 25.7091C42.2641 27.4231 33.0231 31.2481 33.0231 31.2481" stroke="#A5D9C5" stroke-width="1.5" stroke-linecap="round"/>
<path d="M1 36.9778V23.3698C1 23.1978 1.033 23.0318 1.099 22.8738C1.165 22.7138 1.258 22.5738 1.38 22.4518C1.502 22.3308 1.642 22.2368 1.801 22.1708C1.96 22.1048 2.126 22.0718 2.298 22.0718H8.157C8.329 22.0718 8.495 22.1048 8.654 22.1708C8.813 22.2368 8.953 22.3308 9.075 22.4518C9.197 22.5738 9.291 22.7138 9.356 22.8738C9.422 23.0318 9.455 23.1978 9.455 23.3698V36.9778C9.455 37.1498 9.422 37.3148 9.356 37.4748C9.291 37.6328 9.197 37.7738 9.075 37.8948C8.953 38.0168 8.813 38.1108 8.654 38.1768C8.495 38.2428 8.329 38.2758 8.157 38.2758H2.298C2.126 38.2758 1.96 38.2428 1.801 38.1768C1.642 38.1108 1.502 38.0168 1.38 37.8948C1.258 37.7738 1.165 37.6328 1.099 37.4748C1.033 37.3148 1 37.1498 1 36.9778Z" fill="white" stroke="#A5D9C5" stroke-width="1.5"/>
<path d="M32.3934 6.22673C32.3934 5.20873 31.8354 3.87273 28.6524 3.87273C25.6434 3.87273 24.6894 5.82073 24.6894 7.29373C24.6894 9.63673 26.8824 10.7097 28.6524 10.7097C31.6444 10.7097 32.5254 12.1887 32.5254 14.0287C32.5254 16.5907 29.8664 17.1517 28.6524 17.1517C27.4364 17.1517 25.2384 16.5377 24.5254 14.3187" fill="white"/>
<path d="M32.3934 6.22673C32.3934 5.20873 31.8354 3.87273 28.6524 3.87273C25.6434 3.87273 24.6894 5.82073 24.6894 7.29373C24.6894 9.63673 26.8824 10.7097 28.6524 10.7097C31.6444 10.7097 32.5254 12.1887 32.5254 14.0287C32.5254 16.5907 29.8664 17.1517 28.6524 17.1517C27.4364 17.1517 25.2384 16.5377 24.5254 14.3187" stroke="#A5D9C5" stroke-width="1.5" stroke-linecap="round"/>
<path d="M28.6167 1.00005V19.451V1.00005Z" fill="white"/>
<path d="M28.6167 1.00005V19.451" stroke="#A5D9C5" stroke-width="1.5" stroke-linecap="round"/>
</svg>
