<svg width="142" height="39" viewBox="0 0 142 39" fill="none" xmlns="http://www.w3.org/2000/svg">
<path d="M0 23.2366C0.127966 22.3835 0.682487 21.829 1.27966 21.2318C2.60198 19.9095 3.9243 18.5871 5.24662 17.2648C5.33193 17.1795 5.41724 17.0515 5.54521 16.8809C8.87233 20.208 12.1141 23.4072 15.356 26.6917C21.3277 20.7199 27.2568 14.7908 33.2286 8.86169C33.3566 8.98966 33.4419 9.03231 33.5272 9.11762C35.0201 10.6106 36.5131 12.1035 38.006 13.5964C39.0724 14.6628 39.0724 16.0278 38.006 17.0942C31.1811 23.9191 24.3563 30.7013 17.5314 37.5262C16.9769 38.0807 16.3797 38.6352 15.5692 38.7632C15.3986 38.7632 15.2707 38.7632 15.1 38.7632C14.2896 38.5925 13.7351 38.0807 13.1805 37.5262C9.21358 33.5592 5.24662 29.5922 1.27966 25.6253C0.682487 25.0281 0.127966 24.4736 0 23.6205C0 23.4925 0 23.3645 0 23.2366Z" fill="#292461"/>
<path d="M99.8995 13.5112C99.8995 14.4069 99.8995 15.26 99.8995 16.1985C99.9848 16.1131 99.9848 16.1131 100.027 16.0705C101.009 14.1936 102.629 13.3405 104.72 13.3405C108.004 13.2979 110.521 15.2174 111.374 18.5018C111.971 20.8906 111.928 23.3219 110.905 25.5827C109.284 29.1231 105.829 30.0188 102.971 29.1657C101.734 28.7818 100.795 28.014 100.155 26.8623C100.113 26.777 100.07 26.6917 99.9848 26.5211C99.9848 29.9762 99.9848 33.3459 99.9848 36.7157C99.8568 36.7157 99.7289 36.7584 99.6436 36.7584C98.2786 36.7584 96.8709 36.7584 95.506 36.7584C95.2074 36.7584 95.1221 36.6731 95.1221 36.3745C95.1221 28.8671 95.1221 21.3171 95.1221 13.8097C95.1221 13.7244 95.1221 13.5965 95.1647 13.5112C96.6577 13.5112 98.2786 13.5112 99.8995 13.5112ZM106.81 21.2318C106.81 21.0612 106.767 20.7199 106.724 20.4213C106.511 19.1417 105.658 17.6061 103.483 17.5208C101.947 17.4781 100.625 18.2886 100.113 19.8242C99.8142 20.7199 99.7715 21.6157 100.027 22.5115C100.753 25.5827 104.208 25.7959 105.701 24.3456C106.554 23.5779 106.767 22.5115 106.81 21.2318Z" fill="#414141"/>
<path d="M75.9271 29.2511C74.3489 29.2511 72.7706 29.2511 71.1924 29.2511C71.1924 28.3553 71.1924 27.5022 71.1924 26.5638C70.8511 27.033 70.5952 27.4595 70.2539 27.8008C69.0169 29.1657 67.396 29.5923 65.6045 29.4217C62.7466 29.2084 60.8697 27.6301 59.9313 24.9855C58.9929 22.3409 59.0356 19.6962 60.1872 17.1369C61.7655 13.6392 65.3059 12.7007 68.2491 13.6392C69.5288 14.0657 70.4672 14.9615 71.1497 16.2838C71.1497 15.3027 71.1497 14.4069 71.1497 13.5112C71.9602 13.5112 72.7706 13.5112 73.5384 13.5112C74.3062 13.5112 75.1167 13.5112 75.9271 13.5112C75.9271 18.7578 75.9271 23.9618 75.9271 29.2511ZM64.2395 21.4024C64.2822 21.7863 64.2822 22.2129 64.3675 22.5968C64.6234 23.9618 65.6471 24.9855 66.9268 25.1988C68.5051 25.4974 69.8274 24.9428 70.5952 23.7485C71.235 22.7248 71.3203 21.5731 71.107 20.4214C70.8511 19.099 70.126 18.118 68.8036 17.7341C67.4813 17.3502 66.2443 17.5208 65.2206 18.5872C64.4528 19.3123 64.2395 20.3361 64.2395 21.4024Z" fill="#414141"/>
<path d="M15.2711 20.1654C13.1383 18.0326 11.0055 15.8998 8.83008 13.7244C8.95804 13.5964 9.0007 13.5111 9.08601 13.4258C13.3089 9.20292 17.5318 5.02268 21.712 0.79979C22.7784 -0.266597 24.1434 -0.266597 25.1671 0.79979C26.6601 2.29273 28.1957 3.78567 29.6886 5.32127C29.7739 5.40658 29.8592 5.49189 29.9019 5.53455C25.0392 10.3973 20.1764 15.26 15.2711 20.1654Z" fill="#292461"/>
<path d="M118.198 22.2556C118.07 23.5353 118.71 24.815 119.734 25.2842C120.885 25.8387 122.378 25.6254 123.189 24.7723C123.445 24.5164 123.573 24.1751 123.786 23.8765C123.829 23.7912 123.957 23.6633 124.042 23.6633C125.663 23.6633 127.284 23.6633 129.033 23.6633C128.819 24.2604 128.691 24.815 128.435 25.3268C127.625 26.9904 126.345 28.1421 124.639 28.8246C122.506 29.6777 120.331 29.6777 118.198 28.8672C115.468 27.8435 114.018 25.7534 113.591 22.9381C113.335 21.2746 113.421 19.611 114.061 17.9901C115.127 15.3454 117.132 13.8525 119.904 13.426C121.781 13.1274 123.658 13.298 125.407 14.1938C127.668 15.3454 128.862 17.2649 129.203 19.6963C129.289 20.4214 129.203 21.1466 129.203 21.8291C129.203 22.1277 129.075 22.213 128.734 22.213C125.407 22.213 122.037 22.213 118.71 22.213C118.497 22.2556 118.326 22.2556 118.198 22.2556ZM124.298 20.2082C124.469 19.2697 124.042 18.246 123.274 17.7342C122.165 16.9664 120.971 16.9237 119.819 17.5209C118.71 18.0754 118.283 19.0565 118.198 20.2508C120.203 20.2082 122.25 20.2082 124.298 20.2082Z" fill="#414141"/>
<path d="M78.7852 24.0472C80.3208 24.0472 81.8564 24.0472 83.3919 24.0472C83.4346 24.2178 83.4773 24.4311 83.5626 24.6017C83.9465 25.6254 84.7569 26.0093 85.738 26.0946C86.1219 26.1373 86.5058 26.0946 86.8897 26.0093C87.4869 25.8814 87.8708 25.4122 87.9134 24.815C87.9561 24.2605 87.7001 23.7486 87.1456 23.578C86.1645 23.2367 85.1408 22.9808 84.1171 22.6822C83.4346 22.4689 82.7095 22.341 82.027 22.085C80.1501 21.4452 79.0837 20.2082 78.9558 18.502C78.8278 16.4118 79.6809 14.7483 81.5578 13.9805C84.0318 12.9568 86.5484 12.9568 88.9372 14.1511C90.6434 15.0042 91.5818 16.5398 92.051 18.374C92.0937 18.4593 92.051 18.5873 92.0937 18.6726C90.6007 18.6726 89.1504 18.6726 87.6575 18.6726C87.6148 18.5446 87.5722 18.4167 87.4869 18.246C86.8897 16.6678 85.1408 16.3692 84.0744 16.7957C83.6052 16.9664 83.3493 17.3503 83.3066 17.8621C83.264 18.4167 83.4773 18.8432 83.9465 19.0138C84.7996 19.3124 85.6953 19.5684 86.5484 19.8243C87.5295 20.1229 88.5533 20.3362 89.4917 20.6774C92.9041 21.9571 92.9468 25.7961 91.2405 27.5876C90.3874 28.4833 89.3211 28.9952 88.1267 29.1658C85.9939 29.5497 83.8612 29.4218 81.8563 28.4407C80.1501 27.6729 78.8705 25.796 78.7852 24.0472Z" fill="#414141"/>
<path d="M52.1249 9.33093C53.7458 9.33093 55.3241 9.33093 56.945 9.33093C56.945 9.50155 56.945 9.62952 56.945 9.75749C56.945 14.2363 56.945 18.7578 56.945 23.2366C56.945 24.2177 56.7744 25.1561 56.3905 26.0519C55.7506 27.5875 54.5989 28.6112 53.0207 29.0804C51.2291 29.6349 49.4376 29.6349 47.6887 29.0378C45.1721 28.2273 43.8498 26.3931 43.4659 23.8338C43.3805 23.3646 43.3805 22.8527 43.3379 22.3408C44.9588 22.3408 46.4944 22.3408 48.0726 22.3408C48.0726 22.4688 48.1153 22.6394 48.1153 22.7674C48.158 23.1086 48.2006 23.4499 48.3286 23.7911C48.7125 24.9855 50.1628 25.4974 51.2291 24.8575C51.9543 24.431 52.0823 23.7058 52.0823 22.938C52.0823 21.3171 52.0823 19.7389 52.0823 18.118C52.0823 15.3454 52.0823 12.6154 52.0823 9.8428C52.1249 9.67218 52.1249 9.54421 52.1249 9.33093Z" fill="#414141"/>
<path d="M131.806 13.5112C133.384 13.5112 134.962 13.5112 136.583 13.5112C136.583 14.4496 136.583 15.3454 136.583 16.2838C137.308 15.4733 138.033 14.7055 138.972 14.151C139.91 13.5965 140.891 13.3406 142 13.3406C142 15.0468 142 16.753 142 18.5019C141.531 18.5019 141.062 18.5019 140.593 18.5019C140.123 18.5445 139.697 18.5445 139.27 18.6298C137.479 19.0137 136.626 20.0375 136.626 21.8717C136.626 24.1324 136.626 26.4358 136.626 28.6965C136.626 28.8672 136.626 28.9951 136.626 29.1657C135.047 29.1657 133.469 29.1657 131.848 29.1657C131.806 24.0044 131.806 18.7578 131.806 13.5112Z" fill="#414141"/>
</svg>
