<svg width="134" height="30" viewBox="0 0 134 30" fill="none" xmlns="http://www.w3.org/2000/svg">
<path d="M23.5808 0H16.9829C16.9829 5.41444 14.4976 10.3555 10.1779 13.6101L7.57422 15.5628L17.693 29.3504H26.007L16.687 16.6575C21.0955 12.2786 23.5808 6.36123 23.5808 0Z" fill="black"/>
<path d="M6.74586 0H0V29.3504H6.74586V0Z" fill="black"/>
<path d="M34.3212 0H27.96V29.3504H34.3212V0Z" fill="black"/>
<path d="M90.1227 8.49146C87.6965 8.49146 85.3887 9.23113 83.8502 11.3318V9.05361H77.8145V29.3504H83.939V18.699C83.939 15.6219 86.0101 14.113 88.4954 14.113C91.1582 14.113 92.6968 15.7107 92.6968 18.6694V29.3799H98.7621V16.4504C98.7621 11.7164 95.0046 8.49146 90.1227 8.49146Z" fill="black"/>
<path d="M53.5529 9.05361V10.3554C51.8369 9.17196 49.7658 8.49146 47.5172 8.49146C41.5998 8.49146 36.8066 13.2846 36.8066 19.202C36.8066 25.1194 41.5998 29.9125 47.5172 29.9125C49.7658 29.9125 51.8369 29.232 53.5529 28.0485V29.3504H59.6183V9.05361H53.5529ZM48.0202 24.4093C44.9727 24.4093 42.5169 22.0719 42.5169 19.202C42.5169 16.332 44.9727 13.9947 48.0202 13.9947C51.0676 13.9947 53.5233 16.332 53.5233 19.202C53.5233 22.0719 51.0676 24.4093 48.0202 24.4093Z" fill="black"/>
<path d="M69.0268 11.687V9.05371H62.8135V29.3505H69.0564V19.8826C69.0564 16.6872 72.518 14.9711 74.9146 14.9711C74.9442 14.9711 74.9738 14.9711 74.9738 14.9711V9.05371C72.518 9.05371 70.2398 10.1188 69.0268 11.687Z" fill="black"/>
<path d="M117.638 9.05361V10.3554C115.922 9.17196 113.851 8.49146 111.602 8.49146C105.685 8.49146 100.892 13.2846 100.892 19.202C100.892 25.1194 105.685 29.9125 111.602 29.9125C113.851 29.9125 115.922 29.232 117.638 28.0485V29.3504H123.703V9.05361H117.638ZM112.105 24.4093C109.058 24.4093 106.602 22.0719 106.602 19.202C106.602 16.332 109.058 13.9947 112.105 13.9947C115.153 13.9947 117.608 16.332 117.608 19.202C117.638 22.0719 115.153 24.4093 112.105 24.4093Z" fill="black"/>
<path d="M128.408 9.64527C128.408 9.3494 128.201 9.17188 127.876 9.17188H127.313V10.7104H127.58V10.1482H127.876L128.112 10.7104H128.408L128.142 10.0891C128.319 10.0003 128.408 9.85238 128.408 9.64527ZM127.876 9.88197H127.58V9.40857H127.876C128.053 9.40857 128.142 9.49733 128.142 9.64527C128.142 9.7932 128.083 9.88197 127.876 9.88197Z" fill="black"/>
<path d="M127.787 8.52112C126.988 8.52112 126.337 9.17203 126.337 9.97089C126.367 10.7697 126.988 11.4207 127.787 11.4207C128.586 11.4207 129.236 10.7697 129.236 9.97089C129.236 9.17203 128.586 8.52112 127.787 8.52112ZM127.787 11.1544C127.136 11.1544 126.633 10.6218 126.633 9.97089C126.633 9.31997 127.165 8.7874 127.787 8.7874C128.438 8.7874 128.941 9.31997 128.941 9.97089C128.941 10.6218 128.408 11.1544 127.787 11.1544Z" fill="black"/>
<path d="M130.183 22.1606C128.082 22.1606 126.366 23.8767 126.366 25.9774C126.366 28.0781 128.082 29.7941 130.183 29.7941C132.284 29.7941 134 28.0781 134 25.9774C134 23.8471 132.284 22.1606 130.183 22.1606Z" fill="black"/>
</svg>
