<svg width="159" height="35" viewBox="0 0 159 35" fill="none" xmlns="http://www.w3.org/2000/svg">
<path d="M38.19 4.92667C38.0003 3.21919 37.3362 1.08483 35.5813 0.373385C33.8739 -0.290635 31.6446 0.0413764 29.8423 0.515676C26.7119 0.183666 23.5816 1.46428 21.3049 3.74092C20.214 4.87924 19.4077 6.11241 18.7911 7.48788C16.7516 4.87923 13.3841 3.40891 10.1114 3.59863C6.31704 3.83578 2.6175 6.2547 0.862588 9.62223C-0.133442 11.5669 -0.133443 13.6538 0.198567 15.7881C0.530577 17.9225 1.05231 20.0568 2.04834 22.0489C3.75582 25.5113 6.55419 28.2622 9.87429 30.2543C12.5778 31.8669 16.0876 33.4321 19.2654 32.9104C19.7872 33.2424 20.3563 33.5269 20.9255 33.7167C22.6804 34.3807 24.5776 34.0487 26.1902 33.1949C27.9451 32.2463 29.2257 30.6811 30.3166 29.0211C31.5024 27.1713 32.5458 25.1318 33.5418 23.1398C35.1545 19.9145 37.194 14.8395 37.4311 10.3811C38.0003 8.57878 38.3797 6.72901 38.19 4.92667ZM21.0203 5.63812C22.3009 3.97807 24.0084 2.65002 25.953 2.03343C25.0044 2.55516 24.1033 3.17175 23.2495 3.8832C21.7318 5.21124 20.4512 6.82386 19.55 8.67363C19.55 8.57877 19.5026 8.53135 19.5026 8.48392C19.5026 8.43649 19.4551 8.43648 19.4551 8.43648C19.8346 7.39302 20.3563 6.49186 21.0203 5.63812ZM24.7199 25.9856C23.9136 27.0765 23.0598 28.4994 21.8741 29.2108C18.9334 30.9657 15.8505 27.6931 13.8584 25.9381C11.8663 24.1832 9.732 22.4283 7.8348 20.5311C6.93363 19.1557 6.22218 17.6379 5.84274 15.9778C5.22615 13.3692 5.51073 10.1914 7.40793 8.38905C8.21424 8.29419 9.11541 8.29419 9.82685 8.34162C12.7201 8.57877 15.4236 9.76452 17.5105 11.7091C17.2734 13.2743 17.2734 14.887 17.3682 16.4521C17.3682 16.7367 17.7477 16.7842 17.89 16.6419C17.89 16.6893 17.89 16.6893 17.89 16.6893C17.9374 17.0687 18.5065 17.1162 18.554 16.7367C18.9808 14.6972 19.3129 12.7052 20.0717 10.808C20.7832 9.66966 21.6844 8.67363 22.7278 7.81989C24.6724 6.2547 27.8028 4.78437 30.2692 6.06498C33.1624 7.53531 32.5458 11.3771 31.5498 13.8435C30.4115 16.5944 28.9411 19.298 27.3759 21.8592C26.6171 23.3295 25.7159 24.705 24.7199 25.9856ZM9.16284 24.1832C8.83083 23.8987 8.54625 23.6615 8.26167 23.3769C6.60162 21.8592 5.08386 19.9145 3.99297 17.8276C4.84671 19.1557 5.98503 20.4363 7.17078 21.622C7.78737 22.5232 8.45139 23.3769 9.16284 24.1832ZM4.84671 16.7842C4.13526 15.5036 3.70839 14.1755 3.75582 12.7052C3.80325 11.472 4.18269 10.144 5.17872 9.33765C5.32101 9.24279 5.4633 9.1005 5.60559 9.05307C5.13129 9.81195 4.79928 10.7131 4.60956 11.7091C4.27755 13.4166 4.37241 15.1241 4.84671 16.7842ZM9.63714 7.15587C9.68457 7.15587 9.68457 7.10844 9.77943 7.10844C12.3881 6.44442 14.807 7.58274 16.5619 9.33765C14.7121 8.1519 12.6252 7.39302 10.396 7.2033C10.1589 7.2033 9.87429 7.15587 9.63714 7.15587ZM19.0283 9.38508C19.0757 9.38508 19.1706 9.33765 19.218 9.33765C19.1706 9.47994 19.0757 9.62223 19.0283 9.81195L18.9334 9.71709C18.9334 9.62223 18.9808 9.47994 19.0283 9.38508ZM18.222 8.76849C18.222 8.86335 18.1745 8.91078 18.1271 9.00564C15.9928 6.96615 13.3841 5.21125 10.4434 4.68952C13.5738 4.64209 16.5145 6.20727 18.222 8.76849ZM3.80325 7.72503C4.989 6.53928 6.64905 5.97012 8.3091 5.82783C8.97312 5.7804 9.63713 5.82783 10.3012 5.92269C9.06798 6.06498 7.97708 6.53929 7.07591 7.29817C5.36844 7.58275 3.80325 8.38906 2.99694 10.144C2.42778 11.3297 2.28549 12.468 2.38035 13.6063C2.33292 13.4641 2.33292 13.3218 2.28549 13.2269C1.95348 11.1874 2.28549 9.14793 3.80325 7.72503ZM12.9572 30.444C9.87429 29.116 6.98106 27.0765 4.89414 24.4204C2.57007 21.4797 1.38432 17.7802 1.14717 14.0332C1.14717 13.8435 1.09974 13.7012 1.14717 13.5115C1.62147 16.3099 3.18666 19.0608 4.65699 21.1951C7.31307 24.9895 11.4395 27.5508 15.2339 30.112C15.9453 30.6337 16.7042 31.1554 17.4631 31.7246C15.8979 31.5823 14.3327 31.0132 12.9572 30.444ZM20.546 31.108C20.3089 31.0606 20.0717 31.0132 19.8346 30.9657C19.9294 30.9657 20.0717 30.9657 20.1666 31.0132C20.4512 31.0132 20.6883 31.0132 20.9729 30.9657C20.8306 31.0132 20.6883 31.0606 20.546 31.108ZM27.8977 29.9697C26.7119 31.3926 25.0519 32.5309 23.1547 32.6732C22.4432 32.7206 21.8266 32.5783 21.2101 32.3412C22.5381 32.4361 23.8661 32.1989 25.2416 31.4875C26.8542 30.6811 28.1823 29.448 29.3206 28.0251C28.8463 28.6891 28.4194 29.3531 27.8977 29.9697ZM32.1664 20.1043C30.6012 24.0884 27.4234 29.9697 23.0124 31.0606C24.1033 30.1594 25.0993 29.0685 26.0005 28.0251C27.5182 26.3176 28.9886 24.4678 30.364 22.618C31.0281 21.7169 31.6446 20.8157 32.2612 19.962C32.2138 19.962 32.1664 20.0094 32.1664 20.1043ZM30.7909 19.8197C29.7474 21.3374 28.6566 22.8552 27.4708 24.3255C29.5103 21.29 31.3126 18.0173 32.6881 14.6498C33.8264 11.8989 34.3956 8.43648 32.1664 6.06498C29.7474 3.45633 25.7159 4.59465 23.1547 6.30213C22.8701 6.49185 22.5855 6.729 22.3009 6.91872C23.9136 4.87923 26.1428 3.02947 28.7988 3.02947C32.5458 3.0769 33.6367 7.25073 33.8739 10.2388C34.0161 11.9937 33.8264 13.7486 33.4944 15.4561C32.6881 16.9739 31.7395 18.4442 30.7909 19.8197ZM33.9687 18.8236C34.3007 17.8276 34.5379 16.8316 34.7276 15.883C34.8699 15.6458 35.0122 15.3613 35.1545 15.0767C34.8699 16.3573 34.443 17.5905 33.9687 18.8236ZM35.9133 10.7605C35.6762 11.3297 35.439 11.8514 35.2019 12.4206C35.2019 12.3257 35.2019 12.2783 35.2019 12.1834C35.3442 8.95821 34.775 4.54722 31.7395 2.69745C30.8858 2.17572 29.9846 1.93857 29.1309 1.89114C29.368 1.84371 29.5577 1.74886 29.7949 1.70143C29.8423 1.70143 29.8423 1.70143 29.8897 1.70143C34.8699 2.6026 36.1979 6.49185 35.9133 10.7605ZM37.0042 6.53928C36.4351 4.31007 35.0122 2.41287 32.4984 1.27455C33.3047 1.22712 34.1584 1.17969 34.9173 1.41684C36.0082 1.74885 36.5299 2.93461 36.8145 3.97807C37.0517 4.78438 37.0517 5.63811 37.0042 6.53928Z" fill="#E12D23"/>
<path d="M105.825 17.0686C105.825 19.1081 105.778 21.1002 105.825 23.1397C105.825 23.8511 105.636 24.1357 104.924 24.1357C102.553 24.0883 102.505 24.4203 102.695 21.9539C102.79 21.0053 102.742 20.0567 102.742 19.1081C102.742 18.5864 102.553 18.3018 101.936 18.3018C100.561 18.3492 99.1378 18.3492 97.7623 18.3018C97.1931 18.3018 96.956 18.4915 97.0034 19.0607C97.0509 20.4362 97.0034 21.7642 97.0509 23.1397C97.0509 23.8511 96.8137 24.0883 96.1023 24.0883C93.9205 24.0408 93.8256 24.4203 93.9205 21.9539C94.0153 18.3018 93.873 14.6971 93.873 11.045C93.873 9.81185 93.9205 9.76442 95.1537 9.76442C97.1457 9.76442 97.1931 9.76442 97.0983 11.7565C97.0509 12.7525 97.0509 13.796 97.0034 14.792C96.956 15.3137 97.1457 15.5983 97.7623 15.5983C99.1378 15.5509 100.561 15.5509 101.936 15.5983C102.505 15.5983 102.695 15.3612 102.695 14.792C102.648 13.4165 102.648 12.0885 102.6 10.713C102.6 10.049 102.837 9.71699 103.549 9.71699C106.252 9.71699 105.778 9.52727 105.825 11.8988C105.825 13.6063 105.825 15.3137 105.825 17.0212C105.825 17.0686 105.825 17.0686 105.825 17.0686Z" fill="black"/>
<path d="M73.8098 19.0134C73.8098 17.3533 73.7624 15.6933 73.8098 13.9858C73.8098 13.6064 74.0469 12.9423 74.2367 12.8949C74.9481 12.7526 75.6596 12.8475 76.371 12.9423C76.4659 12.9423 76.5607 13.3218 76.5607 13.5115C76.5607 16.7842 76.5607 20.0094 76.5133 23.2821C76.5133 23.5192 76.0864 23.9461 75.8018 23.9935C75.375 24.1358 74.8532 23.9935 74.3789 24.0409C73.6201 24.1358 73.1458 23.7564 72.7663 23.1398C71.628 21.29 70.4897 19.4877 69.3039 17.6853C69.2091 17.6853 69.1142 17.6853 69.0668 17.7328C69.0668 18.8711 69.0668 20.0568 69.0668 21.1951C69.0668 21.8117 69.1142 22.4758 69.1142 23.0923C69.1617 23.7089 68.8771 23.9935 68.213 24.0409C66.3633 24.0884 66.3633 24.1358 66.3633 22.286C66.3633 19.4402 66.4107 16.5944 66.3633 13.7486C66.3633 12.9423 66.6479 12.8 67.4067 12.7052C68.9719 12.5629 70.0154 12.9898 70.7268 14.5075C71.5331 16.1201 72.624 17.543 73.5726 19.0608C73.6675 19.0608 73.7624 19.0608 73.8098 19.0134Z" fill="black"/>
<path d="M148.749 18.3967C148.749 16.8315 148.749 15.2189 148.749 13.6537C148.749 13.0845 148.939 12.7999 149.555 12.7999C152.164 12.8474 151.785 12.5153 151.785 14.9817C151.785 17.5904 151.31 17.1161 153.919 17.2109C155.958 17.2583 155.958 17.2109 155.958 15.2189C155.958 15.0766 155.958 14.9817 155.958 14.8394C156.006 12.6102 155.532 12.8474 158.093 12.8474C158.804 12.8474 159.041 13.1319 158.994 13.796C158.947 16.12 158.947 18.4915 158.899 20.8156C158.899 21.5745 158.899 22.3334 158.947 23.0922C158.994 23.8037 158.757 24.1357 157.998 24.1357C155.816 24.1831 155.816 24.1831 155.958 22.0013C156.148 19.9144 156.148 19.7721 154.014 19.8196C151.215 19.9144 151.595 19.2978 151.642 22.0962C151.69 24.1831 151.69 24.1357 149.555 24.0883C148.844 24.0883 148.607 23.8037 148.654 23.1397C148.797 21.5745 148.749 19.9619 148.749 18.3967Z" fill="black"/>
<path d="M112.37 17.1635C113.176 17.1635 114.03 17.1635 114.884 17.1635C116.117 17.1635 116.117 17.1635 116.07 18.4441C116.07 18.5864 116.022 18.7761 116.07 18.9184C116.117 19.4876 115.785 19.6773 115.263 19.6773C114.552 19.6299 113.888 19.6773 113.176 19.6299C112.418 19.5824 112.18 19.867 112.18 20.6259C112.18 21.3373 112.37 21.6693 113.129 21.6219C114.125 21.5745 115.169 21.6219 116.165 21.5271C116.971 21.4796 117.255 21.7642 117.161 22.5705C117.018 24.0408 117.018 24.0408 115.501 24.0408C113.746 24.0408 111.943 24.0408 110.188 24.0408C109.477 24.0408 109.192 23.7563 109.192 22.9974C109.192 19.9144 109.24 16.7841 109.192 13.7011C109.192 12.9897 109.43 12.7051 110.188 12.7051C112.228 12.7525 114.315 12.7525 116.354 12.7051C117.161 12.7051 117.35 13.0371 117.255 13.7485C117.161 15.2663 117.066 15.3612 115.548 15.2189C114.931 15.1714 114.362 15.1714 113.746 15.1714C112.133 15.2663 112.086 15.3612 112.37 17.1635Z" fill="black"/>
<path d="M79.7861 18.3967C79.7861 16.879 79.8336 15.3612 79.7861 13.8434C79.7861 13.0846 79.9284 12.7526 80.7822 12.7526C82.8216 12.8 84.8137 12.7526 86.8532 12.7526C87.4698 12.7526 87.9441 12.8 87.8967 13.6063C87.8018 15.1241 87.6595 15.3138 86.7109 15.3138C85.7149 15.2663 84.6714 15.2664 83.6754 15.2189C82.8691 15.1715 82.8216 15.6458 82.8216 16.2624C82.8216 16.9264 83.0114 17.1635 83.7228 17.1635C84.4817 17.1161 85.2406 17.1635 85.9995 17.1635C86.5686 17.1635 86.8532 17.3533 86.8058 17.9224C86.7583 18.207 86.7583 18.4916 86.7583 18.7762C86.7109 19.3928 86.4738 19.6773 85.8097 19.6299C85.0983 19.5825 84.3394 19.6299 83.628 19.5825C82.9165 19.535 82.7742 19.9145 82.7742 20.4836C82.7742 21.0528 82.7742 21.5745 83.5805 21.5271C84.6714 21.4797 85.8097 21.4797 86.9006 21.4797C87.4698 21.4797 87.8967 21.622 87.7544 22.286C87.6121 22.9026 88.1338 23.946 86.9481 23.9935C84.8137 24.0883 82.7268 24.0409 80.5924 24.0409C79.9284 24.0409 79.8336 23.6615 79.8336 23.0923C79.881 21.5271 79.8336 19.9145 79.8336 18.3493C79.8336 18.3967 79.8336 18.3967 79.7861 18.3967Z" fill="black"/>
<path d="M62.522 24.0884C61.6683 24.2781 61.0042 23.9461 61.0042 22.8078C61.0042 22.1912 60.6248 21.8592 59.9608 21.9066C59.1545 21.954 58.3956 21.954 57.5893 21.9066C56.9253 21.8592 56.5458 22.1912 56.5458 22.8552C56.5458 23.8512 56.0715 24.2307 55.1229 24.1358C54.8858 24.0884 54.6012 24.1358 54.364 24.1358C53.6052 24.1832 53.4154 23.8512 53.6526 23.1398C54.7909 19.9145 55.8818 16.6893 57.0676 13.5115C57.5893 12.468 58.8225 12.7526 60.0082 12.7526C60.6248 12.7526 60.8145 13.0372 61.0042 13.6063C62.0003 16.7367 62.9963 19.8671 63.9923 22.9975C64.3243 23.9461 64.1346 24.0884 62.522 24.0884ZM59.0596 16.0727C58.9648 16.0727 58.9173 16.0727 58.8225 16.0727C58.5853 16.7842 58.3007 17.4482 58.0636 18.1596C57.6367 19.4402 57.9213 19.7723 59.3442 19.4877C59.5339 19.4402 59.6762 19.3928 60.0082 19.2505C59.6762 18.2071 59.3442 17.1162 59.0596 16.0727Z" fill="black"/>
<path d="M127.406 24.0884C126.552 24.2781 125.888 23.9461 125.888 22.8078C125.888 22.1912 125.509 21.8592 124.845 21.9066C124.038 21.954 123.279 21.954 122.473 21.9066C121.809 21.8592 121.43 22.1912 121.43 22.8552C121.43 23.8512 120.955 24.2307 120.007 24.1358C119.77 24.0884 119.485 24.1358 119.248 24.1358C118.489 24.1832 118.299 23.8512 118.536 23.1398C119.675 19.9145 120.766 16.6893 121.951 13.5115C122.473 12.468 123.706 12.7526 124.892 12.7526C125.509 12.7526 125.698 13.0372 125.888 13.6063C126.884 16.7367 127.88 19.8671 128.876 22.9975C129.161 23.9461 129.018 24.0884 127.406 24.0884ZM123.943 16.0727C123.849 16.0727 123.801 16.0727 123.706 16.0727C123.469 16.7842 123.185 17.4482 122.947 18.1596C122.521 19.4402 122.805 19.7723 124.228 19.4877C124.418 19.4402 124.56 19.3928 124.892 19.2505C124.56 18.2071 124.228 17.1162 123.943 16.0727Z" fill="black"/>
<path d="M44.7354 16.9265C44.7354 14.9818 44.7828 12.9898 44.7354 11.0451C44.7354 10.144 44.9725 9.76453 45.9685 9.76453C48.1503 9.81196 48.1503 9.85938 48.008 12.0886C47.8657 14.9344 47.8657 17.7802 47.8183 20.626C47.8183 21.1952 48.1029 21.3849 48.6246 21.3849C49.6681 21.3849 50.7115 21.3849 51.755 21.3849C52.5139 21.3849 52.8459 21.6695 52.751 22.4758C52.6087 24.1358 52.6087 24.1358 50.9487 24.1358C49.2886 24.1358 47.5812 24.0884 45.9211 24.1358C44.9725 24.1832 44.7354 23.8038 44.7354 22.9026C44.7354 20.9106 44.7354 18.9185 44.7354 16.9265Z" fill="black"/>
<path d="M140.734 19.6299C140.734 18.4442 140.734 17.3058 140.734 16.1201C140.734 15.4561 140.45 15.1715 139.833 15.3138C139.738 15.3138 139.643 15.3612 139.548 15.3612C137.651 15.5509 137.699 15.5509 137.841 13.6063C137.888 13.0371 138.078 12.8474 138.647 12.8474C141.066 12.8474 143.438 12.8474 145.857 12.8474C146.473 12.8474 146.758 13.0846 146.71 13.7012C146.663 14.0332 146.663 14.4126 146.663 14.7446C146.615 15.2663 146.378 15.5509 145.809 15.4561C145.667 15.4086 145.477 15.4561 145.335 15.4086C143.722 15.3138 143.675 15.3138 143.675 16.9738C143.675 18.9659 143.722 20.9579 143.77 22.95C143.817 23.8037 143.532 24.1358 142.631 24.1358C140.782 24.0883 140.782 24.1357 140.782 22.286C140.734 21.3848 140.734 20.5311 140.734 19.6299Z" fill="black"/>
<path d="M134.189 17.1636C134.189 18.3493 134.189 19.5825 134.189 20.7682C134.189 21.3374 134.378 21.5745 134.948 21.5745C135.706 21.5271 136.465 21.5745 137.224 21.5745C137.936 21.5745 138.173 21.8117 138.125 22.5231C137.983 24.0883 137.983 24.0883 136.465 24.0883C135.042 24.0883 133.62 24.0883 132.197 24.0883C131.533 24.0883 131.248 23.8986 131.248 23.1397C131.295 20.0568 131.295 17.0213 131.248 13.9383C131.248 13.0372 131.485 12.7051 132.434 12.7526C134.568 12.8474 134.426 12.5628 134.284 14.6972C134.236 15.5509 134.236 16.3572 134.189 17.1636C134.236 17.1636 134.236 17.1636 134.189 17.1636Z" fill="black"/>
</svg>
