<svg width="185" height="41" viewBox="0 0 185 41" fill="none" xmlns="http://www.w3.org/2000/svg">
    <path d="M53.448 9.12L59.112 32H62.312L67.592 12.384H67.656L72.936 32H76.136L81.8 9.12H78.76L74.408 27.872H74.344L69.224 9.12H66.024L60.904 27.872H60.84L56.488 9.12H53.448ZM89.3603 30.208C85.8083 30.208 84.0483 27.456 84.0483 24.512H96.9443C96.9443 18.72 94.4483 15.232 89.3283 15.232C84.5603 15.232 81.4883 18.4 81.4883 23.84C81.4883 28.96 84.4963 32.448 89.4563 32.448C93.5203 32.448 95.8563 30.016 96.6883 26.976H94.1283C93.8403 28.096 92.6243 30.208 89.3603 30.208ZM89.3283 17.472C92.4003 17.472 94.3843 19.648 94.3843 22.272H84.0483C84.0483 19.648 86.2563 17.472 89.3283 17.472ZM107.223 15.232C104.599 15.232 103.063 16.384 102.103 17.792H102.039V9.12H99.4788V32H102.039V29.984H102.103C103.063 31.232 104.599 32.448 107.223 32.448C111.319 32.448 114.583 29.216 114.583 23.84C114.583 18.464 111.319 15.232 107.223 15.232ZM106.967 30.208C103.927 30.208 102.039 27.68 102.039 23.84C102.039 20 103.927 17.472 106.967 17.472C110.327 17.472 112.023 20.64 112.023 23.84C112.023 27.04 110.327 30.208 106.967 30.208Z" fill="#8B8178"/>
    <path d="M134.254 14.88C134.254 11.328 131.438 9.12 126.766 9.12H117.55V32H127.406C132.142 32 135.15 29.568 135.15 25.344C135.15 21.92 133.102 20.096 130.702 19.68V19.616C132.59 18.976 134.254 17.696 134.254 14.88ZM120.43 18.688V11.68H127.534C130.158 11.68 131.374 13.12 131.374 15.2C131.374 17.28 130.478 18.688 127.214 18.688H120.43ZM120.43 21.248H128.334C130.734 21.248 132.27 22.88 132.27 25.344C132.27 27.488 131.374 29.44 127.694 29.44H120.43V21.248ZM147.744 19.84C147.744 21.472 146.496 21.824 143.744 22.336C139.52 23.136 136.768 24.096 136.768 27.808C136.768 30.56 138.848 32.448 142.144 32.448C144.832 32.448 146.656 31.488 147.68 29.952H147.744C148.192 31.744 149.12 32.16 150.656 32.16C151.136 32.16 151.488 32.128 152.16 31.904V30.112C150.528 30.304 150.304 29.6 150.304 28.32V20.384C150.304 16.448 147.52 15.232 144.416 15.232C139.68 15.232 137.728 17.6 137.568 20.736H140.128C140.288 18.368 141.312 17.472 144.416 17.472C147.04 17.472 147.744 18.56 147.744 19.84ZM142.4 30.208C140.288 30.208 139.328 29.28 139.328 27.68C139.328 25.728 140.8 24.928 143.968 24.256C145.696 23.904 147.264 23.456 147.744 22.976V25.696C147.744 28.832 145.44 30.208 142.4 30.208ZM162.073 15.232C159.289 15.232 157.561 16.48 156.697 17.632H156.633V15.68H154.073V32H156.633V21.824C156.633 19.296 158.553 17.472 161.433 17.472C163.993 17.472 164.985 19.136 164.985 21.248V32H167.545V20.608C167.545 16.864 165.049 15.232 162.073 15.232ZM170.979 9.12V32H173.539V25.568L176.067 23.232L181.859 32H184.899L177.859 21.728L184.227 15.68H181.027L173.539 22.688V9.12H170.979Z" fill="#013068"/>
    <path d="M0 0V40.3881H41V0H0ZM38.7404 38.1285H2.25959V2.25959H38.7404V38.1285Z" fill="#8B8178"/>
    <path d="M36.6184 7.88794L29.3164 32.5002H22.2148L29.4174 7.88794H36.6184Z" fill="#8B8178"/>
    <path d="M26.3703 7.88794L19.0684 32.5002H11.9668L19.1693 7.88794H26.3703Z" fill="#8B8178"/>
    <path d="M4.38184 7.88794L11.6838 32.5002H18.7854L11.5828 7.88794H4.38184Z" fill="#013068"/>
    <path d="M14.5889 7.88794L21.8924 32.5002H28.9939L21.7914 7.88794H14.5889Z" fill="#013068"/>
</svg>
