<svg width="204" height="118" viewBox="0 0 204 118" fill="none" xmlns="http://www.w3.org/2000/svg">
<rect width="204" height="118" rx="10" fill="#F2F2F2"/>
<path d="M60.68 45.4V74H79.28V70.8H64.28V45.4H60.68ZM90.4072 74.56C84.1672 74.56 80.4072 70.16 80.4072 63.8C80.4072 57.44 84.1672 53.04 90.4072 53.04C96.6072 53.04 100.367 57.44 100.367 63.8C100.367 70.16 96.6072 74.56 90.4072 74.56ZM90.4072 71.76C94.9672 71.76 97.1672 68.16 97.1672 63.8C97.1672 59.44 94.9672 55.84 90.4072 55.84C85.8072 55.84 83.6072 59.44 83.6072 63.8C83.6072 68.16 85.8072 71.76 90.4072 71.76ZM118.118 53.6V56.12H118.038C116.838 54.56 114.918 53.04 111.558 53.04C106.518 53.04 102.438 56.28 102.438 63C102.438 69.72 106.518 72.96 111.558 72.96C114.918 72.96 116.838 71.52 118.038 69.76H118.118V72.84C118.118 76.64 115.918 78.28 112.118 78.28C108.318 78.28 106.638 76.72 106.238 74.64H103.038C103.358 78.12 106.678 81.08 112.278 81.08C117.878 81.08 121.318 78.32 121.318 72.88V53.6H118.118ZM111.958 70.16C107.758 70.16 105.638 67 105.638 63C105.638 59 107.758 55.84 111.958 55.84C115.758 55.84 118.118 58.2 118.118 63C118.118 67.8 115.758 70.16 111.958 70.16ZM134.548 74.56C128.308 74.56 124.548 70.16 124.548 63.8C124.548 57.44 128.308 53.04 134.548 53.04C140.748 53.04 144.508 57.44 144.508 63.8C144.508 70.16 140.748 74.56 134.548 74.56ZM134.548 71.76C139.108 71.76 141.308 68.16 141.308 63.8C141.308 59.44 139.108 55.84 134.548 55.84C129.948 55.84 127.748 59.44 127.748 63.8C127.748 68.16 129.948 71.76 134.548 71.76Z" fill="#DDDDDD"/>
</svg>
