<svg width="300" height="75" viewBox="0 0 300 75" fill="none" xmlns="http://www.w3.org/2000/svg">
<path d="M16.9441 57.3185H15.9411H15.5703L13.4082 63.4615H14.5946L15.102 61.9474H15.9411H17.4124L17.8846 63.3524L17.9198 63.4615H19.1062L17.8807 59.9922L16.9441 57.3185ZM15.9411 61.0537H15.4025L15.9411 59.4497L16.2338 58.5791H16.2806L17.1119 61.0537H15.9411Z" fill="white"/>
<path d="M25.971 61.5063H25.9164L23.0245 57.3185H22.0293V63.4615H23.1416V59.2779H23.1923L26.0881 63.4615H27.0755V57.3185H25.971V61.5063Z" fill="white"/>
<path d="M34.3382 61.5063H34.2835L31.3916 57.3185H30.3965V63.4615H31.5088V59.2779H31.5595L34.4553 63.4615H35.4427V57.3185H34.3382V61.5063Z" fill="white"/>
<path d="M39.8759 57.3185H38.7637V63.4615H39.8759V57.3185Z" fill="white"/>
<path d="M45.6782 62.1541H45.6155L44.0153 57.3185H42.7939L44.9558 63.4615H46.3298L48.4959 57.3185H47.2741L45.6782 62.1541Z" fill="white"/>
<path d="M52.5332 60.8505H55.2065V59.918H52.5332V58.2513H55.4136V57.3185H51.4209V63.4615H55.437V62.5287H52.5332V60.8505Z" fill="white"/>
<path d="M62.1405 60.9758C62.4643 60.8194 62.7102 60.5969 62.8781 60.3084C63.046 60.0195 63.1279 59.676 63.1279 59.2856C63.1279 58.8953 63.046 58.5518 62.882 58.2552C62.7183 57.9586 62.4724 57.7323 62.1524 57.5686C61.8323 57.4046 61.4343 57.3228 60.9621 57.3228H58.6592V63.4654H59.7714V61.2174H60.9033L62.1093 63.4654H63.3503L62.0194 61.0303C62.0625 61.0069 62.1055 60.9949 62.1405 60.9758ZM59.7714 58.2475H60.7904C61.0674 58.2475 61.2937 58.2867 61.4693 58.3685C61.6448 58.4504 61.7778 58.5676 61.8635 58.7235C61.9495 58.8799 61.9922 59.0632 61.9922 59.2818C61.9922 59.5004 61.9495 59.6837 61.8635 59.832C61.7778 59.9803 61.6487 60.0936 61.4731 60.1716C61.2975 60.2496 61.0712 60.2888 60.7942 60.2888H59.7676V58.2475H59.7714Z" fill="white"/>
<path d="M70.1982 60.5351C70.0265 60.3945 69.8356 60.2777 69.6208 60.1878C69.406 60.0941 69.1836 60.0238 68.9496 59.9692L68.3717 59.8247C68.2469 59.7936 68.122 59.7587 67.9971 59.7157C67.8723 59.6726 67.7593 59.6181 67.6575 59.5516C67.5561 59.4851 67.4742 59.4071 67.4159 59.3138C67.357 59.22 67.3259 59.1067 67.3259 58.9818C67.3298 58.8297 67.3728 58.689 67.4627 58.5723C67.5522 58.4512 67.6771 58.3575 67.845 58.2872C68.0129 58.2169 68.2119 58.1819 68.442 58.1819C68.774 58.1819 69.0391 58.2561 69.2462 58.4005C69.4529 58.5446 69.5701 58.7517 69.5974 59.0129H70.6666C70.6589 58.6656 70.5652 58.3613 70.3738 58.092C70.1867 57.8265 69.9289 57.616 69.5974 57.4638C69.2654 57.3117 68.8869 57.2375 68.4497 57.2375C68.0206 57.2375 67.634 57.3117 67.2948 57.4638C66.9552 57.616 66.6858 57.8265 66.4907 58.0958C66.2955 58.369 66.1941 58.6852 66.1941 59.0483C66.1941 59.4894 66.3424 59.8405 66.6351 60.106C66.9279 60.3711 67.3259 60.5663 67.8335 60.6992L68.532 60.8786C68.7506 60.9332 68.9458 60.9997 69.1094 61.07C69.2735 61.1399 69.4022 61.2298 69.4959 61.335C69.5897 61.4407 69.6361 61.5733 69.6361 61.7331C69.6323 61.9091 69.5816 62.0612 69.4763 62.1938C69.3711 62.3263 69.2304 62.4281 69.0472 62.498C68.8635 62.5722 68.653 62.6076 68.4109 62.6076C68.1808 62.6076 67.9699 62.5722 67.7823 62.5023C67.5953 62.432 67.4431 62.3263 67.3298 62.1861C67.2126 62.0455 67.1465 61.866 67.1308 61.6513H66.0381C66.0539 62.0612 66.1591 62.4047 66.3581 62.6894C66.5533 62.9745 66.8303 63.1888 67.1815 63.3371C67.5326 63.4854 67.9464 63.5596 68.4224 63.5596C68.9142 63.5596 69.3319 63.4816 69.6792 63.3295C70.0265 63.1773 70.292 62.9625 70.4752 62.6894C70.6589 62.4162 70.7527 62.1 70.7527 61.7412C70.7527 61.4757 70.7019 61.2417 70.6044 61.0465C70.5068 60.8433 70.37 60.6758 70.1982 60.5351Z" fill="white"/>
<path d="M75.5276 57.3185L73.3652 63.4615H74.5517L75.0592 61.9474H77.3694L77.877 63.4615H79.0634L76.8972 57.3185H75.5276ZM75.3596 61.0537L76.1911 58.5791H76.238L77.069 61.0537H75.3596Z" fill="white"/>
<path d="M85.4676 60.9758C85.7915 60.8194 86.0374 60.5969 86.2049 60.3084C86.3728 60.0195 86.455 59.676 86.455 59.2856C86.455 58.8953 86.3728 58.5518 86.2091 58.2552C86.0451 57.9586 85.7992 57.7323 85.4791 57.5686C85.1591 57.4046 84.761 57.3228 84.2889 57.3228H81.9863V63.4654H83.0986V61.2174H84.2305L85.4361 63.4654H86.6775L85.3466 61.0303C85.3892 61.0069 85.4284 60.9949 85.4676 60.9758ZM83.0986 58.2475H84.1171C84.3941 58.2475 84.6204 58.2867 84.796 58.3685C84.972 58.4504 85.1045 58.5676 85.1902 58.7235C85.2763 58.8799 85.3193 59.0632 85.3193 59.2818C85.3193 59.5004 85.2763 59.6837 85.1902 59.832C85.1045 59.9803 84.9758 60.0936 84.8002 60.1716C84.6247 60.2496 84.398 60.2888 84.1209 60.2888H83.0948V58.2475H83.0986Z" fill="white"/>
<path d="M93.4903 57.3185L92.214 59.6291L91.9877 60.0348H91.9293L90.4267 57.3185H90.2707H89.1699L90.2707 59.2153L91.4064 61.1705V63.4615H92.214H92.5148V61.1705L94.747 57.3185H93.4903Z" fill="white"/>
<path d="M48.9667 14.7093H53.1545L51.0625 7.68834L48.7676 0H44.4707L48.8576 14.7093H48.9667Z" fill="#1F376B"/>
<path d="M54.08 11.9735L54.8956 14.7093H55.0047H59.1964L57.1006 7.68834L56.2304 4.773L54.8057 0H53.3542H50.5088L51.9334 4.773L54.08 11.9735Z" fill="#1F376B"/>
<path d="M61.4761 58.3686C61.3006 58.2868 61.0743 58.2476 60.7973 58.2476H59.7783V60.2888H60.8049C61.0819 60.2888 61.3082 60.2496 61.4838 60.1717C61.6598 60.0937 61.7885 59.9803 61.8742 59.832C61.9602 59.6837 62.0029 59.5005 62.0029 59.2818C62.0029 59.0632 61.9602 58.8761 61.8742 58.7236C61.7847 58.5676 61.6517 58.4504 61.4761 58.3686Z" fill="#1F376B"/>
<path d="M76.1933 58.5796L75.3623 61.0543H77.0716L76.2402 58.5796H76.1933Z" fill="#1F376B"/>
<path d="M84.8013 58.3686C84.6253 58.2868 84.399 58.2476 84.122 58.2476H83.1035V60.2888H84.1297C84.4071 60.2888 84.6334 60.2496 84.809 60.1717C84.9846 60.0937 85.1133 59.9803 85.1994 59.832C85.285 59.6837 85.3281 59.5005 85.3281 59.2818C85.3281 59.0632 85.285 58.8761 85.1994 58.7236C85.1056 58.5676 84.9769 58.4504 84.8013 58.3686Z" fill="#1F376B"/>
<path d="M90.2722 53.1631H17.8849H15.9414H9.48633V67.6303H16.5502H18.6967H89.4646H91.6111H98.6747V53.1631H92.2197H90.2722ZM17.924 63.4624L17.8888 63.3529L17.4166 61.9479H15.9414H15.1023L14.595 63.4624H13.4085L15.5706 57.3194H15.9414H16.9444L17.8849 59.9888L19.1104 63.4586H17.924V63.4624ZM27.0758 63.4624H26.0884L23.1965 59.2784H23.1458V63.4624H22.0296V57.3194H23.0248L25.9167 61.5072H25.9714V57.3194H27.0797V63.4624H27.0758ZM35.4432 63.4624H34.4519L31.56 59.2784H31.5093V63.4624H30.397V57.3194H31.3922L34.2841 61.5072H34.3387V57.3194H35.4471V63.4624H35.4432ZM39.8767 63.4624H38.7644V57.3194H39.8767V63.4624ZM46.332 63.4624H44.958L42.7957 57.3194H44.0175L45.6177 62.155H45.6799L47.2763 57.3194H48.4977L46.332 63.4624ZM55.4368 63.4624H51.4169V57.3194H55.4134V58.2523H52.533V59.9185H55.2067V60.8514H52.533V62.5296H55.4406V63.4624H55.4368ZM62.1143 63.4624L60.9082 61.2145H59.7768V63.4624H58.6645V57.3194H60.967C61.4392 57.3194 61.8334 57.4012 62.1573 57.5653C62.4773 57.7294 62.7194 57.9595 62.8869 58.2523C63.0509 58.5489 63.1328 58.8923 63.1328 59.2827C63.1328 59.6769 63.0509 60.0161 62.883 60.3051C62.7151 60.594 62.4692 60.8164 62.1454 60.9724C62.1066 60.992 62.0674 61.0035 62.0243 61.0193L63.3552 63.4544H62.1143V63.4624ZM70.4818 62.6856C70.2982 62.9587 70.0327 63.1735 69.6854 63.3257C69.338 63.4778 68.9204 63.5562 68.429 63.5562C67.9526 63.5562 67.535 63.4816 67.1876 63.3333C66.8365 63.185 66.5633 62.9707 66.3643 62.6856C66.1691 62.4009 66.06 62.0574 66.0443 61.6474H67.1369C67.1527 61.8622 67.2192 62.0378 67.336 62.1823C67.4531 62.3229 67.6053 62.432 67.789 62.4985C67.9722 62.5645 68.187 62.6037 68.4171 62.6037C68.6592 62.6037 68.8697 62.5688 69.0534 62.4946C69.2366 62.4205 69.3811 62.3186 69.4825 62.1899C69.5839 62.0612 69.6389 61.9053 69.6427 61.7297C69.6389 61.5695 69.592 61.4369 69.5021 61.3312C69.4084 61.226 69.2835 61.1403 69.1156 61.0662C68.9519 60.9959 68.7568 60.9332 68.5381 60.8748L67.8397 60.6954C67.3321 60.5667 66.9341 60.3673 66.6413 60.1022C66.3485 59.8367 66.2002 59.4855 66.2002 59.0445C66.2002 58.6814 66.2978 58.3652 66.4968 58.092C66.692 57.8188 66.9614 57.6083 67.301 57.46C67.6407 57.3079 68.0268 57.2337 68.4563 57.2337C68.8931 57.2337 69.2758 57.3079 69.6035 57.46C69.9313 57.6122 70.1891 57.8189 70.3804 58.0882C70.5675 58.3537 70.6651 58.6618 70.6728 59.0095H69.6035C69.5763 58.7479 69.4591 58.545 69.2524 58.3967C69.0457 58.2523 68.7764 58.1781 68.4482 58.1781C68.2181 58.1781 68.0191 58.213 67.8512 58.2834C67.6833 58.3537 67.5584 58.4474 67.4689 58.5685C67.379 58.6895 67.336 58.8259 67.3321 58.978C67.3321 59.1067 67.3632 59.2162 67.422 59.31C67.4804 59.4033 67.5627 59.4817 67.6641 59.5478C67.7655 59.6142 67.8785 59.6688 68.0033 59.7118C68.1282 59.7549 68.253 59.7937 68.3783 59.8209L68.9558 59.9654C69.1859 60.02 69.4122 60.0941 69.627 60.184C69.8418 60.2778 70.0369 60.3907 70.2044 60.5313C70.3762 60.672 70.5091 60.8399 70.6105 61.0389C70.712 61.2379 70.7588 61.468 70.7588 61.7335C70.7588 62.0962 70.6651 62.4124 70.4818 62.6856ZM77.8774 63.4624L77.3698 61.9479H75.0596L74.5521 63.4624H73.3657L75.528 57.3194H76.9015L79.0676 63.4624H77.8774ZM85.437 63.4624L84.2309 61.2145H83.0991V63.4624H81.9868V57.3194H84.2893C84.7615 57.3194 85.1557 57.4012 85.4796 57.5653C85.7996 57.7294 86.0417 57.9595 86.2096 58.2523C86.3737 58.5489 86.4555 58.8923 86.4555 59.2827C86.4555 59.6769 86.3737 60.0161 86.2058 60.3051C86.0379 60.594 85.792 60.8164 85.4681 60.9724C85.4289 60.992 85.3901 61.0035 85.3471 61.0193L86.6779 63.4544H85.437V63.4624ZM93.4922 57.3194H94.7489L92.5163 61.1714V63.4624H92.2159H91.404V61.1714L90.2722 59.2201L89.1718 57.3232H90.2722H90.4286L91.9308 60.0396H91.9896L92.2159 59.63L93.4922 57.3194Z" fill="#1F376B"/>
<path d="M16.2346 58.5796L15.9419 59.4502L15.4033 61.0543H15.9419H17.1127L16.2814 58.5796H16.2346Z" fill="#1F376B"/>
<path d="M7.64539 56.854H0V71.3212H7.64539V56.854Z" fill="#1F376B"/>
<path d="M108.164 56.854H100.519V71.3212H108.164V56.854Z" fill="#1F376B"/>
<path d="M52.3127 47.7453H33.0645V48.3424H52.9098V42.7384H52.3127V47.7453Z" fill="#1F376B"/>
<path d="M74.095 33.028C74.4931 33.4729 74.8523 33.9646 75.1566 34.511C75.8589 35.7676 76.2062 37.2194 76.1985 38.8586C76.2062 40.6616 75.7809 42.2578 74.9184 43.6512C74.0558 45.0443 72.8464 46.1331 71.2892 46.9215C69.732 47.7099 67.9013 48.1003 65.7977 48.1003C63.8114 48.1003 62.0514 47.7491 60.5138 47.0464C59.5848 46.6211 58.7806 46.0982 58.0898 45.4777C58.894 46.3637 59.8972 47.0894 61.107 47.6434C62.6446 48.3462 64.4046 48.6973 66.391 48.6973C68.4945 48.6973 70.3252 48.3031 71.8824 47.5186C73.4396 46.7302 74.649 45.6414 75.5116 44.2482C76.3741 42.8551 76.7994 41.2588 76.7918 39.4557C76.7994 37.8166 76.4521 36.3648 75.7498 35.1081C75.3049 34.3002 74.7509 33.6094 74.095 33.028Z" fill="#1F376B"/>
<path d="M32.6229 29.7274H38.032C38.032 29.0054 38.1647 28.3887 38.4379 27.8853C38.7072 27.3818 39.0858 26.9994 39.5814 26.7379C40.0732 26.4764 40.6429 26.3476 41.2908 26.3476C41.9386 26.3476 42.5124 26.4764 43.0081 26.734C43.4138 26.9447 43.7457 27.2296 44.007 27.5848C43.8821 27.4911 43.7496 27.4052 43.6051 27.3311C43.1095 27.0735 42.5358 26.9447 41.8879 26.9447C41.2401 26.9447 40.6703 27.0774 40.1785 27.335C39.6868 27.5965 39.3043 27.979 39.035 28.4824C38.7658 28.9898 38.6291 29.6025 38.6291 30.3245H32.576C32.5644 30.5196 32.5604 30.7187 32.5604 30.9216H39.2263C39.2263 30.1996 39.359 29.583 39.6321 29.0795C39.9014 28.5761 40.28 28.1936 40.7756 27.9321C41.2674 27.6706 41.8372 27.5419 42.485 27.5419C43.1329 27.5419 43.7065 27.6707 44.2022 27.9282C44.2141 27.936 44.2256 27.9438 44.2375 27.9517C44.4753 28.4004 44.6002 28.9234 44.6002 29.5322C44.6002 30.1372 44.4753 30.6913 44.2294 31.187C43.9797 31.6826 43.6286 32.1666 43.1679 32.631C42.7076 33.0993 42.1611 33.5988 41.521 34.1257L31.8736 42.1028V47.153H32.4707H33.0678H51.7226V42.7388V42.1419V41.5447H44.0658L45.2403 40.5652C47.2113 38.9221 48.7292 37.5094 49.7989 36.323C50.8681 35.1365 51.6096 34.0516 52.0192 33.072C52.433 32.0924 52.6401 31.105 52.6401 30.1098C52.6401 28.5019 52.2263 27.1008 51.3948 25.9066C51.0633 25.4305 50.6768 24.9973 50.2395 24.607C50.4385 24.8295 50.6299 25.0636 50.8016 25.3095C51.6292 26.5037 52.0469 27.9048 52.0469 29.5127C52.0469 30.5079 51.8397 31.4914 51.4259 32.4749C51.0126 33.4545 50.2711 34.5394 49.2057 35.7258C48.136 36.9123 46.618 38.325 44.6471 39.9681L42.7583 41.5447H41.6264V41.3926L44.05 39.371C46.021 37.7279 47.539 36.3151 48.6082 35.1287C49.6778 33.9423 50.4194 32.8573 50.8289 31.8778C51.2427 30.8982 51.4494 29.9108 51.4494 28.9156C51.4494 27.3077 51.036 25.9066 50.2046 24.7124C50.1147 24.5836 50.0171 24.4587 49.9195 24.3338C49.83 24.2207 49.7362 24.1153 49.6425 24.0099C48.8699 23.1474 47.8863 22.4527 46.6803 21.9298C45.1623 21.2702 43.3669 20.9385 41.2947 20.9385C39.2926 20.9385 37.5442 21.2936 36.0573 22C34.5665 22.7064 33.4151 23.7172 32.5995 25.0285C31.7838 26.3398 31.374 27.9048 31.374 29.7234H31.9868H32.6229V29.7274Z" fill="#1F376B"/>
<path d="M73.9866 26.9019V22.4879V21.8908V21.2937H56.6156L55.6051 35.5347L56.2333 35.6596L56.8615 35.7844L61.7635 36.7484C62.0563 36.1162 62.5204 35.6244 63.1451 35.2654C63.7733 34.9063 64.4564 34.7307 65.1979 34.7307C65.9122 34.7307 66.5442 34.8829 67.0905 35.1912C67.4809 35.4098 67.8124 35.6986 68.0817 36.0459C67.9569 35.9523 67.8282 35.8625 67.6875 35.7844C67.1412 35.4761 66.5092 35.3239 65.795 35.3239C65.0535 35.3239 64.3703 35.5034 63.7422 35.8586C63.1136 36.2176 62.6534 36.7094 62.3606 37.3416L56.8303 36.2528L56.7954 36.725L62.9576 37.9388C63.2504 37.3065 63.7149 36.8148 64.3392 36.4557C64.9674 36.0967 65.6505 35.921 66.392 35.921C67.1063 35.921 67.7383 36.0733 68.285 36.3816C68.3004 36.3894 68.3161 36.4011 68.3315 36.4128C68.3472 36.4401 68.3668 36.4635 68.3826 36.4908C68.6946 37.0528 68.8467 37.7085 68.8352 38.4656C68.8429 39.2149 68.6907 39.8706 68.3826 40.4365C68.0702 40.9985 67.6411 41.4355 67.0943 41.7439C66.548 42.0522 65.916 42.2044 65.2018 42.2044C64.4756 42.2044 63.8317 42.0405 63.2657 41.7166C63.0787 41.3497 62.9734 40.936 62.9615 40.4716H62.4386C62.5204 40.8423 62.6687 41.1741 62.8873 41.4668C62.8639 41.4473 62.8366 41.4317 62.8132 41.4121C62.4778 41.1429 62.22 40.8307 62.0482 40.4716C61.9587 40.2843 61.8922 40.0852 61.8454 39.8745C61.8023 39.6871 61.7789 39.4881 61.7712 39.2774H54.9531C54.9689 40.8853 55.4176 42.3059 56.2955 43.543C56.6433 44.031 57.0451 44.4797 57.4977 44.8854C57.5991 44.9753 57.7006 45.0653 57.8062 45.1509C58.4229 45.6542 59.1252 46.0914 59.9174 46.4545C61.455 47.1568 63.215 47.508 65.2018 47.508C67.3053 47.508 69.1356 47.1142 70.6928 46.3297C72.25 45.5413 73.4598 44.4524 74.3224 43.0589C75.1849 41.6658 75.6102 40.0696 75.6026 38.2666C75.6102 36.6274 75.2629 35.1756 74.5602 33.9189C74.3301 33.5053 74.0688 33.1267 73.7837 32.7716C73.6938 32.6584 73.5962 32.5452 73.4991 32.4398C72.9757 31.8622 72.3787 31.3666 71.6917 30.9607C70.4819 30.2465 69.1084 29.8875 67.5708 29.8875C66.2595 29.8875 65.1042 30.145 64.1129 30.6641C63.8125 30.8202 63.5393 30.9919 63.2934 31.1753L63.5666 28.1H75.1811V22.4879H74.5836V27.4951H62.9696L62.5907 31.792C62.3606 32.0456 62.1692 32.3149 62.0209 32.6077H61.8688L62.3721 26.9019H73.9866Z" fill="#1F376B"/>
<path d="M221.865 36.4317C221.865 36.4317 226.997 35.5535 226.997 29.3951C226.997 21.7145 217.205 21.7145 217.205 21.7145L201.021 21.4023V23.3342L203.241 23.3771C204.439 23.4005 205.395 24.3762 205.395 25.5743V49.0102C205.395 50.2158 204.424 51.1955 203.222 51.2075L201.024 51.2266V53.1588L217.209 53.0024C217.209 53.0024 228.468 53.1431 228.468 44.1124C228.464 38.0162 221.865 36.4317 221.865 36.4317ZM213.392 24.1186C220.195 24.1186 221.482 27.2252 221.482 29.9219C221.482 34.0861 217.786 35.4326 216.062 35.4326C214.337 35.4326 211.105 35.4326 211.105 35.4326V25.1138C211.105 25.1138 210.644 24.1186 213.392 24.1186ZM214.274 50.5047C210.758 50.5047 211.109 49.2714 211.109 49.2714V37.8366C211.109 37.8366 212.346 37.9069 213.333 37.9537C215.972 38.0747 222.36 38.1879 222.36 44.2292C222.36 50.2708 216.912 50.5047 214.274 50.5047Z" fill="#1F376B"/>
<path d="M252.337 48.5696C252.337 48.5696 251.115 49.9785 249.984 49.9785C249.227 49.9785 249.047 49.3307 249.012 48.9011V37.1932C249.012 37.1932 249.16 30.8201 241.655 30.8201C236.371 30.8201 234.576 33.5988 233.971 35.2418C233.772 35.6126 233.666 36.0341 233.674 36.4868C233.702 37.802 234.787 38.9026 236.102 38.9494C237.538 39.0002 238.717 37.8527 238.717 36.4283C238.717 36.1785 238.681 35.9404 238.611 35.7141C238.319 34.7345 238.674 33.6573 239.571 33.1734C240.012 32.9353 240.59 32.7753 241.343 32.7753C244.43 32.7753 244.274 35.433 244.274 35.433V37.1932V38.9533C241.292 39.7104 232.78 42.3799 232.78 48.2184C232.78 52.8312 236.847 53.4947 238.213 53.4947C241.495 53.4947 244.274 50.5052 244.274 50.5052C244.274 50.5052 244.898 53.4947 247.751 53.4947C250.604 53.4947 252.333 50.9152 252.333 50.9152V48.5696H252.337ZM244.274 47.9061C244.274 47.9061 242.904 49.9393 240.363 49.9393C237.823 49.9393 237.511 47.6367 237.511 46.7354C237.511 42.5126 244.274 40.6354 244.274 40.6354V47.9061Z" fill="#1F376B"/>
<path d="M297.996 51.4184C296.384 51.4184 294.862 50.6769 293.867 49.4049L286.264 39.683C286.728 39.2225 289 37.0018 291.97 34.5237C293.192 33.5051 294.733 32.943 296.325 32.943H297.336V31.2883H286.97V32.943H288.875C289.32 32.943 289.53 33.4894 289.199 33.786L282.724 39.6557V21.3988C282.724 20.6612 281.963 20.1695 281.292 20.4739C280.02 21.0476 277.842 21.9179 274.54 22.8858V24.5679C274.54 24.5679 276.054 24.2556 276.757 24.2556H277.108C277.592 24.2556 277.986 24.6498 277.986 25.1338V49.7637C277.986 50.6769 277.245 51.4184 276.331 51.4184H275.009H273.884C272.862 51.4184 272.031 50.587 272.031 49.5647V37.4273C272.031 37.4273 272.031 30.82 266.247 30.82C263.636 30.82 261.072 32.8494 260.057 33.7548V31.8971C260.057 31.0151 259.144 30.4297 258.344 30.8005C256.92 31.46 255.819 32.2055 252.342 33.0835V34.7656C252.342 34.7656 253.154 34.4534 253.856 34.4534H254.168C254.804 34.4534 255.319 34.9686 255.319 35.6047V49.5647C255.319 50.587 254.488 51.4184 253.466 51.4184H252.342V53.0732H263.039V51.4184H261.915C260.893 51.4184 260.061 50.587 260.061 49.5647V36.6077C260.92 35.6359 262.442 34.3012 264.319 34.3012C267.273 34.3012 267.297 37.4273 267.297 37.4273V49.5647C267.297 50.587 266.465 51.4184 265.443 51.4184H264.319V53.0732H275.016H286.182V51.4184H284.387C283.473 51.4184 282.732 50.6769 282.732 49.7637V42.4891L289.66 51.4184H287.493V53.0732H298.518V51.4184H297.996Z" fill="#1F376B"/>
<path d="M91.2447 6.69763H74.9902V8.64116H90.2731V53.1631H92.2168V7.6694C92.2168 7.13082 91.7834 6.69763 91.2447 6.69763Z" fill="#807673"/>
<path d="M17.8849 8.64116H33.168V6.69763H16.9132C16.3746 6.69763 15.9414 7.13082 15.9414 7.6694V53.1631H17.8849V8.64116Z" fill="#807673"/>
<path d="M87.0376 72.4109H21.1248L18.6972 67.626H16.5508L19.9891 74.1513H88.1695L91.6116 67.626H89.465L87.0376 72.4109Z" fill="#807673"/>
<path d="M59.1974 14.7093H59.3027L63.6934 0H59.3926L57.1016 7.68834L59.1974 14.7093Z" fill="#807673"/>
<path d="M53.2646 14.7093L54.0802 11.9735L51.9337 4.77307L51.0635 7.68841L53.1555 14.7093H53.2646Z" fill="#807673"/>
<path d="M57.6535 0H54.8047L56.2289 4.773L57.6535 0Z" fill="#807673"/>
<path d="M160.035 23.5876H160.936V21.3982H150.419V23.5876H151.991C153.256 23.5876 154.138 24.8443 153.709 26.0346L147.812 42.2894L141.181 25.0784C140.904 24.3604 141.435 23.5876 142.203 23.5876H144.713V21.3982H130.987V23.5876H132.681C133.555 23.5876 134.34 24.1106 134.675 24.9145C135.264 26.3351 136.127 28.4153 137.142 30.913L132.868 42.0357L126.386 25.1916C126.089 24.4189 126.659 23.5876 127.487 23.5876H129.387V21.3982H116.84V23.5876H117.433C118.916 23.5876 120.243 24.5203 120.743 25.9175L130.714 53.7674H132.357L138.96 35.4167C141.251 41.1342 143.893 47.9171 145.962 53.7674H147.41C147.41 53.7674 152.331 38.5506 157.303 25.4687C157.736 24.3369 158.825 23.5876 160.035 23.5876Z" fill="#807673"/>
<path d="M168.947 49.2131C164.537 49.2131 162.597 45.3845 162.305 40.3814H176.433C176.433 40.3814 176.807 30.6246 167.718 30.6246C160.939 30.6246 157.691 36.666 157.691 42.7035C157.691 48.3313 160.135 53.7678 167.062 53.7678C174.93 53.7678 177.627 45.0491 177.627 45.0491L175.632 44.054C175.632 44.054 173.755 49.2131 168.947 49.2131ZM166.777 33.7351C169.384 33.7351 170.149 36.1353 170.375 37.6066H162.371C162.98 34.02 165.938 33.7351 166.777 33.7351Z" fill="#807673"/>
<path d="M191.229 30.6244C188.377 30.6244 186.394 32.0216 185.262 33.1339V24.4621V23.3303V21.0784C185.262 20.493 184.693 20.0754 184.134 20.255L177.098 22.4951V24.4621H179.217C179.756 24.4621 180.193 24.8992 180.193 25.4378V50.5009C180.193 50.5009 181.375 53.7635 188.178 53.7635C196.502 53.7635 199.847 46.922 199.847 41.4701C199.851 38.4845 198.325 30.6244 191.229 30.6244ZM189.177 50.9147C186.999 50.9147 185.859 50.1889 185.262 49.4197V37.3878C185.883 36.1936 187.057 34.9057 189.235 34.9057C193.282 34.9057 194.57 40.1236 194.57 43.2302C194.57 46.3369 193.809 50.9147 189.177 50.9147Z" fill="#807673"/>
<path d="M192.384 57.9083L190.104 64.5623H190.869L191.463 62.8062H193.953L194.538 64.5623H195.31L193.031 57.9083H192.384ZM191.658 62.1622L192.7 58.8685L193.742 62.1622H191.658Z" fill="#807673"/>
<path d="M201.48 61.4481C201.406 61.3816 201.308 61.3155 201.199 61.2452C201.086 61.1749 200.953 61.1046 200.797 61.0266C200.641 60.9525 200.458 60.8664 200.247 60.773C200.009 60.6674 199.825 60.5817 199.693 60.5191C199.56 60.4568 199.455 60.4061 199.381 60.3708C199.303 60.3358 199.248 60.3047 199.209 60.2813C199.17 60.2578 199.123 60.2263 199.068 60.1875C198.803 60.0158 198.67 59.7856 198.67 59.4929C198.67 59.1963 198.783 58.9542 199.014 58.7629C199.24 58.5758 199.533 58.482 199.88 58.482C200.259 58.482 200.559 58.5835 200.782 58.7901C201.008 58.9972 201.137 59.2858 201.168 59.6646H201.89C201.878 59.4187 201.847 59.2159 201.796 59.0556C201.746 58.8958 201.668 58.7356 201.554 58.5834C201.383 58.3376 201.156 58.15 200.875 58.0213C200.594 57.8926 200.274 57.8262 199.919 57.8262C199.626 57.8262 199.361 57.8692 199.115 57.9553C198.869 58.041 198.662 58.162 198.487 58.3103C198.311 58.4624 198.174 58.6461 198.077 58.8566C197.979 59.0676 197.929 59.3015 197.929 59.5513C197.929 60.055 198.132 60.4645 198.545 60.7807C198.659 60.8745 198.827 60.9797 199.045 61.0969C199.267 61.2137 199.548 61.3505 199.892 61.5026C200.056 61.5768 200.192 61.6352 200.301 61.6863C200.411 61.737 200.5 61.7796 200.575 61.8188C200.649 61.8576 200.711 61.8968 200.762 61.9322C200.817 61.9671 200.867 62.0102 200.922 62.0571C201.187 62.2833 201.32 62.5527 201.32 62.8685C201.32 63.2043 201.191 63.4813 200.938 63.6922C200.684 63.9027 200.352 64.008 199.95 64.008C199.486 64.008 199.127 63.8831 198.869 63.6296C198.612 63.3798 198.467 63.0129 198.432 62.5369H197.71C197.73 62.8531 197.773 63.1144 197.835 63.3215C197.897 63.5282 197.999 63.7195 198.136 63.8951C198.327 64.1448 198.577 64.3361 198.881 64.4648C199.185 64.5935 199.533 64.66 199.923 64.66C200.247 64.66 200.54 64.617 200.805 64.5275C201.07 64.4376 201.297 64.3127 201.484 64.1448C201.672 63.9807 201.82 63.7817 201.925 63.5516C202.03 63.3215 202.085 63.0636 202.085 62.779C202.085 62.3379 201.952 61.9552 201.687 61.6394C201.625 61.5806 201.554 61.5146 201.48 61.4481Z" fill="#807673"/>
<path d="M202.348 58.5911H204.065V64.5624H204.81V58.5911H206.536V57.9471H202.348V58.5911Z" fill="#807673"/>
<path d="M207.931 61.4595H210.608V60.8118H207.931V58.5911H210.815V57.9471H207.186V64.5624H210.885V63.9185H207.931V61.4595Z" fill="#807673"/>
<path d="M212.514 61.4595H215.191V60.8118H212.514V58.5911H215.398V57.9471H211.769V64.5624H215.468V63.9185H212.514V61.4595Z" fill="#807673"/>
<path d="M217.115 57.9471H216.35V64.5624H219.94V63.9185H217.115V57.9471Z" fill="#807673"/>
<path d="M226.438 59.93C226.438 59.4928 226.332 59.1144 226.125 58.7905C225.918 58.4666 225.63 58.2442 225.267 58.127C225.169 58.0959 225.06 58.0648 224.951 58.0413C224.837 58.0179 224.712 57.9983 224.568 57.9868C224.428 57.9748 224.264 57.9633 224.08 57.9552C223.897 57.9476 223.686 57.9437 223.44 57.9437H222.352V64.5585H223.097V61.8618H223.585C223.835 61.8618 224.053 61.858 224.233 61.8503C224.416 61.8426 224.576 61.8307 224.712 61.8149C224.853 61.7996 224.974 61.7762 225.083 61.745C225.193 61.7135 225.298 61.6786 225.407 61.6394C225.731 61.5068 225.985 61.292 226.164 60.9916C226.344 60.695 226.438 60.34 226.438 59.93ZM225.431 60.7184C225.282 60.9251 225.068 61.0657 224.79 61.1284C224.712 61.1476 224.634 61.1633 224.564 61.171C224.49 61.1829 224.408 61.1906 224.314 61.1944C224.221 61.2025 224.115 61.2064 223.998 61.2102C223.881 61.2141 223.733 61.2141 223.561 61.2141H223.097V58.5876H223.483C223.71 58.5876 223.897 58.5877 224.053 58.5915C224.209 58.5953 224.342 58.603 224.451 58.6149C224.56 58.6264 224.654 58.646 224.74 58.6656C224.822 58.6852 224.904 58.7125 224.982 58.7436C225.193 58.8297 225.361 58.9737 225.477 59.1809C225.595 59.3875 225.657 59.6334 225.657 59.9262C225.653 60.2501 225.579 60.5117 225.431 60.7184Z" fill="#807673"/>
<path d="M228.164 57.9083L225.885 64.5623H226.65L227.243 62.8062H229.733L230.318 64.5623H231.091L228.812 57.9083H228.164ZM227.438 62.1622L228.48 58.8685L229.522 62.1622H227.438Z" fill="#807673"/>
<path d="M235.631 59.8209C235.631 59.4225 235.537 59.0794 235.35 58.7905C235.163 58.4977 234.898 58.2872 234.562 58.1542C234.449 58.1155 234.339 58.0801 234.234 58.049C234.129 58.0179 234.008 57.9983 233.867 57.9825C233.727 57.971 233.567 57.9591 233.387 57.9514C233.204 57.9437 232.985 57.9395 232.728 57.9395H231.557V64.5547H232.302V61.7293H233.453L235.12 64.5547H236.014L234.277 61.6082C235.179 61.2882 235.631 60.6873 235.631 59.8209ZM233.875 61.0265C233.801 61.0423 233.715 61.0581 233.618 61.0657C233.52 61.0773 233.399 61.0815 233.266 61.0853C233.13 61.0892 232.962 61.0892 232.766 61.0892H232.302V58.5915H232.747C232.985 58.5915 233.18 58.5915 233.332 58.5953C233.485 58.5991 233.614 58.6068 233.723 58.6149C233.832 58.6264 233.922 58.6422 233.996 58.6656C234.07 58.6891 234.144 58.7163 234.222 58.7513C234.421 58.8374 234.573 58.9737 234.683 59.1574C234.792 59.3407 234.847 59.5593 234.847 59.8128C234.847 60.0979 234.781 60.34 234.652 60.539C234.523 60.738 234.339 60.8782 234.101 60.9643C234.027 60.9878 233.949 61.0112 233.875 61.0265Z" fill="#807673"/>
<path d="M235.776 58.5911H237.493V64.5624H238.239V58.5911H239.964V57.9471H235.776V58.5911Z" fill="#807673"/>
<path d="M244.594 63.4501L241.421 57.9471H240.617V64.5624H241.324V59.0671L244.477 64.5624H245.289V57.9471H244.594V63.4501Z" fill="#807673"/>
<path d="M247.143 61.4595H249.824V60.8118H247.143V58.5911H250.031V57.9471H246.401V64.5624H250.101V63.9185H247.143V61.4595Z" fill="#807673"/>
<path d="M254.858 59.8209C254.858 59.4225 254.765 59.0794 254.577 58.7905C254.39 58.4977 254.125 58.2872 253.789 58.1542C253.676 58.1155 253.567 58.0801 253.461 58.049C253.356 58.0179 253.235 57.9983 253.094 57.9825C252.954 57.971 252.794 57.9591 252.615 57.9514C252.431 57.9437 252.212 57.9395 251.955 57.9395H250.784V64.5547H251.53V61.7293H252.681L254.347 64.5547H255.241L253.504 61.6082C254.406 61.2882 254.858 60.6873 254.858 59.8209ZM253.106 61.0265C253.032 61.0423 252.946 61.0581 252.848 61.0657C252.751 61.0773 252.63 61.0815 252.497 61.0853C252.361 61.0892 252.193 61.0892 251.998 61.0892H251.533V58.5915H251.978C252.216 58.5915 252.411 58.5915 252.564 58.5953C252.716 58.5991 252.845 58.6068 252.954 58.6149C253.063 58.6264 253.153 58.6422 253.227 58.6656C253.301 58.6891 253.375 58.7163 253.454 58.7513C253.653 58.8374 253.805 58.9737 253.914 59.1574C254.023 59.3407 254.078 59.5593 254.078 59.8128C254.078 60.0979 254.011 60.34 253.883 60.539C253.754 60.738 253.57 60.8782 253.333 60.9643C253.255 60.9878 253.176 61.0112 253.106 61.0265Z" fill="#807673"/>
<path d="M259.177 61.4481C259.099 61.3816 259.006 61.3155 258.896 61.2452C258.783 61.1749 258.65 61.1046 258.494 61.0266C258.338 60.9525 258.155 60.8664 257.944 60.773C257.706 60.6674 257.523 60.5817 257.39 60.5191C257.257 60.4568 257.152 60.4061 257.078 60.3708C257 60.3358 256.945 60.3047 256.906 60.2813C256.867 60.2578 256.82 60.2263 256.765 60.1875C256.5 60.0158 256.367 59.7856 256.367 59.4929C256.367 59.1963 256.481 58.9542 256.711 58.7629C256.937 58.5758 257.226 58.482 257.577 58.482C257.956 58.482 258.256 58.5835 258.479 58.7901C258.705 58.9972 258.834 59.2858 258.865 59.6646H259.587C259.575 59.4187 259.544 59.2159 259.493 59.0556C259.442 58.8958 259.365 58.7356 259.252 58.5834C259.08 58.3376 258.854 58.15 258.572 58.0213C258.291 57.8926 257.971 57.8262 257.616 57.8262C257.324 57.8262 257.058 57.8692 256.812 57.9553C256.566 58.041 256.356 58.162 256.184 58.3103C256.008 58.4624 255.872 58.6461 255.774 58.8566C255.677 59.0676 255.626 59.3015 255.626 59.5513C255.626 60.055 255.833 60.4645 256.242 60.7807C256.355 60.8745 256.523 60.9797 256.742 61.0969C256.964 61.2137 257.245 61.3505 257.589 61.5026C257.753 61.5768 257.893 61.6352 257.999 61.6863C258.108 61.737 258.198 61.7796 258.272 61.8188C258.346 61.8576 258.409 61.8968 258.459 61.9322C258.514 61.9671 258.565 62.0102 258.619 62.0571C258.885 62.2833 259.017 62.5527 259.017 62.8685C259.017 63.2043 258.888 63.4813 258.635 63.6922C258.381 63.9027 258.049 64.008 257.648 64.008C257.183 64.008 256.824 63.8831 256.566 63.6296C256.309 63.3798 256.164 63.0129 256.129 62.5369H255.407C255.427 62.8531 255.47 63.1144 255.532 63.3215C255.595 63.5282 255.696 63.7195 255.833 63.8951C256.024 64.1448 256.274 64.3361 256.578 64.4648C256.883 64.5935 257.23 64.66 257.62 64.66C257.944 64.66 258.237 64.617 258.502 64.5275C258.767 64.4376 258.994 64.3127 259.181 64.1448C259.368 63.9807 259.517 63.7817 259.622 63.5516C259.728 63.3215 259.782 63.0636 259.782 62.779C259.782 62.3379 259.65 61.9552 259.384 61.6394C259.322 61.5806 259.255 61.5146 259.177 61.4481Z" fill="#807673"/>
<path d="M266.148 63.5946C265.875 63.8831 265.504 64.0276 265.044 64.0276C264.747 64.0276 264.478 63.9616 264.236 63.8324C263.994 63.7037 263.791 63.5205 263.627 63.2823C263.463 63.044 263.334 62.7555 263.244 62.4159C263.155 62.0762 263.112 61.6901 263.112 61.2606C263.112 60.8391 263.155 60.453 263.244 60.1095C263.334 59.766 263.463 59.4733 263.631 59.2312C263.798 58.9892 264.001 58.8059 264.236 58.6772C264.47 58.5485 264.735 58.482 265.036 58.482C265.855 58.482 266.359 58.915 266.542 59.7814H267.237C267.151 59.1609 266.92 58.681 266.542 58.3376C266.164 57.9979 265.668 57.8262 265.044 57.8262C264.626 57.8262 264.251 57.9084 263.92 58.0682C263.584 58.2323 263.299 58.4624 263.061 58.7629C262.823 59.0633 262.639 59.4264 262.511 59.8555C262.382 60.2813 262.315 60.7573 262.315 61.2802C262.315 61.8031 262.382 62.2753 262.511 62.6929C262.639 63.1144 262.823 63.4698 263.061 63.7625C263.299 64.0549 263.588 64.2816 263.927 64.4414C264.267 64.6016 264.649 64.6796 265.071 64.6796C265.738 64.6796 266.269 64.4764 266.663 64.0707C267.057 63.6649 267.284 63.0794 267.342 62.3221H266.64C266.589 62.8842 266.425 63.3095 266.148 63.5946Z" fill="#807673"/>
<path d="M272.315 58.7748C272.077 58.4744 271.792 58.24 271.461 58.0759C271.129 57.9123 270.766 57.8262 270.368 57.8262C269.97 57.8262 269.607 57.9084 269.279 58.0759C268.947 58.24 268.663 58.4744 268.424 58.771C268.186 59.0676 268.003 59.4226 267.87 59.8364C267.737 60.2497 267.671 60.7027 267.671 61.1984C267.671 61.7212 267.737 62.1934 267.866 62.6226C267.995 63.0483 268.178 63.4152 268.412 63.7195C268.647 64.0238 268.928 64.2582 269.26 64.4218C269.591 64.5859 269.962 64.6715 270.372 64.6715C270.77 64.6715 271.133 64.5897 271.465 64.4218C271.796 64.2582 272.081 64.0238 272.319 63.7233C272.557 63.4229 272.741 63.0636 272.87 62.6422C272.998 62.2207 273.065 61.7562 273.065 61.2491C273.065 60.7415 272.998 60.2774 272.87 59.8555C272.737 59.4383 272.553 59.0752 272.315 58.7748ZM272.132 62.3848C272.042 62.7244 271.913 63.0168 271.749 63.2588C271.586 63.5009 271.383 63.6884 271.148 63.8209C270.914 63.9535 270.653 64.0199 270.372 64.0199C270.079 64.0199 269.817 63.9535 269.584 63.8209C269.349 63.6884 269.15 63.5009 268.983 63.2588C268.819 63.0168 268.69 62.7244 268.6 62.3771C268.51 62.0294 268.467 61.6433 268.467 61.2099C268.467 60.8003 268.514 60.4296 268.608 60.0938C268.701 59.7584 268.83 59.4733 268.994 59.235C269.158 58.9973 269.361 58.8136 269.595 58.681C269.829 58.5485 270.091 58.482 270.372 58.482C270.657 58.482 270.914 58.5485 271.148 58.681C271.383 58.8136 271.582 59.0011 271.749 59.2431C271.913 59.4848 272.042 59.7737 272.132 60.1172C272.222 60.4568 272.264 60.8353 272.264 61.2529C272.264 61.6705 272.222 62.0451 272.132 62.3848Z" fill="#807673"/>
<path d="M276.807 63.7505L274.953 57.9471H273.833V64.5624H274.536V58.6925L276.44 64.5624H277.186L279.086 58.6925V64.5624H279.793V57.9471H278.672L276.807 63.7505Z" fill="#807673"/>
<path d="M284.988 59.93C284.988 59.4928 284.883 59.1144 284.675 58.7905C284.469 58.4666 284.18 58.2442 283.817 58.127C283.719 58.0959 283.61 58.0648 283.501 58.0413C283.388 58.0179 283.263 57.9983 283.118 57.9868C282.978 57.9748 282.814 57.9633 282.63 57.9552C282.447 57.9476 282.236 57.9437 281.991 57.9437H280.901V64.5585H281.647V61.8618H282.135C282.384 61.8618 282.603 61.858 282.783 61.8503C282.966 61.8426 283.126 61.8307 283.263 61.8149C283.403 61.7996 283.524 61.7762 283.633 61.745C283.743 61.7135 283.848 61.6786 283.957 61.6394C284.281 61.5068 284.535 61.292 284.715 60.9916C284.898 60.695 284.988 60.34 284.988 59.93ZM283.981 60.7184C283.832 60.9251 283.618 61.0657 283.341 61.1284C283.263 61.1476 283.185 61.1633 283.114 61.171C283.04 61.1829 282.958 61.1906 282.865 61.1944C282.771 61.2025 282.666 61.2064 282.548 61.2102C282.431 61.2141 282.283 61.2141 282.111 61.2141H281.647V58.5876H282.033C282.26 58.5876 282.447 58.5877 282.603 58.5915C282.759 58.5953 282.892 58.603 283.001 58.6149C283.111 58.6264 283.204 58.646 283.29 58.6656C283.372 58.6852 283.454 58.7125 283.532 58.7436C283.743 58.8297 283.91 58.9737 284.028 59.1809C284.145 59.3875 284.207 59.6334 284.207 59.9262C284.207 60.2501 284.133 60.5117 283.981 60.7184Z" fill="#807673"/>
<path d="M286.713 57.9083L284.434 64.5623H285.198L285.791 62.8062H288.281L288.867 64.5623H289.64L287.36 57.9083H286.713ZM285.99 62.1622L287.033 58.8685L288.075 62.1622H285.99Z" fill="#807673"/>
<path d="M294.085 63.4501L290.908 57.9471H290.108V64.5624H290.811V59.0671L293.964 64.5624H294.776V57.9471H294.085V63.4501Z" fill="#807673"/>
<path d="M300 57.9471H299.149L297.592 61.0419L296.004 57.9471H295.153L297.214 61.7872L297.206 64.5624H297.948L297.94 61.7872L300 57.9471Z" fill="#807673"/>
</svg>
