<svg width="53" height="47" viewBox="0 0 53 47" fill="none" xmlns="http://www.w3.org/2000/svg">
<path d="M1 36.731V5.04803C1 4.77604 1.026 4.50803 1.08 4.24104C1.132 3.97604 1.211 3.71704 1.314 3.46604C1.418 3.21604 1.546 2.97804 1.696 2.75204C1.847 2.52604 2.019 2.31704 2.21 2.12604C2.402 1.93404 2.611 1.76304 2.836 1.61204C3.062 1.46104 3.3 1.33404 3.551 1.23004C3.802 1.12604 4.06 1.04804 4.326 0.995037C4.592 0.942036 4.861 0.916039 5.132 0.916039H47.445C47.717 0.916039 47.985 0.942036 48.251 0.995037C48.518 1.04804 48.776 1.12604 49.027 1.23004C49.277 1.33404 49.516 1.46104 49.741 1.61204C49.967 1.76304 50.175 1.93404 50.367 2.12604C50.559 2.31704 50.73 2.52604 50.881 2.75204C51.032 2.97804 51.159 3.21604 51.263 3.46604C51.367 3.71704 51.445 3.97604 51.498 4.24104C51.551 4.50803 51.578 4.77604 51.578 5.04803V36.731C51.578 37.002 51.551 37.271 51.498 37.537C51.445 37.803 51.367 38.062 51.263 38.313C51.159 38.563 51.032 38.801 50.881 39.027C50.73 39.252 50.559 39.461 50.367 39.653C50.175 39.845 49.967 40.016 49.741 40.167C49.516 40.317 49.277 40.445 49.027 40.549C48.776 40.652 48.518 40.731 48.251 40.784C47.985 40.837 47.717 40.863 47.445 40.863H5.132C4.861 40.863 4.592 40.837 4.326 40.784C4.06 40.731 3.802 40.652 3.551 40.549C3.3 40.445 3.062 40.317 2.836 40.167C2.611 40.016 2.402 39.845 2.21 39.653C2.019 39.461 1.847 39.252 1.696 39.027C1.546 38.801 1.418 38.563 1.314 38.313C1.211 38.062 1.132 37.803 1.08 37.537C1.026 37.271 1 37.002 1 36.731Z" fill="white" stroke="#A5D9C5" stroke-width="1.5" stroke-linecap="round" stroke-linejoin="round"/>
<path d="M43.6641 40.8632V45.3242V40.8632Z" fill="white"/>
<path d="M43.6641 40.8632V45.3242" stroke="#A5D9C5" stroke-width="1.5" stroke-linecap="round" stroke-linejoin="round"/>
<path d="M8.91406 40.8632V45.3242V40.8632Z" fill="white"/>
<path d="M8.91406 40.8632V45.3242" stroke="#A5D9C5" stroke-width="1.5" stroke-linecap="round" stroke-linejoin="round"/>
<path d="M8.91406 29.5029V33.9639V29.5029Z" fill="white"/>
<path d="M8.91406 29.5029V33.9639" stroke="#A5D9C5" stroke-width="1.5" stroke-linecap="round" stroke-linejoin="round"/>
<path d="M8.91406 8.24505V12.7061V8.24505Z" fill="white"/>
<path d="M8.91406 8.24505V12.7061" stroke="#A5D9C5" stroke-width="1.5" stroke-linecap="round" stroke-linejoin="round"/>
<path d="M8.91406 18.6591V23.1191V18.6591Z" fill="white"/>
<path d="M8.91406 18.6591V23.1191" stroke="#A5D9C5" stroke-width="1.5" stroke-linecap="round" stroke-linejoin="round"/>
<path d="M30.1205 14.6509C30.5205 14.6509 30.9175 14.6899 31.3095 14.7679C31.7025 14.8459 32.0835 14.9619 32.4535 15.1149C32.8245 15.2689 33.1755 15.4559 33.5085 15.6789C33.8415 15.9009 34.1495 16.1539 34.4325 16.4369C34.7155 16.7199 34.9685 17.0279 35.1905 17.3609C35.4135 17.6939 35.6005 18.0459 35.7545 18.4159C35.9075 18.7849 36.0235 19.1669 36.1015 19.5599C36.1795 19.9519 36.2185 20.3489 36.2185 20.7489C36.2185 21.1499 36.1795 21.5459 36.1015 21.9389C36.0235 22.3319 35.9075 22.7129 35.7545 23.0829C35.6005 23.4529 35.4135 23.8039 35.1905 24.1369C34.9685 24.4699 34.7155 24.7779 34.4325 25.0609C34.1495 25.3439 33.8415 25.5969 33.5085 25.8189C33.1755 26.0419 32.8245 26.2299 32.4535 26.3829C32.0835 26.5359 31.7025 26.6519 31.3095 26.7299C30.9175 26.8079 30.5205 26.8469 30.1205 26.8469C29.7205 26.8469 29.3235 26.8079 28.9305 26.7299C28.5375 26.6519 28.1565 26.5359 27.7865 26.3829C27.4165 26.2299 27.0655 26.0419 26.7325 25.8189C26.3995 25.5969 26.0915 25.3439 25.8085 25.0609C25.5255 24.7779 25.2725 24.4699 25.0495 24.1369C24.8275 23.8039 24.6395 23.4529 24.4865 23.0829C24.3325 22.7129 24.2175 22.3319 24.1395 21.9389C24.0605 21.5459 24.0215 21.1499 24.0215 20.7489C24.0215 20.3489 24.0605 19.9519 24.1395 19.5599C24.2175 19.1669 24.3325 18.7849 24.4865 18.4159C24.6395 18.0459 24.8275 17.6939 25.0495 17.3609C25.2725 17.0279 25.5255 16.7199 25.8085 16.4369C26.0915 16.1539 26.3995 15.9009 26.7325 15.6789C27.0655 15.4559 27.4165 15.2689 27.7865 15.1149C28.1565 14.9619 28.5375 14.8459 28.9305 14.7679C29.3235 14.6899 29.7205 14.6509 30.1205 14.6509Z" fill="white" stroke="#A5D9C5" stroke-width="1.5" stroke-linecap="round" stroke-linejoin="round"/>
<path d="M25.8692 16.4883L21.6562 12.2753L25.8692 16.4883Z" fill="white"/>
<path d="M25.8692 16.4883L21.6562 12.2753" stroke="#A5D9C5" stroke-width="1.5" stroke-linecap="round" stroke-linejoin="round"/>
<path d="M25.7657 25.1874L21.5527 29.4004L25.7657 25.1874Z" fill="white"/>
<path d="M25.7657 25.1874L21.5527 29.4004" stroke="#A5D9C5" stroke-width="1.5" stroke-linecap="round" stroke-linejoin="round"/>
<path d="M34.4648 25.2904L38.6778 29.5024L34.4648 25.2904Z" fill="white"/>
<path d="M34.4648 25.2904L38.6778 29.5024" stroke="#A5D9C5" stroke-width="1.5" stroke-linecap="round" stroke-linejoin="round"/>
<path d="M34.5664 16.5913L38.7794 12.3793L34.5664 16.5913Z" fill="white"/>
<path d="M34.5664 16.5913L38.7794 12.3793" stroke="#A5D9C5" stroke-width="1.5" stroke-linecap="round" stroke-linejoin="round"/>
</svg>
