<svg width="149" height="29" viewBox="0 0 149 29" fill="none" xmlns="http://www.w3.org/2000/svg">
<path d="M19.1505 19.4274H9.57617V9.85305H19.1505V19.4274Z" fill="white"/>
<path d="M9.57272 9.85465H0V19.4274H9.57272V9.85465Z" fill="#ED874E"/>
<path d="M19.1469 0.281899H9.57422V9.85461H19.1469V0.281899Z" fill="#F8CE7F"/>
<path d="M19.1465 19.4274H28.7192V9.85465H19.1465V19.4274Z" fill="#3FBFBB"/>
<path d="M9.57227 29H19.145V19.4273H9.57227V29Z" fill="#508EAA"/>
<path d="M56.6557 24.2661H54.4906V8.7248L47.5009 19.0043H47.3909L40.4012 8.75193V24.2661H38.292V5.0792H40.4841L47.4738 15.5502L54.4635 5.0792H56.6557V24.2661Z" fill="#424143"/>
<path d="M98.5105 19.1133C98.5105 22.4031 95.7695 24.5394 91.9612 24.5394C88.9186 24.5394 86.4233 23.5247 84.1211 21.4698L85.4645 19.8791C87.4652 21.6899 89.3829 22.5946 92.0441 22.5946C94.6192 22.5946 96.3183 21.2225 96.3183 19.3319V19.2776C96.3183 17.4955 95.3579 16.4824 91.3309 15.632C86.9163 14.6715 84.8885 13.2484 84.8885 10.0958V10.0415C84.8885 7.02614 87.5481 4.80527 91.1937 4.80527C93.989 4.80527 95.9897 5.5998 97.9361 7.16335L96.6741 8.83379C94.8936 7.38192 93.1115 6.75172 91.1379 6.75172C88.6442 6.75172 87.0535 8.12062 87.0535 9.84849V9.90434C87.0535 11.712 88.0411 12.7267 92.2627 13.6297C96.5369 14.5631 98.5105 16.125 98.5105 19.059V19.1133Z" fill="#424143"/>
<path d="M126.936 24.2662H124.771V5.07932H126.936V24.2662Z" fill="#424143"/>
<path d="M71.0458 4.74975C65.208 4.74975 61.2354 9.38294 61.2354 14.6719V14.7277C61.2354 20.0166 65.1538 24.594 70.9915 24.594C76.8309 24.594 80.8052 19.9608 80.8052 14.6719V14.6176C80.8052 9.3271 76.8852 4.74975 71.0458 4.74975ZM78.5572 14.7277C78.5572 19.0849 75.4317 22.5949 71.0458 22.5949C66.6615 22.5949 63.4817 19.0306 63.4817 14.6719V14.6176C63.4817 10.2604 66.6072 6.75204 70.9915 6.75204C75.3774 6.75204 78.5572 10.3131 78.5572 14.6719V14.7277Z" fill="#424143"/>
<path d="M110.024 4.94186L101.281 24.266H103.501L105.776 19.1956H116.219L118.466 24.266H120.795L112.052 4.94186H110.024ZM106.626 17.2492L111.01 7.46268L115.369 17.2492H106.626Z" fill="#424143"/>
<path d="M141.38 22.5943C137.158 22.5943 133.951 19.113 133.951 14.6728V14.617C133.951 10.2056 137.131 6.75142 141.38 6.75142C143.984 6.75142 145.791 7.8475 147.409 9.38233L148.891 7.79166C146.97 5.98401 144.888 4.74913 141.407 4.74913C135.761 4.74913 131.705 9.24512 131.705 14.6728V14.7271C131.705 20.2362 135.789 24.595 141.326 24.595C144.805 24.595 146.997 23.2516 149 21.2238V21.2222L147.575 19.8246C145.739 21.5796 144.011 22.5943 141.38 22.5943Z" fill="#424143"/>
</svg>
