<svg width="149" height="33" viewBox="0 0 149 33" fill="none" xmlns="http://www.w3.org/2000/svg">
<path d="M9.28579 6.94104C7.4492 6.94114 5.65388 7.48583 4.12685 8.50623C2.59981 9.52664 1.40964 10.9769 0.706834 12.6737C0.00402424 14.3705 -0.179864 16.2376 0.178425 18.0389C0.536714 19.8402 1.42109 21.4948 2.71972 22.7935C4.01835 24.0922 5.67291 24.9767 7.47419 25.3351C9.27548 25.6935 11.1426 25.5097 12.8394 24.807C14.5362 24.1042 15.9866 22.9142 17.0071 21.3872C18.0276 19.8602 18.5724 18.0649 18.5726 16.2283C18.5698 13.7661 17.5905 11.4055 15.8495 9.66444C14.1085 7.92335 11.748 6.94393 9.28579 6.94104ZM15.6588 16.2283C15.6585 17.4887 15.2845 18.7207 14.5841 19.7686C13.8836 20.8164 12.8882 21.633 11.7236 22.1152C10.5591 22.5973 9.27771 22.7233 8.04155 22.4772C6.8054 22.2312 5.66997 21.6241 4.77883 20.7327C3.88769 19.8414 3.28086 18.7058 3.03508 17.4696C2.78929 16.2334 2.91559 14.9521 3.398 13.7876C3.8804 12.6232 4.69725 11.6279 5.74526 10.9277C6.79327 10.2275 8.02538 9.85377 9.28579 9.85377C10.9756 9.85587 12.5957 10.5282 13.7904 11.7232C14.9852 12.9183 15.6571 14.5385 15.6588 16.2283Z" fill="#505050"/>
<path d="M141.285 7.20068V20.7337L131.38 7.26224L131.335 7.20068H128.234V25.2539H131.15V11.721L141.101 25.2539H144.2V7.20068H141.285Z" fill="#505050"/>
<path d="M120.022 7.20068V17.5315C120.022 18.8757 119.488 20.1649 118.537 21.1154C117.587 22.0659 116.298 22.5999 114.954 22.5999C113.609 22.5999 112.32 22.0659 111.37 21.1154C110.419 20.1649 109.885 18.8757 109.885 17.5315V7.20068H106.969V17.5315C106.961 18.5851 107.161 19.6298 107.558 20.6056C107.956 21.5814 108.543 22.4688 109.285 23.2167C110.027 23.9646 110.909 24.5583 111.882 24.9634C112.855 25.3685 113.898 25.577 114.951 25.577C116.005 25.577 117.048 25.3685 118.021 24.9634C118.993 24.5583 119.876 23.9646 120.618 23.2167C121.36 22.4688 121.947 21.5814 122.344 20.6056C122.742 19.6298 122.942 18.5851 122.934 17.5315V7.20068H120.022Z" fill="#505050"/>
<path d="M89.2646 7.20068V10.1124H95.0037V25.2544H97.9199V10.1124H103.661V7.20068H89.2646Z" fill="#505050"/>
<path d="M30.8258 7.20068H22.8428V25.2539H25.756V18.9896H30.8258C32.3891 18.9896 33.8884 18.3686 34.9939 17.2632C36.0993 16.1577 36.7203 14.6585 36.7203 13.0952C36.7203 11.5318 36.0993 10.0326 34.9939 8.92713C33.8884 7.82171 32.3891 7.20068 30.8258 7.20068ZM33.8046 13.0947C33.8037 13.8844 33.4896 14.6415 32.9311 15.1999C32.3727 15.7584 31.6156 16.0725 30.8258 16.0734H25.7555V10.1124H30.8258C31.6161 10.1135 32.3737 10.4281 32.9322 10.9873C33.4907 11.5464 33.8045 12.3044 33.8046 13.0947Z" fill="#505050"/>
<path d="M83.3773 18.4981C84.6188 17.9567 85.636 17.0042 86.2577 15.8009C86.8794 14.5976 87.0678 13.2168 86.7911 11.891C86.5144 10.5651 85.7895 9.37496 84.7384 8.52076C83.6873 7.66655 82.3741 7.20039 81.0196 7.20068H73.04V25.2539H75.9518V18.9896H80.3579L84.9908 25.2544H88.3667L83.3773 18.4981ZM84.0014 13.0961C83.9999 13.8862 83.6852 14.6435 83.1263 15.2019C82.5673 15.7603 81.8097 16.0742 81.0196 16.0749H75.9518V10.1124H81.0196C81.8105 10.1135 82.5686 10.4282 83.1276 10.9876C83.6866 11.547 84.0009 12.3053 84.0014 13.0961Z" fill="#505050"/>
<path d="M147.617 6.94069C147.885 6.93338 148.149 7.00604 148.375 7.14939C148.601 7.29273 148.779 7.50024 148.886 7.74538C148.994 7.99051 149.026 8.26213 148.978 8.52551C148.93 8.78888 148.805 9.03202 148.618 9.22386C148.432 9.41569 148.192 9.54749 147.93 9.60239C147.668 9.65729 147.396 9.63281 147.148 9.53207C146.9 9.43133 146.687 9.25892 146.538 9.03688C146.389 8.81483 146.309 8.55326 146.309 8.2856C146.306 8.11133 146.338 7.93828 146.403 7.77635C146.467 7.61441 146.563 7.46677 146.684 7.34186C146.806 7.21695 146.951 7.11722 147.111 7.04839C147.271 6.97955 147.443 6.94295 147.617 6.94069ZM147.617 9.3798C147.836 9.39112 148.054 9.33652 148.241 9.22305C148.429 9.10959 148.578 8.94248 148.669 8.74332C148.761 8.54417 148.791 8.32212 148.755 8.10588C148.719 7.88965 148.619 7.68916 148.468 7.53035C148.317 7.37153 148.121 7.26169 147.907 7.21501C147.693 7.16833 147.47 7.18697 147.266 7.26852C147.063 7.35006 146.889 7.49076 146.766 7.67243C146.643 7.8541 146.578 8.06838 146.578 8.28758C146.574 8.42781 146.597 8.56757 146.647 8.69869C146.697 8.82982 146.772 8.9497 146.869 9.05136C146.966 9.15301 147.082 9.2344 147.21 9.29079C147.339 9.34718 147.477 9.37743 147.617 9.3798ZM147.168 7.58559H147.701C147.759 7.58103 147.817 7.58873 147.871 7.6082C147.925 7.62766 147.975 7.65843 148.016 7.69848C148.057 7.73852 148.09 7.78692 148.111 7.84047C148.133 7.89402 148.142 7.95149 148.14 8.00907C148.144 8.08989 148.121 8.16982 148.075 8.23643C148.029 8.30304 147.962 8.35261 147.885 8.37744V8.38489C147.905 8.40861 147.922 8.43462 147.935 8.46234L148.2 8.97468H147.913L147.655 8.43652H147.43V8.97468H147.169L147.168 7.58559ZM147.65 8.24489C147.681 8.24655 147.712 8.2415 147.741 8.23008C147.77 8.21867 147.795 8.20115 147.817 8.17874C147.838 8.15634 147.855 8.12957 147.865 8.10028C147.875 8.07099 147.878 8.03987 147.875 8.00907C147.878 7.97887 147.874 7.94845 147.863 7.91996C147.853 7.89147 147.837 7.86559 147.815 7.84416C147.794 7.82272 147.768 7.80624 147.739 7.79588C147.711 7.78551 147.68 7.78152 147.65 7.78417H147.429V8.24489H147.65Z" fill="#505050"/>
<path d="M52.7752 6.93699L50.6976 2.09949L49.0488 2.80793L50.9766 7.29394C51.5627 7.11495 52.1652 6.99537 52.7752 6.93699Z" fill="#52C827"/>
<path d="M53.6614 6.89334H54.5054C54.819 6.89409 55.1323 6.91066 55.4442 6.94299L54.6856 0L52.9014 0.198581L53.6331 6.89682L53.6614 6.89334Z" fill="#52C827"/>
<path d="M43.8174 8.24172L46.5479 10.2772C47.162 9.52444 47.8912 8.87348 48.7085 8.34846L45.5376 4.10571L44.2051 5.09863L46.2188 7.79143L44.8858 6.79851L43.8174 8.24172Z" fill="#52C827"/>
<path d="M56.6186 7.14104L56.9165 3.67526L56.3208 3.62561L56.0264 7.02289C56.2269 7.05466 56.4235 7.09537 56.6186 7.14104Z" fill="#52C827"/>
<path d="M50.7435 7.37053L47.0459 1.47705L46.542 1.79528L50.1736 7.58202C50.3608 7.50507 50.5509 7.43507 50.7435 7.37053Z" fill="#52C827"/>
<path d="M60.3611 9.00783L63.8329 2.28627L62.2343 1.46313L59.2843 7.17242L60.2564 4.01444L58.5421 3.4872L57.3506 7.34469C58.4502 7.70386 59.4717 8.2682 60.3611 9.00783Z" fill="#52C827"/>
<path d="M70.1372 18.4247L63.6574 17.0842C63.625 17.6402 63.5419 18.1921 63.4092 18.733L69.8031 20.055L70.1372 18.4247Z" fill="#52C827"/>
<path d="M63.3302 13.5748L69.5092 10.1154L68.6409 8.54663L62.668 11.8873C62.9443 12.4264 63.1662 12.9917 63.3302 13.5748Z" fill="#52C827"/>
<path d="M67.8379 13.0548L63.4795 14.1743C63.6099 14.7959 63.6756 15.4293 63.6756 16.0644V16.4119L66.777 15.7838L66.698 15.203L68.2867 14.7969L67.8379 13.0548Z" fill="#52C827"/>
<path d="M61.038 9.63032L64.5355 4.95863L64.0574 4.60217L60.6006 9.21478C60.7508 9.34849 60.8966 9.48701 61.038 9.63032Z" fill="#52C827"/>
<path d="M61.665 10.3364C62.0434 10.8088 62.3742 11.3175 62.6525 11.855L65.2693 9.64677L64.1111 8.27356L61.665 10.3364Z" fill="#52C827"/>
<path d="M46.403 10.4619L40.3839 7.32874L40.1074 7.85846L46.0461 10.9524C46.1593 10.7871 46.2794 10.6218 46.403 10.4619Z" fill="#52C827"/>
<path d="M44.656 18.2534L37.9141 21.8046L38.7521 23.3898L44.8759 20.1693L40.239 24.5034L40.6466 24.9427L45.3962 20.5024C45.0526 19.7882 44.8037 19.0321 44.656 18.2534Z" fill="#52C827"/>
<path d="M58.04 24.9874L60.7775 30.6917L62.2773 29.9708L59.512 24.2054C59.0462 24.5104 58.5535 24.7721 58.04 24.9874Z" fill="#52C827"/>
<path d="M56.7846 25.4083C56.2416 25.5464 55.687 25.6343 55.1279 25.6709L55.2635 26.1113L56.7429 32.6259L57.285 32.5027L56.3845 28.541L57.634 28.1582L56.7846 25.4083Z" fill="#52C827"/>
<path d="M65.1235 25.2827L61.7396 22.155C61.3546 22.6491 60.9203 23.1028 60.4434 23.5089L64.8276 28.2064L65.2665 27.7983L64.0283 26.4718L65.1235 25.2827Z" fill="#52C827"/>
<path d="M63.041 19.8713L69.8569 22.7766L70.0739 22.2642L63.2287 19.348C63.1724 19.5251 63.1099 19.6995 63.041 19.8713Z" fill="#52C827"/>
<path d="M61.9766 21.8382L64.7418 23.4895L65.5968 22.0631L62.8166 20.4015C62.5808 20.9049 62.2996 21.3858 61.9766 21.8382Z" fill="#52C827"/>
<path d="M48.147 23.8524L45.7451 29.026L47.374 29.7826L49.6885 24.7927C49.1449 24.5308 48.6286 24.2159 48.147 23.8524Z" fill="#52C827"/>
<path d="M54.5043 25.6948H53.6603C53.3579 25.6948 53.0591 25.6794 52.7637 25.6506L53.2045 30.1525L54.9918 29.9783L54.5713 25.6928C54.5484 25.6933 54.5276 25.6948 54.5043 25.6948Z" fill="#52C827"/>
<path d="M39.0708 18.4132L44.5661 17.6878C44.5161 17.3014 44.4905 16.9123 44.4896 16.5226V16.0639C44.4896 15.8028 44.503 15.5446 44.5244 15.2889L39.4451 15.3386L39.4515 15.9393L44.4598 15.8847L38.8066 16.6373L39.0708 18.4132Z" fill="#52C827"/>
<path d="M46.0846 21.6898L43.083 25.3403L44.4731 26.4782L47.2672 23.0918C46.8273 22.665 46.4311 22.1954 46.0846 21.6898Z" fill="#52C827"/>
<path d="M50.4889 25.1302L48.3799 31.411L48.9483 31.5877L50.9024 25.8968L50.7589 28.256L52.43 28.4327L52.7234 25.6471C51.9598 25.5695 51.209 25.3958 50.4889 25.1302Z" fill="#52C827"/>
<path d="M41.0441 12.5039L40.8798 14.1581L44.6221 14.5195C44.8029 13.455 45.1716 12.4311 45.7108 11.4956L40.1892 9.92676L39.6992 11.6544L43.5378 12.7422L41.0441 12.5039Z" fill="#52C827"/>
<path d="M58.4441 17.3476C59.0135 14.9389 57.5224 12.5247 55.1137 11.9553C52.705 11.3859 50.2908 12.8769 49.7214 15.2856C49.152 17.6943 50.6431 20.1086 53.0518 20.678C55.4605 21.2473 57.8747 19.7563 58.4441 17.3476Z" fill="#52C827"/>
</svg>
