<svg width="152" height="40" viewBox="0 0 152 40" fill="none" xmlns="http://www.w3.org/2000/svg">
<path d="M116.304 23.5917C115.784 23.9189 115.236 24.199 114.661 24.4375C113.888 24.7493 113.155 24.9125 112.478 24.9125C111.438 24.9125 110.638 24.7654 110.098 24.4509C109.557 24.1525 109.273 23.6339 109.282 22.8915C109.282 22.0344 109.48 21.3694 109.889 20.8479C110.302 20.3462 110.915 19.9423 111.675 19.6411C112.431 19.3849 113.36 19.1738 114.433 19.0225C115.388 18.9022 117.274 18.6848 117.516 18.6833C117.757 18.6812 117.917 18.5482 117.81 19.1914C117.762 19.4708 117.217 21.7072 116.967 22.724C116.895 23.0287 116.49 23.4727 116.304 23.5917ZM123.708 7.87377C122.119 6.9871 119.634 6.53885 116.233 6.53885C114.551 6.53885 112.861 6.67396 111.165 6.93714C109.92 7.12785 109.792 7.15951 109.018 7.3277C107.427 7.67392 107.182 9.2671 107.182 9.2671L106.671 11.3684C106.381 12.7124 107.146 12.6568 107.488 12.5527C108.182 12.343 108.559 12.1347 109.976 11.8138C111.331 11.5063 112.762 11.2762 113.904 11.2853C115.579 11.2853 116.853 11.469 117.699 11.8222C118.546 12.1917 118.966 12.8208 118.966 13.7208C118.969 13.9348 118.974 14.1367 118.897 14.3134C118.827 14.478 118.694 14.6371 118.293 14.6912C115.903 14.8334 114.187 15.0515 112.121 15.3527C110.082 15.6398 108.298 16.1317 106.807 16.8129C105.218 17.518 104.028 18.4617 103.209 19.6573C102.411 20.8585 102.009 22.313 102.007 24.0266C102.007 25.6458 102.589 26.9666 103.715 27.9919C104.855 29.0038 106.337 29.5049 108.13 29.5049C109.25 29.4971 110.127 29.4162 110.755 29.2593C111.377 29.1024 112.055 28.8793 112.772 28.569C113.307 28.3452 113.885 28.0215 114.495 27.6154C115.106 27.208 115.529 26.9188 116.072 26.5634L116.091 26.5972L115.939 27.2706C115.938 27.277 115.929 27.2805 115.929 27.2868L115.934 27.2995C115.759 28.1108 116.247 28.7857 117.05 28.8652L117.06 28.8793H117.131L117.134 28.8828C117.668 28.8828 119.499 28.8821 120.354 28.8793H120.952C120.991 28.8793 120.995 28.8673 121.011 28.8582C121.831 28.7576 122.618 28.089 122.803 27.2868L125.859 14.0959C125.93 13.7856 125.985 13.4274 126.018 13.015C126.056 12.5984 126.101 12.2557 126.088 12.008C126.095 10.1411 125.293 8.76114 123.708 7.87377Z" fill="#336699"/>
<path d="M71.1322 6.83086C70.2357 6.83086 69.0598 7.55637 68.5032 8.43319C68.5032 8.43319 62.5062 18.7143 61.9172 19.7417C61.597 20.2941 61.2726 19.9429 61.2185 19.7375C61.1748 19.4876 59.36 8.50074 59.36 8.50074C59.1559 7.61619 58.2319 6.8569 57.0765 6.86041L53.337 6.86604C52.4355 6.86604 51.8733 7.58804 52.0738 8.46063C52.0738 8.46063 54.9323 24.6627 55.4896 28.4732C55.7676 30.5808 55.4608 30.9545 55.4608 30.9545L51.7551 37.4159C51.2125 38.292 51.5095 39.0098 52.4067 39.0098L56.7401 39.0062C57.6373 39.0062 58.8259 38.292 59.36 37.4145L76.0307 9.21922C76.0307 9.21922 77.6253 6.81045 76.1545 6.83086C75.1518 6.84493 71.1322 6.83086 71.1322 6.83086Z" fill="#1C3664"/>
<path d="M27.5411 4.19485C27.021 3.18011 26.2413 2.35607 25.2463 1.734C24.2139 1.09715 23.0134 0.658039 21.6138 0.393446C20.2057 0.140818 18.5611 0.0169678 16.6745 7.82013e-05L7.93871 0.0064106C7.03094 0.0169659 6.14146 0.729113 5.93175 1.6017L0.0410608 27.2101C-0.161606 28.0863 0.405577 28.8104 1.30983 28.8104H5.49475C6.39972 28.8104 7.29623 28.1053 7.4996 27.2101L8.94149 20.9957C9.1343 20.1267 10.0287 19.4075 10.9358 19.4075H12.1321C17.2501 19.4026 21.2197 18.3555 24.0725 16.2598C26.9211 14.1684 28.3461 11.3958 28.3391 7.9674C28.3461 6.46147 28.085 5.20114 27.5411 4.19485ZM18.5048 12.5619C17.2431 13.4844 15.4944 13.9468 13.2242 13.9468H12.1982C11.294 13.9468 10.7233 13.2297 10.9224 12.3486L12.182 6.92029C12.3742 6.04559 13.2763 5.32007 14.1806 5.32851L15.55 5.32007C17.1495 5.32007 18.3655 5.59381 19.186 6.13848C19.9945 6.66836 20.4055 7.50506 20.3914 8.63029C20.4154 10.3248 19.7729 11.6365 18.5048 12.5619Z" fill="#1C3664"/>
<path d="M103.52 4.28842C102.999 3.27368 102.211 2.45668 101.216 1.82054C100.195 1.18579 98.9813 0.743164 97.5767 0.484905C96.1876 0.241425 94.536 0.102093 92.6543 0.0978699L83.8989 0.102093C82.9974 0.117575 82.1129 0.8255 81.9046 1.69739L76.0181 27.3136C75.8035 28.184 76.389 28.9096 77.2742 28.9046L81.4753 28.8969C82.3662 28.9046 83.274 28.184 83.4844 27.3136L84.9045 21.0971C85.1036 20.2259 86.0093 19.4961 86.9149 19.5088H88.1091C93.2335 19.5088 97.2066 18.4561 100.052 16.3604C102.89 14.2543 104.318 11.4915 104.318 8.05534C104.309 6.55505 104.054 5.2912 103.52 4.28842ZM94.4875 12.6667C93.2335 13.5787 91.4735 14.0361 89.209 14.0361H88.1675C87.2668 14.0467 86.6848 13.3183 86.8988 12.445L88.1542 7.00823C88.3413 6.14831 89.2555 5.41645 90.1435 5.42349L91.5193 5.41646C93.1251 5.42349 94.3263 5.6923 95.156 6.22642C95.9716 6.76686 96.3671 7.60497 96.3734 8.72175C96.3769 10.424 95.7471 11.7336 94.4875 12.6667Z" fill="#336699"/>
<path d="M40.3086 23.572C39.7893 23.8992 39.2411 24.1779 38.6662 24.4172C37.8935 24.7275 37.1574 24.8922 36.4819 24.8922C35.4446 24.8922 34.6431 24.7444 34.102 24.4312C33.5615 24.1322 33.2765 23.6135 33.2857 22.8704C33.2857 22.0154 33.4855 21.3483 33.8944 20.8276C34.3075 20.3251 34.9176 19.9205 35.6776 19.62C36.4355 19.3625 37.3679 19.1542 38.4375 19.0029C39.3917 18.8825 41.2804 18.6658 41.5211 18.6623C41.7604 18.6616 41.9215 18.5272 41.8138 19.1704C41.7674 19.4497 41.222 21.6875 40.9722 22.7036C40.8969 23.0098 40.4916 23.4538 40.3086 23.572ZM47.713 7.85341C46.124 6.96675 43.6393 6.51919 40.2383 6.51919C38.5557 6.51919 36.8661 6.6529 35.1695 6.91678C33.9225 7.10608 33.7973 7.13845 33.0232 7.30663C31.4314 7.65426 31.1865 9.24604 31.1865 9.24604L30.6756 11.3487C30.3864 12.6921 31.1528 12.6365 31.4926 12.5323C32.1858 12.3226 32.5644 12.115 33.9816 11.7927C35.3342 11.4866 36.7676 11.2572 37.9083 11.265C39.5845 11.265 40.8568 11.4479 41.7034 11.8012C42.5513 12.1706 42.9686 12.8011 42.9686 13.7005C42.9743 13.9144 42.9785 14.1171 42.9032 14.2923C42.8321 14.4584 42.697 14.6167 42.2966 14.6702C39.9089 14.8144 38.194 15.0319 36.1244 15.3331C34.0858 15.6202 32.3026 16.1121 30.8108 16.7925C29.2211 17.4977 28.0332 18.4427 27.2148 19.6376C26.414 20.8381 26.0136 22.2927 26.0122 24.0069C26.0122 25.6254 26.5949 26.947 27.7194 27.9716C28.8594 28.9835 30.34 29.4852 32.133 29.4852C33.254 29.4775 34.1301 29.3952 34.7606 29.2396C35.382 29.0813 36.0611 28.8596 36.7746 28.5493C37.3123 28.3255 37.8886 28.0004 38.4994 27.5951C39.1088 27.1883 39.5339 26.8991 40.0785 26.5438L40.0954 26.5768L39.9427 27.2496C39.9413 27.2559 39.9329 27.2601 39.9329 27.2679L39.9392 27.2784C39.7647 28.0919 40.2509 28.766 41.0553 28.8442L41.0651 28.8596H41.1355L41.1376 28.8646C41.6724 28.8646 43.5041 28.8617 44.3577 28.8596H44.9559C44.996 28.8596 45.0016 28.8463 45.0143 28.8378C45.8369 28.7344 46.6208 28.0673 46.808 27.2679L49.8642 14.0756C49.9332 13.7659 49.9895 13.4077 50.0204 12.9961C50.0612 12.5774 50.1056 12.2361 50.0936 11.9891C50.1007 10.1207 49.297 8.74078 47.713 7.85341Z" fill="#1C3664"/>
<path d="M138.137 0.308304H134.393C134.39 0.308304 134.388 0.309008 134.387 0.309008L134.385 0.308304C133.528 0.308304 132.658 0.964857 132.415 1.80015C132.405 1.83393 132.388 1.8663 132.381 1.90149C132.381 1.90149 132.291 2.30893 132.137 3.01334L126.993 26.327C126.874 26.8541 126.795 27.1975 126.771 27.2869L126.781 27.2995C126.603 28.1144 127.092 28.7886 127.897 28.8638L127.907 28.8793H131.794C132.645 28.8793 133.509 28.2291 133.76 27.4044C133.772 27.3643 133.791 27.327 133.8 27.2869L139.411 1.90008L139.402 1.89726C139.593 1.02889 139.033 0.308304 138.137 0.308304Z" fill="#336699"/>
<path d="M145.226 5.47694C145.099 5.51071 144.96 5.53886 144.807 5.56068C144.655 5.58179 144.519 5.59375 144.401 5.59375C143.983 5.59375 143.668 5.48116 143.452 5.25808C143.235 5.03431 143.127 4.67542 143.127 4.18212V2.01683H142.664V1.43979H143.127V0.269536H143.812V1.43979H145.226V2.01683H143.812V3.87249C143.812 4.08572 143.818 4.2532 143.827 4.37353C143.837 4.49457 143.871 4.60646 143.93 4.7106C143.982 4.80842 144.055 4.87879 144.15 4.92383C144.244 4.96957 144.387 4.99208 144.579 4.99208C144.69 4.99208 144.807 4.9752 144.929 4.94212C145.05 4.90975 145.138 4.88231 145.191 4.86049H145.226V5.47694Z" fill="#336699"/>
<path d="M152 5.51288H151.315V3.19347C151.315 3.01896 151.307 2.84936 151.291 2.68681C151.275 2.52355 151.24 2.39407 151.19 2.29625C151.134 2.19211 151.054 2.11259 150.949 2.05981C150.845 2.00633 150.695 1.97959 150.498 1.97959C150.305 1.97959 150.114 2.02744 149.921 2.12385C149.729 2.21955 149.538 2.34129 149.346 2.48977C149.353 2.54607 149.358 2.61081 149.363 2.6854C149.369 2.75929 149.371 2.83248 149.371 2.90566V5.51288H148.686V3.19347C148.686 3.01333 148.677 2.84303 148.662 2.68118C148.646 2.51933 148.612 2.39055 148.562 2.29344C148.505 2.18859 148.425 2.11048 148.32 2.0577C148.216 2.00563 148.065 1.97959 147.868 1.97959C147.681 1.97959 147.494 2.02603 147.305 2.11822C147.116 2.2104 146.929 2.32792 146.741 2.47148V5.51288H146.055V1.43985H146.741V1.89163C146.956 1.71429 147.169 1.57566 147.382 1.47574C147.596 1.37722 147.82 1.32655 148.061 1.32655C148.338 1.32655 148.574 1.38496 148.767 1.50107C148.96 1.61859 149.104 1.77974 149.199 1.98662C149.476 1.753 149.729 1.58411 149.958 1.48137C150.186 1.37863 150.43 1.32655 150.69 1.32655C151.138 1.32655 151.468 1.46237 151.681 1.73259C151.893 2.00422 152 2.38281 152 2.86907V5.51288Z" fill="#336699"/>
</svg>
