<svg width="52" height="43" viewBox="0 0 52 43" fill="none" xmlns="http://www.w3.org/2000/svg">
<path d="M9.45508 25.2642C9.45508 25.2642 13.7711 24.3202 17.2791 24.8592C20.7861 25.3992 25.0911 28.0892 30.0251 28.5692C34.0221 28.9572 34.0721 33.2222 29.9571 33.2222H18.9641" fill="white"/>
<path d="M9.45508 25.2642C9.45508 25.2642 13.7711 24.3202 17.2791 24.8592C20.7861 25.3992 25.0911 28.0892 30.0251 28.5692C34.0221 28.9572 34.0721 33.2222 29.9571 33.2222H18.9641" stroke="#A5D9C5" stroke-width="1.5" stroke-linecap="round"/>
<path d="M9.45508 36.626C9.45508 36.626 20.8841 41.944 28.4681 41.208C36.0521 40.47 48.0961 30.438 49.1991 29.662C52.1311 27.603 50.2521 23.867 46.1571 25.671C42.2641 27.385 33.0231 31.21 33.0231 31.21" fill="white"/>
<path d="M9.45508 36.626C9.45508 36.626 20.8841 41.944 28.4681 41.208C36.0521 40.47 48.0961 30.438 49.1991 29.662C52.1311 27.603 50.2521 23.867 46.1571 25.671C42.2641 27.385 33.0231 31.21 33.0231 31.21" stroke="#A5D9C5" stroke-width="1.5" stroke-linecap="round"/>
<path d="M1 36.9396V23.3316C1 23.1596 1.033 22.9936 1.099 22.8356C1.165 22.6756 1.258 22.5356 1.38 22.4136C1.502 22.2926 1.642 22.1986 1.801 22.1326C1.96 22.0666 2.126 22.0336 2.298 22.0336H8.157C8.329 22.0336 8.495 22.0666 8.654 22.1326C8.813 22.1986 8.953 22.2926 9.075 22.4136C9.197 22.5356 9.291 22.6756 9.356 22.8356C9.422 22.9936 9.455 23.1596 9.455 23.3316V36.9396C9.455 37.1116 9.422 37.2766 9.356 37.4366C9.291 37.5946 9.197 37.7356 9.075 37.8566C8.953 37.9786 8.813 38.0726 8.654 38.1386C8.495 38.2046 8.329 38.2376 8.157 38.2376H2.298C2.126 38.2376 1.96 38.2046 1.801 38.1386C1.642 38.0726 1.502 37.9786 1.38 37.8566C1.258 37.7356 1.165 37.5946 1.099 37.4366C1.033 37.2766 1 37.1116 1 36.9396Z" fill="white" stroke="#A5D9C5" stroke-width="1.5"/>
<path d="M32.3934 6.18859C32.3934 5.17059 31.8354 3.83459 28.6524 3.83459C25.6434 3.83459 24.6894 5.78259 24.6894 7.25559C24.6894 9.59859 26.8824 10.6716 28.6524 10.6716C31.6444 10.6716 32.5254 12.1506 32.5254 13.9906C32.5254 16.5526 29.8664 17.1136 28.6524 17.1136C27.4364 17.1136 25.2384 16.4996 24.5254 14.2806" fill="white"/>
<path d="M32.3934 6.18859C32.3934 5.17059 31.8354 3.83459 28.6524 3.83459C25.6434 3.83459 24.6894 5.78259 24.6894 7.25559C24.6894 9.59859 26.8824 10.6716 28.6524 10.6716C31.6444 10.6716 32.5254 12.1506 32.5254 13.9906C32.5254 16.5526 29.8664 17.1136 28.6524 17.1136C27.4364 17.1136 25.2384 16.4996 24.5254 14.2806" stroke="#A5D9C5" stroke-width="1.5" stroke-linecap="round"/>
<path d="M28.6172 0.961903V19.4129V0.961903Z" fill="white"/>
<path d="M28.6172 0.961903V19.4129" stroke="#A5D9C5" stroke-width="1.5" stroke-linecap="round"/>
</svg>
