<svg width="133" height="39" viewBox="0 0 133 39" fill="none" xmlns="http://www.w3.org/2000/svg">
<path d="M45.7359 4.00174C49.0265 4.00174 52.2773 4.08103 55.5678 4.00174C62.0299 3.88281 66.2719 9.86917 64.6861 15.8555C63.5761 20.0975 59.7305 22.7537 55.9643 22.6348C54.1803 22.5951 52.3963 22.6348 50.533 22.6348C50.533 26.9164 50.533 31.1584 50.533 35.3608C48.8679 35.3608 47.2821 35.3608 45.6963 35.3608C45.7359 24.9342 45.7359 14.468 45.7359 4.00174ZM50.5726 17.7188C52.6341 17.7188 54.6957 17.8378 56.7175 17.6792C58.7394 17.5206 60.3252 15.4591 60.2459 13.3976C60.1666 10.9792 58.6205 9.15556 56.4004 9.03663C55.3696 8.95734 54.3388 8.99699 53.3081 8.99699C52.3963 8.99699 51.4844 8.99699 50.5726 8.99699C50.5726 11.9703 50.5726 14.8248 50.5726 17.7188Z" fill="black"/>
<path d="M132.518 35.4004C131.883 35.4401 131.249 35.5194 130.615 35.5194C129.822 35.559 129.029 35.5194 128.157 35.5194C128.117 35.2418 128.117 35.0436 128.117 34.8058C128.117 25.4099 128.117 15.9745 128.117 6.57867C128.117 5.984 128.315 5.78578 128.91 5.82542C130.139 5.86507 131.368 5.86507 132.597 5.90471C132.518 15.7366 132.518 25.5685 132.518 35.4004Z" fill="black"/>
<path d="M119.119 15.6573C119.119 14.904 119.119 14.3093 119.119 13.6354C120.506 13.6354 121.854 13.6354 123.242 13.6354C123.242 20.7318 123.242 27.8678 123.242 35.0435C121.934 35.0435 120.586 35.0435 119.198 35.0435C119.198 34.4092 119.198 33.8146 119.198 33.0613C118.96 33.2199 118.802 33.2595 118.643 33.3785C114.322 36.55 108.692 35.995 105.045 32.0702C99.336 25.8856 102.072 15.5383 110.397 13.5164C113.45 12.8028 116.225 13.5164 118.722 15.3401C118.802 15.4194 118.921 15.4987 119.119 15.6573ZM112.657 18.1945C109.406 18.1945 106.829 20.93 106.829 24.2998C106.829 27.7093 109.485 30.4447 112.815 30.4051C115.947 30.3655 118.603 27.5903 118.603 24.3791C118.603 20.8904 115.987 18.1549 112.657 18.1945Z" fill="black"/>
<path d="M86.0149 26.0443C80.7422 26.0443 75.4694 26.0443 70.1174 26.0443C70.7121 28.1058 71.941 29.533 73.8836 30.2466C77.1345 31.3963 79.6321 29.8898 81.9712 27.749C82.9226 28.9384 83.8741 30.1277 84.8256 31.3963C82.6848 33.7354 80.1079 35.1229 76.9759 35.4797C70.5931 36.1933 65.36 31.0395 65.0825 24.8153C64.8843 20.6526 66.3115 17.2431 69.7606 14.8248C74.8351 11.2964 81.6937 13.1201 84.5084 18.71C85.5788 20.8112 86.2528 23.9828 86.0149 26.0443ZM80.8611 21.8419C80.0286 18.9082 77.4517 17.1638 74.6765 17.5207C72.0203 17.8775 70.1967 20.2958 70.1967 21.8419C73.7251 21.8419 77.2931 21.8419 80.8611 21.8419Z" fill="black"/>
<path d="M93.5075 13.2786C95.7673 13.2786 97.8684 13.2786 100.049 13.2786C100.049 14.7455 100.049 16.133 100.049 17.6395C97.8684 17.6395 95.7276 17.6395 93.5472 17.6395C93.5472 17.9567 93.5075 18.1946 93.5075 18.4721C93.5075 21.1283 93.5075 23.8241 93.5075 26.4803C93.5075 28.6608 94.5383 29.7312 96.7584 29.7312C97.8288 29.7312 98.8596 29.7312 100.009 29.7312C100.009 31.3566 100.009 32.9424 100.009 34.6471C97.9477 34.5678 95.8466 34.9247 93.8247 34.2903C90.7324 33.3389 88.8294 30.8809 88.7898 27.5507C88.7105 20.6922 88.7501 13.794 88.7501 6.93544C88.7501 6.89579 88.7898 6.85615 88.8294 6.77686C90.3756 6.77686 91.9217 6.77686 93.5472 6.77686C93.5075 8.91767 93.5075 11.0585 93.5075 13.2786Z" fill="black"/>
<path d="M19.9175 20.7531C25.6483 20.7531 30.2941 16.1073 30.2941 10.3765C30.2941 4.64573 25.6483 0 19.9175 0C14.1867 0 9.54102 4.64573 9.54102 10.3765C9.54102 16.1073 14.1867 20.7531 19.9175 20.7531Z" fill="#9AEEEB"/>
<path d="M28.8179 29.8015C34.5487 29.8015 39.1945 25.1558 39.1945 19.425C39.1945 13.6942 34.5487 9.04846 28.8179 9.04846C23.0871 9.04846 18.4414 13.6942 18.4414 19.425C18.4414 25.1558 23.0871 29.8015 28.8179 29.8015Z" fill="#1B5ECE"/>
<path d="M19.9175 38.9981C25.6483 38.9981 30.2941 34.3523 30.2941 28.6215C30.2941 22.8907 25.6483 18.245 19.9175 18.245C14.1867 18.245 9.54102 22.8907 9.54102 28.6215C9.54102 34.3523 14.1867 38.9981 19.9175 38.9981Z" fill="#6EEA9D"/>
<path d="M10.3765 29.8015C16.1073 29.8015 20.7531 25.1558 20.7531 19.425C20.7531 13.6942 16.1073 9.04846 10.3765 9.04846C4.64573 9.04846 0 13.6942 0 19.425C0 25.1558 4.64573 29.8015 10.3765 29.8015Z" fill="#FFF791"/>
</svg>
