<svg width="137" height="22" viewBox="0 0 137 22" fill="none" xmlns="http://www.w3.org/2000/svg">
<path d="M65.6089 15.326L70.9784 6.67383C71.8915 7.13035 72.6741 7.71731 73.3045 8.39122L76.848 2.67383C76.2176 1.99992 75.435 1.41296 74.5219 0.956442C70.2828 -1.15225 64.8698 0.347746 62.4132 4.30427C59.935 8.28253 61.3698 13.2173 65.6089 15.326Z" fill="#FE7800"/>
<path d="M70.9784 6.67395L65.6088 15.3261C64.6958 14.8696 63.9132 14.2826 63.2827 13.6087L59.7393 19.3261C60.3697 20 61.1523 20.587 62.0653 21.0435C66.3045 23.1522 71.7175 21.6522 74.174 17.6957C76.6523 13.7174 75.1958 8.78265 70.9784 6.67395Z" fill="#E20C77"/>
<path d="M40.6739 3.8913C41.7174 2 44.1087 0 47.587 0C51.0652 0 53.4348 2 54.5 3.8913C55.2174 5.17391 55.4565 5.80435 55.4565 11C55.4565 16.1957 55.2174 16.8261 54.5 18.1087C53.4565 20 51.0652 22 47.587 22C44.1087 22 41.7391 20 40.6739 18.1087C39.9565 16.8261 39.7174 16.1957 39.7174 11C39.7174 5.80435 39.9565 5.17391 40.6739 3.8913ZM44.1739 17.1304C44.8478 17.9783 46 18.7174 47.587 18.7174C49.1739 18.7174 50.3043 17.9783 51 17.1304C51.8696 16.0435 52.1087 15.4348 52.1087 11C52.1087 6.56522 51.8696 5.95652 51 4.86957C50.3261 4.02174 49.1739 3.28261 47.587 3.28261C46 3.28261 44.8696 4.02174 44.1739 4.86957C43.3043 5.95652 43.0652 6.56522 43.0652 11C43.0652 15.4348 43.3043 16.0435 44.1739 17.1304ZM19.7174 0.195652H28.3261C30.1957 0.195652 31.6522 0.630435 32.8261 1.63043C34.0652 2.65217 35.0217 4.30435 35.0217 6.23913C35.0217 9.04348 33.413 11.3043 30.7391 12.2174L35.8478 21.8043H31.8913L27.3261 12.5652H23.0435V21.8043H19.6957L19.7174 0.195652ZM23.0652 9.67391H28.1087C30.6087 9.67391 31.8696 8.06522 31.8696 6.23913C31.8696 5.1087 31.4348 4.26087 30.7609 3.78261C30.1304 3.32609 29.4565 3.1087 28.3043 3.1087H23.0652V9.67391ZM0 0.195652H8C9.73913 0.195652 11.2609 0.413043 12.9565 1.71739C14.2826 2.71739 15.3478 4.54348 15.3478 6.8913C15.3478 9.95652 12.9565 13.3913 8.43478 13.3913H3.34783V21.8261H0V0.195652ZM3.34783 10.2609H8.30435C10.7826 10.2609 12 8.47826 12 6.76087C12 5.30435 11.413 4.41304 10.5652 3.86957C9.82609 3.3913 9.13043 3.26087 8.17391 3.26087H3.34783V10.2609ZM81.587 0.173913H89.587C91.3261 0.173913 92.8478 0.391304 94.5435 1.69565C95.8696 2.69565 96.9348 4.52174 96.9348 6.86957C96.9348 9.93478 94.5435 13.3696 90.0217 13.3696H84.9348V21.8043H81.587V0.173913ZM84.9348 10.2609H89.8913C92.3696 10.2609 93.5869 8.47826 93.5869 6.76087C93.5869 5.30435 93 4.41304 92.1522 3.86957C91.413 3.3913 90.7174 3.26087 89.7609 3.26087H84.9348V10.2609ZM101.065 0.173913H115.174V3.28261H104.413V9.45652H113.587V12.3696H104.413V18.7174H115.174V21.8261H101.065V0.173913ZM120.457 0.173913H129.065C130.935 0.173913 132.391 0.608696 133.565 1.6087C134.804 2.63043 135.761 4.28261 135.761 6.21739C135.761 9.02174 134.152 11.2826 131.478 12.1957L136.587 21.7826H132.63L128.065 12.5435H123.783V21.7826H120.435L120.457 0.173913ZM123.804 9.65217H128.848C131.348 9.65217 132.587 8.04348 132.587 6.21739C132.587 5.08696 132.152 4.23913 131.478 3.76087C130.848 3.30435 130.174 3.08696 129.022 3.08696H123.783V9.65217H123.804Z" fill="#818181"/>
</svg>
