<svg width="49" height="42" viewBox="0 0 49 42" fill="none" xmlns="http://www.w3.org/2000/svg">
<path d="M0.0102079 41.6733C-0.152549 37.7525 1.63778 34.9752 4.89291 33.1782C6.84599 32.198 8.79907 31.3812 10.7522 30.5643C11.0777 30.401 11.2404 30.2376 11.5659 30.2376C13.1935 29.5841 14.17 28.4406 14.0073 26.4802C13.8445 25.5 14.0073 24.6831 13.3563 23.8663C12.7052 23.0494 12.5425 21.7425 12.0542 20.7623C11.8915 20.5989 11.8915 20.2722 11.7287 20.1088C10.4266 19.4554 10.2639 18.1484 10.1011 17.0049C10.1011 16.3514 10.4266 15.6979 10.5894 14.8811C10.5894 14.5544 10.7522 14.0643 10.5894 13.7375C9.93837 11.4504 9.61286 9.32664 10.1011 7.0395C10.7522 3.28207 13.0308 0.994932 16.6114 0.341464C18.239 0.0147307 19.8665 -0.148636 21.4941 0.178098C22.4706 0.341464 23.4472 0.831565 24.261 1.48503C24.912 1.97513 25.7258 2.30187 26.5396 2.46523C26.7023 2.46523 26.8651 2.30187 27.0278 2.30187C29.1437 0.994932 31.4223 0.668198 33.8636 1.1583C34.3519 1.1583 34.6774 1.32167 35.0029 1.6484C35.9795 2.1385 36.956 2.6286 37.9325 3.1187C39.7229 4.0989 40.5366 5.73257 40.6994 7.69297C40.8622 9.49001 40.6994 11.1237 40.2111 12.9207C40.0484 13.2474 40.2111 13.7375 40.3739 14.0643C41.0249 15.3712 40.5366 17.3316 39.2346 18.3118C39.0718 18.4752 38.9091 18.6385 38.9091 18.9653C38.5836 20.1088 38.2581 21.2524 37.4443 22.2326C37.2815 22.396 37.2815 22.5594 37.2815 22.7227C37.2815 23.0495 37.2815 23.2128 37.2815 23.5396C37.1188 25.3366 37.9325 26.3168 39.5601 26.9703C41.1877 27.6237 42.978 28.2772 44.6056 29.2574C47.5352 30.7277 49 33.3416 49 36.7723C45.4194 36.7723 41.6759 36.7723 37.9325 36.7723C38.9091 38.4059 39.2346 40.203 39.2346 42C26.0513 41.6733 13.0308 41.6733 0.0102079 41.6733ZM2.2888 39.7129C13.8445 39.7129 25.4003 39.7129 36.7932 39.7129C36.4677 38.4059 35.9795 37.2624 35.0029 36.2822C33.3753 34.8119 31.4223 33.995 29.3064 33.1782C27.8416 32.5247 26.3768 31.8713 25.0748 31.0544C23.7727 30.2376 23.1217 29.094 23.1217 27.6237C23.1217 26.9703 23.1217 26.3168 23.1217 25.6633C23.1217 24.8465 22.9589 23.8663 23.9355 23.3762C24.0982 23.3762 24.0982 23.2128 24.0982 23.0494C24.5865 21.9059 24.912 20.7623 25.2375 19.4554C25.4003 19.1286 25.4003 18.8019 25.8885 18.6385C26.0513 18.6385 26.3768 18.4752 26.5396 18.1484C26.7023 17.6583 26.8651 17.0049 26.8651 16.3514C26.8651 16.0247 26.7023 15.6979 26.3768 15.5346C25.8885 15.2078 25.8885 15.0445 26.0513 14.5544C26.7023 12.4306 27.1906 10.1435 27.0278 7.85634C26.8651 6.0593 26.2141 4.42563 24.261 3.77217C23.6099 3.6088 22.7962 3.44543 22.3079 2.79197C21.9824 2.46523 21.4941 2.30187 21.0058 2.1385C19.0528 1.6484 17.0997 1.81177 15.3093 2.6286C13.8445 3.1187 12.7052 4.42563 12.217 6.22267C12.0542 7.0395 11.8915 8.0197 11.8915 8.99991C12.0542 10.7969 12.217 12.4306 12.5425 14.2276C12.7052 14.8811 12.868 15.3712 12.217 15.6979C12.0542 15.6979 11.8915 16.188 11.8915 16.3514C12.0542 17.0049 12.0542 17.6583 12.3797 18.3118C12.3797 18.4752 12.7052 18.6385 12.868 18.6385C13.519 18.6385 13.519 18.9653 13.6818 19.4554C14.0073 21.089 14.3328 22.7227 15.7976 23.8663C15.9604 24.0297 15.9604 24.193 15.9604 24.3564C15.9604 25.5 15.9604 26.6435 15.9604 27.9505C15.9604 29.094 15.4721 29.9109 14.6583 30.7277C14.0073 31.2178 13.3563 31.7079 12.7052 32.0346C11.4032 32.6881 9.93837 33.1782 8.63632 33.8317C7.00875 34.4851 5.54394 35.1386 4.24188 36.4455C3.10259 37.099 2.45156 38.2426 2.2888 39.7129ZM28.1671 3.77217C28.4926 4.91573 28.9809 6.0593 29.1437 7.0395C29.6319 9.32664 29.1437 11.6138 28.6554 13.9009C28.4926 14.2276 28.6554 14.7177 28.8182 15.0445C29.6319 16.5148 28.9809 18.9653 27.6789 19.9455C27.5161 20.1088 27.3533 20.2722 27.3533 20.5989C26.8651 21.5791 26.7023 22.8861 26.0513 23.7029C25.4003 24.6831 25.2375 25.6633 25.4003 26.8069C25.4003 26.9703 25.4003 27.1336 25.4003 27.4604C25.2375 28.4406 25.8885 29.2574 26.7023 29.5841C27.6789 30.0742 28.6554 30.5643 29.6319 31.0544C31.7478 32.0346 33.8636 32.6881 35.8167 34.1584C36.1422 34.3218 36.4677 34.4851 36.956 34.4851C40.0484 34.4851 42.978 34.4851 46.0704 34.4851C46.2331 34.4851 46.5586 34.4851 46.8842 34.4851C46.7214 34.1584 46.7214 33.8317 46.5586 33.5049C46.0704 32.198 45.0938 31.3812 43.7918 30.7277C42.4897 30.0742 41.0249 29.5841 39.7229 28.9307C38.7463 28.4406 37.607 27.9505 36.7932 27.297C35.9795 26.6435 35.4912 25.8267 35.4912 24.6831C35.4912 23.7029 35.4912 22.7227 35.4912 21.7425C35.4912 21.5791 35.6539 21.2524 35.6539 21.089C35.9795 20.7623 36.305 20.4356 36.4677 20.1088C36.956 19.1286 37.2815 17.9851 37.607 16.8415H37.7698C38.4208 16.8415 38.4208 16.3514 38.5836 16.0247C38.7463 15.5346 39.0718 14.8811 38.4208 14.5544C37.7698 14.2276 37.9325 13.9009 38.0953 13.4108C38.7463 11.4504 39.0718 9.65337 38.7463 7.5296C38.5836 6.5494 38.2581 5.40584 37.2815 4.91574C36.305 4.42563 35.3284 4.42563 34.5146 3.44543C32.2361 2.46523 30.1202 2.79197 28.1671 3.77217Z" fill="#013068"/>
</svg>
