<svg width="198" height="198" viewBox="0 0 198 198" fill="none" xmlns="http://www.w3.org/2000/svg">
<circle cx="99" cy="99" r="99" fill="#F2F2F2"/>
<path d="M73.6822 100.999C88.3802 114.591 110.592 114.622 125.402 100.929C126.683 101.71 128.052 102.456 129.33 103.338C145.092 114.209 153.376 129.212 153.996 148.402C154.097 151.528 152.382 153.23 149.29 153.23C116.095 153.233 82.9008 153.233 49.7062 153.23C46.6882 153.23 44.9026 151.511 45.0041 148.528C45.7043 127.878 54.979 112.259 72.5689 101.545C72.828 101.388 73.1046 101.251 73.3741 101.108C73.4512 101.073 73.5387 101.052 73.6822 100.999Z" fill="#D8D8D8"/>
<path d="M70.1497 73.3434C70.1567 57.1854 83.3596 43.993 99.514 44C115.672 44.007 128.843 57.1924 128.85 73.3714C128.857 89.1897 115.21 102.827 99.381 102.816C83.2756 102.806 70.1427 89.5643 70.1497 73.3434Z" fill="#D8D8D8"/>
</svg>
