<svg width="233" height="50" viewBox="0 0 233 50" fill="none" xmlns="http://www.w3.org/2000/svg">
<path d="M11.9376 38.6497H11.2309H10.9696L9.44629 42.7919H10.2822L10.6397 41.7709H11.2309H12.2675L12.6002 42.7183L12.625 42.7919H13.4609L12.5975 40.4525L11.9376 38.6497ZM11.2309 41.1683H10.8514L11.2309 40.0867L11.4371 39.4997H11.4701L12.0558 41.1683H11.2309Z" fill="white"/>
<path d="M18.2987 41.4735H18.2602L16.2227 38.6497H15.5215V42.7919H16.3052V39.9709H16.3409L18.3812 42.7919H19.0769V38.6497H18.2987V41.4735Z" fill="white"/>
<path d="M24.1932 41.4735H24.1547L22.1172 38.6497H21.416V42.7919H22.1997V39.9709H22.2354L24.2757 42.7919H24.9714V38.6497H24.1932V41.4735Z" fill="white"/>
<path d="M28.0952 38.6497H27.3115V42.7919H28.0952V38.6497Z" fill="white"/>
<path d="M32.1835 41.9103H32.1394L31.0119 38.6497H30.1514L31.6746 42.7919H32.6426L34.1688 38.6497H33.308L32.1835 41.9103Z" fill="white"/>
<path d="M37.0132 41.0313H38.8967V40.4025H37.0132V39.2787H39.0426V38.6497H36.2295V42.7919H39.0591V42.1629H37.0132V41.0313Z" fill="white"/>
<path d="M43.7819 41.1158C44.0101 41.0103 44.1833 40.8603 44.3016 40.6658C44.42 40.471 44.4776 40.2394 44.4776 39.9762C44.4776 39.7129 44.42 39.4813 44.3044 39.2813C44.1891 39.0813 44.0158 38.9287 43.7903 38.8184C43.5648 38.7078 43.2844 38.6526 42.9517 38.6526H41.3291V42.7945H42.1128V41.2787H42.9103L43.76 42.7945H44.6343L43.6966 41.1526C43.727 41.1368 43.7573 41.1287 43.7819 41.1158ZM42.1128 39.2762H42.8307C43.0259 39.2762 43.1853 39.3026 43.309 39.3578C43.4327 39.4129 43.5264 39.492 43.5867 39.5971C43.6474 39.7026 43.6774 39.8262 43.6774 39.9736C43.6774 40.121 43.6474 40.2445 43.5867 40.3445C43.5264 40.4445 43.4354 40.521 43.3117 40.5736C43.188 40.6261 43.0286 40.6526 42.8334 40.6526H42.1101V39.2762H42.1128Z" fill="white"/>
<path d="M49.4604 40.8187C49.3394 40.7238 49.2049 40.6451 49.0536 40.5845C48.9022 40.5212 48.7455 40.4738 48.5807 40.437L48.1735 40.3396C48.0855 40.3187 47.9976 40.2951 47.9096 40.2661C47.8216 40.237 47.742 40.2003 47.6703 40.1554C47.5988 40.1106 47.5412 40.058 47.5 39.9951C47.4586 39.9319 47.4367 39.8554 47.4367 39.7712C47.4394 39.6687 47.4697 39.5738 47.5331 39.4951C47.5961 39.4135 47.6841 39.3503 47.8024 39.3029C47.9207 39.2554 48.0609 39.2319 48.2231 39.2319C48.457 39.2319 48.6437 39.2819 48.7896 39.3793C48.9353 39.4764 49.0178 39.6161 49.037 39.7922H49.7904C49.785 39.558 49.7189 39.3528 49.5841 39.1712C49.4523 38.9922 49.2706 38.8503 49.037 38.7477C48.8031 38.6451 48.5365 38.5951 48.2285 38.5951C47.9261 38.5951 47.6538 38.6451 47.4148 38.7477C47.1755 38.8503 46.9857 38.9922 46.8482 39.1738C46.7107 39.358 46.6392 39.5712 46.6392 39.8161C46.6392 40.1135 46.7437 40.3503 46.95 40.5293C47.1562 40.708 47.4367 40.8396 47.7943 40.9293L48.2864 41.0503C48.4404 41.087 48.578 41.1319 48.6933 41.1793C48.8089 41.2264 48.8995 41.287 48.9656 41.358C49.0316 41.4293 49.0644 41.5187 49.0644 41.6264C49.0617 41.7451 49.0259 41.8477 48.9518 41.937C48.8776 42.0264 48.7785 42.0951 48.6494 42.1422C48.52 42.1922 48.3717 42.2161 48.2011 42.2161C48.039 42.2161 47.8904 42.1922 47.7583 42.1451C47.6264 42.0977 47.5192 42.0264 47.4394 41.9319C47.3568 41.837 47.3103 41.7161 47.2992 41.5712H46.5293C46.5404 41.8477 46.6146 42.0793 46.7548 42.2712C46.8923 42.4635 47.0875 42.608 47.3349 42.708C47.5823 42.808 47.8739 42.858 48.2092 42.858C48.5557 42.858 48.85 42.8054 49.0947 42.7029C49.3394 42.6003 49.5265 42.4554 49.6556 42.2712C49.785 42.087 49.851 41.8738 49.851 41.6319C49.851 41.4528 49.8153 41.2951 49.7466 41.1635C49.6778 41.0264 49.5814 40.9135 49.4604 40.8187Z" fill="white"/>
<path d="M53.2139 38.6497L51.6904 42.7919H52.5263L52.884 41.7709H54.5116L54.8693 42.7919H55.7052L54.179 38.6497H53.2139ZM53.0956 41.1683L53.6814 39.4997H53.7145L54.3 41.1683H53.0956Z" fill="white"/>
<path d="M60.2175 41.1158C60.4457 41.0103 60.6189 40.8603 60.7369 40.6658C60.8552 40.471 60.9132 40.2394 60.9132 39.9762C60.9132 39.7129 60.8552 39.4813 60.7399 39.2813C60.6243 39.0813 60.4511 38.9287 60.2256 38.8184C60.0001 38.7078 59.7196 38.6526 59.3869 38.6526H57.7646V42.7945H58.5483V41.2787H59.3458L60.1952 42.7945H61.0699L60.1322 41.1526C60.1622 41.1368 60.1898 41.1287 60.2175 41.1158ZM58.5483 39.2762H59.2659C59.4611 39.2762 59.6205 39.3026 59.7442 39.3578C59.8683 39.4129 59.9616 39.492 60.022 39.5971C60.0826 39.7026 60.113 39.8262 60.113 39.9736C60.113 40.121 60.0826 40.2445 60.022 40.3445C59.9616 40.4445 59.871 40.521 59.7473 40.5736C59.6235 40.6261 59.4638 40.6526 59.2686 40.6526H58.5456V39.2762H58.5483Z" fill="white"/>
<path d="M65.8702 38.6497L64.9709 40.2077L64.8115 40.4813H64.7703L63.7116 38.6497H63.6017H62.8262L63.6017 39.9287L64.4019 41.2471V42.7919H64.9709H65.1829V41.2471L66.7556 38.6497H65.8702Z" fill="white"/>
<path d="M34.5007 9.91842H37.4514L35.9774 5.18422L34.3605 0H31.333L34.4239 9.91842H34.5007Z" fill="#1F376B"/>
<path d="M38.1031 8.07371L38.6778 9.91842H38.7546H41.708L40.2313 5.18422L39.6182 3.21842L38.6144 0H37.5917H35.5869L36.5907 3.21842L38.1031 8.07371Z" fill="#1F376B"/>
<path d="M43.3144 39.3577C43.1907 39.3026 43.0312 39.2761 42.8361 39.2761H42.1182V40.6526H42.8415C43.0367 40.6526 43.1961 40.6261 43.3198 40.5735C43.4438 40.5209 43.5345 40.4445 43.5948 40.3445C43.6555 40.2445 43.6855 40.121 43.6855 39.9735C43.6855 39.8261 43.6555 39.7 43.5948 39.5971C43.5318 39.4919 43.4381 39.4129 43.3144 39.3577Z" fill="#1F376B"/>
<path d="M53.6832 39.5L53.0977 41.1687H54.302L53.7162 39.5H53.6832Z" fill="#1F376B"/>
<path d="M59.748 39.3577C59.624 39.3026 59.4645 39.2761 59.2694 39.2761H58.5518V40.6526H59.2748C59.4703 40.6526 59.6297 40.6261 59.7534 40.5735C59.8771 40.5209 59.9678 40.4445 60.0284 40.3445C60.0888 40.2445 60.1191 40.121 60.1191 39.9735C60.1191 39.8261 60.0888 39.7 60.0284 39.5971C59.9624 39.4919 59.8717 39.4129 59.748 39.3577Z" fill="#1F376B"/>
<path d="M63.6029 35.8477H12.601H11.2316H6.68359V45.6028H11.6606H13.1729H63.0339H64.5463H69.5231V35.8477H64.9751H63.6029ZM12.6285 42.7925L12.6037 42.7186L12.271 41.7712H11.2316H10.6405L10.283 42.7925H9.44708L10.9704 38.6502H11.2316H11.9383L12.601 40.4502L13.4644 42.7899H12.6285V42.7925ZM19.0766 42.7925H18.3809L16.3434 39.9712H16.3076V42.7925H15.5212V38.6502H16.2224L18.2599 41.4741H18.2985V38.6502H19.0794V42.7925H19.0766ZM24.9721 42.7925H24.2736L22.2361 39.9712H22.2003V42.7925H21.4166V38.6502H22.1178L24.1554 41.4741H24.1939V38.6502H24.9748V42.7925H24.9721ZM28.0958 42.7925H27.3121V38.6502H28.0958V42.7925ZM32.6439 42.7925H31.6759L30.1524 38.6502H31.0132L32.1407 41.9109H32.1845L33.3093 38.6502H34.1699L32.6439 42.7925ZM39.059 42.7925H36.2266V38.6502H39.0424V39.2793H37.013V40.4028H38.8968V41.0319H37.013V42.1635H39.0616V42.7925H39.059ZM43.7637 42.7925L42.914 41.2767H42.1168V42.7925H41.3331V38.6502H42.9554C43.2881 38.6502 43.5658 38.7054 43.794 38.816C44.0195 38.9267 44.1901 39.0819 44.3081 39.2793C44.4237 39.4793 44.4813 39.7109 44.4813 39.9741C44.4813 40.2399 44.4237 40.4686 44.3054 40.6635C44.1871 40.8583 44.0138 41.0083 43.7856 41.1135C43.7583 41.1267 43.7307 41.1344 43.7003 41.1451L44.638 42.787H43.7637V42.7925ZM49.6593 42.2686C49.5298 42.4528 49.3428 42.5977 49.0981 42.7002C48.8534 42.8028 48.5591 42.8557 48.2129 42.8557C47.8772 42.8557 47.583 42.8054 47.3383 42.7054C47.0908 42.6054 46.8984 42.4609 46.7582 42.2686C46.6206 42.0767 46.5438 41.8451 46.5327 41.5686H47.3025C47.3136 41.7135 47.3605 41.8319 47.4427 41.9293C47.5253 42.0241 47.6325 42.0977 47.7619 42.1425C47.891 42.187 48.0424 42.2135 48.2045 42.2135C48.375 42.2135 48.5234 42.1899 48.6528 42.1399C48.7819 42.0899 48.8837 42.0212 48.9551 41.9344C49.0266 41.8477 49.0653 41.7425 49.068 41.6241C49.0653 41.5161 49.0323 41.4267 48.969 41.3554C48.9029 41.2844 48.8149 41.2267 48.6966 41.1767C48.5813 41.1293 48.4438 41.087 48.2898 41.0477L47.7977 40.9267C47.44 40.8399 47.1596 40.7054 46.9533 40.5267C46.747 40.3477 46.6426 40.1109 46.6426 39.8135C46.6426 39.5686 46.7113 39.3554 46.8515 39.1712C46.9891 38.987 47.1788 38.8451 47.4181 38.7451C47.6574 38.6425 47.9295 38.5925 48.2321 38.5925C48.5399 38.5925 48.8095 38.6425 49.0404 38.7451C49.2713 38.8477 49.453 38.987 49.5878 39.1686C49.7196 39.3477 49.7884 39.5554 49.7938 39.7899H49.0404C49.0212 39.6135 48.9386 39.4767 48.793 39.3767C48.6474 39.2793 48.4576 39.2293 48.2264 39.2293C48.0643 39.2293 47.9241 39.2528 47.8058 39.3002C47.6875 39.3477 47.5995 39.4109 47.5364 39.4925C47.4731 39.5741 47.4427 39.6661 47.44 39.7686C47.44 39.8554 47.462 39.9293 47.5034 39.9925C47.5445 40.0554 47.6025 40.1083 47.6739 40.1528C47.7454 40.1977 47.825 40.2344 47.9129 40.2635C48.0009 40.2925 48.0889 40.3186 48.1772 40.337L48.584 40.4344C48.7462 40.4712 48.9056 40.5212 49.0569 40.5819C49.2083 40.6451 49.3458 40.7212 49.4638 40.816C49.5848 40.9109 49.6785 41.0241 49.7499 41.1583C49.8214 41.2925 49.8544 41.4477 49.8544 41.6267C49.8544 41.8712 49.7884 42.0844 49.6593 42.2686ZM54.8699 42.7925L54.5123 41.7712H52.8846L52.527 42.7925H51.6911L53.2146 38.6502H54.1823L55.7085 42.7925H54.8699ZM60.1962 42.7925L59.3465 41.2767H58.549V42.7925H57.7653V38.6502H59.3876C59.7203 38.6502 59.998 38.7054 60.2262 38.816C60.4517 38.9267 60.6223 39.0819 60.7406 39.2793C60.8562 39.4793 60.9138 39.7109 60.9138 39.9741C60.9138 40.2399 60.8562 40.4686 60.7379 40.6635C60.6196 40.8583 60.4463 41.0083 60.2181 41.1135C60.1905 41.1267 60.1632 41.1344 60.1328 41.1451L61.0705 42.787H60.1962V42.7925ZM65.8717 38.6502H66.7571L65.1841 41.2477V42.7925H64.9724H64.4004V41.2477L63.6029 39.9319L62.8277 38.6528H63.6029H63.7131L64.7715 40.4844H64.813L64.9724 40.2083L65.8717 38.6502Z" fill="#1F376B"/>
<path d="M11.4382 39.5L11.232 40.0871L10.8525 41.1687H11.232H12.0569L11.4712 39.5H11.4382Z" fill="#1F376B"/>
<path d="M5.38671 38.3365H0V48.0917H5.38671V38.3365Z" fill="#1F376B"/>
<path d="M76.2089 38.3365H70.8223V48.0917H76.2089V38.3365Z" fill="#1F376B"/>
<path d="M36.8577 32.1945H23.2959V32.5971H37.2783V28.8184H36.8577V32.1945Z" fill="#1F376B"/>
<path d="M52.2055 22.2706C52.4859 22.5706 52.739 22.9022 52.9534 23.2706C53.4483 24.118 53.693 25.0969 53.6876 26.2022C53.693 27.418 53.3933 28.4943 52.7856 29.4339C52.1779 30.3732 51.3257 31.1074 50.2286 31.639C49.1315 32.1706 47.8415 32.4339 46.3595 32.4339C44.96 32.4339 43.7199 32.1971 42.6366 31.7232C41.982 31.4364 41.4154 31.0839 40.9287 30.6655C41.4953 31.2629 42.2021 31.7522 43.0545 32.1258C44.1379 32.5997 45.3779 32.8364 46.7774 32.8364C48.2595 32.8364 49.5494 32.5706 50.6466 32.0416C51.7437 31.51 52.5958 30.7758 53.2035 29.8364C53.8113 28.8971 54.1109 27.8206 54.1055 26.6048C54.1109 25.4996 53.8662 24.5206 53.3714 23.6732C53.0579 23.1285 52.6676 22.6627 52.2055 22.2706Z" fill="#1F376B"/>
<path d="M22.9854 20.0451H26.7965C26.7965 19.5583 26.89 19.1425 27.0825 18.803C27.2722 18.4635 27.5389 18.2056 27.8882 18.0293C28.2346 17.853 28.6361 17.7662 29.0925 17.7662C29.549 17.7662 29.9532 17.853 30.3025 18.0267C30.5883 18.1688 30.8222 18.3609 31.0063 18.6004C30.9183 18.5372 30.8249 18.4793 30.7231 18.4293C30.3739 18.2556 29.9697 18.1688 29.5132 18.1688C29.0568 18.1688 28.6553 18.2583 28.3089 18.4319C27.9624 18.6083 27.6929 18.8662 27.5032 19.2056C27.3135 19.5477 27.2172 19.9609 27.2172 20.4477H22.9524C22.9441 20.5793 22.9414 20.7135 22.9414 20.8504H27.6379C27.6379 20.3635 27.7314 19.9477 27.9239 19.6083C28.1136 19.2688 28.3803 19.0109 28.7296 18.8346C29.076 18.6583 29.4775 18.5714 29.9339 18.5714C30.3905 18.5714 30.7946 18.6583 31.1438 18.8319C31.1522 18.8372 31.1603 18.8425 31.1687 18.8477C31.3363 19.1504 31.4242 19.503 31.4242 19.9135C31.4242 20.3214 31.3363 20.6951 31.163 21.0293C30.9871 21.3635 30.7396 21.6898 30.4151 22.003C30.0908 22.3188 29.7057 22.6556 29.2548 23.0109L22.4574 28.3898V31.7951H22.8782H23.2988H36.4424V28.8187V28.4162V28.0135H31.0477L31.8752 27.353C33.2639 26.2451 34.3334 25.2925 35.0871 24.4925C35.8404 23.6925 36.3629 22.9609 36.6514 22.3004C36.943 21.6398 37.0889 20.974 37.0889 20.303C37.0889 19.2188 36.7973 18.274 36.2115 17.4688C35.9779 17.1477 35.7056 16.8556 35.3975 16.5925C35.5378 16.7425 35.6726 16.9004 35.7936 17.0662C36.3767 17.8714 36.6709 18.8162 36.6709 19.9004C36.6709 20.5714 36.525 21.2346 36.2335 21.8977C35.9422 22.5583 35.4198 23.2898 34.6691 24.0898C33.9155 24.8898 32.846 25.8425 31.4573 26.9504L30.1265 28.0135H29.329V27.9109L31.0366 26.5477C32.4253 25.4398 33.4948 24.4872 34.2482 23.6872C35.0018 22.8872 35.5243 22.1556 35.8128 21.4951C36.1044 20.8346 36.25 20.1688 36.25 19.4977C36.25 18.4135 35.9587 17.4688 35.3729 16.6635C35.3096 16.5767 35.2408 16.4925 35.1721 16.4083C35.109 16.3319 35.0429 16.2609 34.9769 16.1898C34.4325 15.6083 33.7395 15.1398 32.8898 14.7872C31.8203 14.3425 30.5553 14.1188 29.0953 14.1188C27.6847 14.1188 26.4528 14.3583 25.4052 14.8346C24.3548 15.3109 23.5436 15.9925 22.9689 16.8767C22.3942 17.7609 22.1055 18.8162 22.1055 20.0425H22.5372H22.9854V20.0451Z" fill="#1F376B"/>
<path d="M52.1292 18.1399V15.1635V14.7609V14.3583H39.8901L39.1781 23.9609L39.6207 24.0451L40.0633 24.1293L43.5172 24.7793C43.7234 24.353 44.0504 24.0214 44.4906 23.7793C44.9332 23.5372 45.4145 23.4188 45.9369 23.4188C46.4402 23.4188 46.8855 23.5214 47.2704 23.7293C47.5454 23.8767 47.779 24.0714 47.9688 24.3057C47.8808 24.2425 47.7901 24.182 47.691 24.1293C47.3061 23.9214 46.8608 23.8188 46.3576 23.8188C45.8352 23.8188 45.3538 23.9399 44.9113 24.1793C44.4684 24.4214 44.1441 24.753 43.9378 25.1793L40.0414 24.4451L40.0168 24.7636L44.3585 25.582C44.5648 25.1557 44.892 24.8241 45.3319 24.582C45.7745 24.3399 46.2558 24.2214 46.7783 24.2214C47.2815 24.2214 47.7268 24.3241 48.112 24.532C48.1228 24.5372 48.1339 24.5451 48.1447 24.553C48.1558 24.5714 48.1697 24.5872 48.1808 24.6057C48.4006 24.9846 48.5078 25.4267 48.4996 25.9372C48.505 26.4425 48.3979 26.8846 48.1808 27.2662C47.9607 27.6451 47.6583 27.9399 47.2731 28.1478C46.8882 28.3557 46.4429 28.4583 45.9396 28.4583C45.428 28.4583 44.9743 28.3478 44.5756 28.1293C44.4438 27.882 44.3696 27.603 44.3612 27.2899H43.9928C44.0504 27.5399 44.1549 27.7636 44.3089 27.9609C44.2924 27.9478 44.2732 27.9372 44.2567 27.9241C44.0204 27.7425 43.8387 27.532 43.7177 27.2899C43.6547 27.1636 43.6078 27.0293 43.5748 26.8872C43.5445 26.7609 43.528 26.6267 43.5226 26.4846H38.7188C38.7299 27.5688 39.046 28.5267 39.6646 29.3609C39.9096 29.6899 40.1927 29.9925 40.5116 30.2661C40.583 30.3267 40.6545 30.3874 40.729 30.4451C41.1634 30.7845 41.6583 31.0793 42.2165 31.3241C43.2998 31.7977 44.5398 32.0345 45.9396 32.0345C47.4217 32.0345 48.7113 31.769 49.8085 31.2399C50.9056 30.7083 51.758 29.9741 52.3658 29.0345C52.9735 28.0951 53.2731 27.0188 53.2677 25.803C53.2731 24.6978 53.0284 23.7188 52.5333 22.8714C52.3712 22.5925 52.1871 22.3372 51.9862 22.0978C51.9229 22.0214 51.8541 21.9451 51.7857 21.8741C51.4169 21.4846 50.9963 21.1504 50.5123 20.8767C49.6598 20.3951 48.6921 20.153 47.6088 20.153C46.6849 20.153 45.8709 20.3267 45.1725 20.6767C44.9608 20.782 44.7683 20.8978 44.5951 21.0214L44.7876 18.9478H52.9708V15.1635H52.5498V18.5399H44.3669L44.1 21.4372C43.9378 21.6083 43.803 21.7899 43.6985 21.9872H43.5913L43.9459 18.1399H52.1292Z" fill="#1F376B"/>
<path d="M156.32 24.5657C156.32 24.5657 159.936 23.9736 159.936 19.821C159.936 14.642 153.037 14.642 153.037 14.642L141.634 14.4315V15.7341L143.198 15.7631C144.042 15.7789 144.716 16.4368 144.716 17.2447V33.0474C144.716 33.8603 144.032 34.521 143.185 34.529L141.636 34.5419V35.8448L153.04 35.7394C153.04 35.7394 160.973 35.8342 160.973 29.7448C160.97 25.6342 156.32 24.5657 156.32 24.5657ZM150.351 16.2631C155.143 16.2631 156.051 18.3578 156.051 20.1763C156.051 22.9842 153.447 23.8921 152.231 23.8921C151.016 23.8921 148.739 23.8921 148.739 23.8921V16.9341C148.739 16.9341 148.415 16.2631 150.351 16.2631ZM150.972 34.0552C148.494 34.0552 148.742 33.2236 148.742 33.2236V25.5131C148.742 25.5131 149.613 25.5605 150.309 25.5921C152.168 25.6736 156.669 25.7499 156.669 29.8236C156.669 33.8974 152.831 34.0552 150.972 34.0552Z" fill="#1F376B"/>
<path d="M177.789 32.7503C177.789 32.7503 176.928 33.7003 176.131 33.7003C175.597 33.7003 175.471 33.2635 175.446 32.9739V25.0792C175.446 25.0792 175.55 20.7819 170.263 20.7819C166.54 20.7819 165.275 22.6555 164.849 23.7634C164.708 24.0134 164.634 24.2977 164.64 24.6029C164.659 25.4898 165.423 26.2319 166.35 26.2634C167.362 26.2977 168.192 25.524 168.192 24.5634C168.192 24.395 168.167 24.2345 168.118 24.0819C167.912 23.4213 168.162 22.695 168.794 22.3687C169.105 22.2082 169.512 22.1003 170.043 22.1003C172.218 22.1003 172.108 23.8924 172.108 23.8924V25.0792V26.2661C170.007 26.7766 164.01 28.5766 164.01 32.5135C164.01 35.6239 166.875 36.0713 167.837 36.0713C170.15 36.0713 172.108 34.0555 172.108 34.0555C172.108 34.0555 172.548 36.0713 174.558 36.0713C176.568 36.0713 177.786 34.3319 177.786 34.3319V32.7503H177.789ZM172.108 32.3029C172.108 32.3029 171.143 33.6739 169.353 33.6739C167.562 33.6739 167.343 32.1213 167.343 31.5135C167.343 28.6661 172.108 27.4003 172.108 27.4003V32.3029Z" fill="#1F376B"/>
<path d="M209.959 34.6712C208.824 34.6712 207.751 34.1712 207.05 33.3135L201.693 26.758C202.021 26.4475 203.621 24.9501 205.714 23.2791C206.574 22.5923 207.66 22.2133 208.782 22.2133H209.494V21.0975H202.191V22.2133H203.533C203.847 22.2133 203.995 22.5817 203.761 22.7817L199.2 26.7396V14.4291C199.2 13.9317 198.663 13.6001 198.19 13.8054C197.294 14.1922 195.76 14.7791 193.433 15.4317V16.5659C193.433 16.5659 194.5 16.3554 194.995 16.3554H195.243C195.584 16.3554 195.861 16.6212 195.861 16.9475V33.5554C195.861 34.1712 195.339 34.6712 194.695 34.6712H193.763H192.971C192.251 34.6712 191.665 34.1106 191.665 33.4212V25.237C191.665 25.237 191.665 20.7817 187.59 20.7817C185.751 20.7817 183.944 22.1501 183.229 22.7607V21.508C183.229 20.9133 182.586 20.5186 182.022 20.7686C181.018 21.2133 180.243 21.7159 177.793 22.308V23.4423C177.793 23.4423 178.365 23.2317 178.86 23.2317H179.08C179.528 23.2317 179.891 23.5791 179.891 24.008V33.4212C179.891 34.1106 179.305 34.6712 178.585 34.6712H177.793V35.787H185.33V34.6712H184.538C183.818 34.6712 183.232 34.1106 183.232 33.4212V24.6844C183.837 24.0291 184.909 23.1291 186.232 23.1291C188.313 23.1291 188.33 25.237 188.33 25.237V33.4212C188.33 34.1106 187.744 34.6712 187.024 34.6712H186.232V35.787H193.769H201.636V34.6712H200.371C199.727 34.6712 199.205 34.1712 199.205 33.5554V28.6502L204.086 34.6712H202.56V35.787H210.328V34.6712H209.959Z" fill="#1F376B"/>
<path d="M64.2884 4.51624H52.8359V5.82675H63.6038V35.8478H64.9732V5.17149C64.9732 4.80833 64.6679 4.51624 64.2884 4.51624Z" fill="#807673"/>
<path d="M12.6018 5.82675H23.3697V4.51624H11.9171C11.5376 4.51624 11.2324 4.80833 11.2324 5.17149V35.8478H12.6018V5.82675Z" fill="#807673"/>
<path d="M61.3241 48.8264H14.8838L13.1735 45.6H11.6611L14.0836 50H62.1216L64.5468 45.6H63.0344L61.3241 48.8264Z" fill="#807673"/>
<path d="M41.7081 9.91842H41.7823L44.8758 0H41.8456L40.2314 5.18422L41.7081 9.91842Z" fill="#807673"/>
<path d="M37.5293 9.91851L38.104 8.07376L36.5916 3.21851L35.9785 5.18431L37.4525 9.91851H37.5293Z" fill="#807673"/>
<path d="M40.6205 0H38.6133L39.6167 3.21842L40.6205 0Z" fill="#807673"/>
<path d="M112.756 15.905H113.391V14.4287H105.981V15.905H107.089C107.98 15.905 108.601 16.7524 108.299 17.555L104.144 28.5156L99.4724 16.9103C99.2772 16.4261 99.651 15.905 100.193 15.905H101.961V14.4287H92.2899V15.905H93.4834C94.0993 15.905 94.6521 16.2577 94.8887 16.7998C95.3036 17.7577 95.9113 19.1603 96.6262 20.8445L93.6153 28.3445L89.048 16.9866C88.8391 16.4656 89.2405 15.905 89.8236 15.905H91.1628V14.4287H82.3223V15.905H82.7402C83.7851 15.905 84.7201 16.534 85.072 17.4761L92.0975 36.2552H93.2553L97.9077 23.8814C99.5219 27.7366 101.383 32.3103 102.841 36.2552H103.861C103.861 36.2552 107.328 25.9945 110.831 17.1735C111.137 16.4103 111.904 15.905 112.756 15.905Z" fill="#807673"/>
<path d="M119.036 33.1843C115.929 33.1843 114.562 30.6026 114.356 27.2291H124.31C124.31 27.2291 124.574 20.6501 118.17 20.6501C113.393 20.6501 111.105 24.7238 111.105 28.7949C111.105 32.5897 112.827 36.2555 117.708 36.2555C123.251 36.2555 125.151 30.3765 125.151 30.3765L123.746 29.7055C123.746 29.7055 122.423 33.1843 119.036 33.1843ZM117.507 22.7475C119.344 22.7475 119.883 24.366 120.042 25.358H114.403C114.831 22.9396 116.916 22.7475 117.507 22.7475Z" fill="#807673"/>
<path d="M134.734 20.65C132.724 20.65 131.327 21.5921 130.53 22.3421V16.4947V15.7316V14.2131C130.53 13.8184 130.129 13.5368 129.735 13.6579L124.777 15.1684V16.4947H126.271C126.65 16.4947 126.958 16.7895 126.958 17.1526V34.0526C126.958 34.0526 127.791 36.2526 132.584 36.2526C138.449 36.2526 140.806 31.6394 140.806 27.9632C140.808 25.95 139.733 20.65 134.734 20.65ZM133.288 34.3316C131.754 34.3316 130.951 33.8423 130.53 33.3236V25.2105C130.967 24.4053 131.795 23.5369 133.329 23.5369C136.181 23.5369 137.088 27.0553 137.088 29.15C137.088 31.2448 136.552 34.3316 133.288 34.3316Z" fill="#807673"/>
<path d="M135.548 39.0474L133.942 43.5341H134.481L134.899 42.35H136.654L137.066 43.5341H137.61L136.005 39.0474H135.548ZM135.037 41.9158L135.771 39.6948L136.505 41.9158H135.037Z" fill="#807673"/>
<path d="M141.957 41.4342C141.905 41.3894 141.836 41.3448 141.759 41.2974C141.679 41.25 141.586 41.2026 141.476 41.15C141.366 41.1 141.237 41.0419 141.088 40.979C140.92 40.9077 140.791 40.85 140.698 40.8077C140.604 40.7658 140.53 40.7316 140.478 40.7077C140.423 40.6842 140.384 40.6632 140.357 40.6474C140.329 40.6316 140.296 40.6103 140.258 40.5842C140.071 40.4684 139.977 40.3132 139.977 40.1158C139.977 39.9158 140.057 39.7526 140.219 39.6236C140.379 39.4974 140.585 39.4342 140.83 39.4342C141.097 39.4342 141.308 39.5026 141.465 39.6419C141.624 39.7816 141.715 39.9761 141.737 40.2316H142.246C142.238 40.0658 142.216 39.929 142.18 39.821C142.144 39.7132 142.089 39.6052 142.009 39.5026C141.888 39.3368 141.729 39.2103 141.531 39.1236C141.333 39.0368 141.107 38.9919 140.857 38.9919C140.651 38.9919 140.464 39.021 140.291 39.079C140.117 39.1368 139.972 39.2184 139.848 39.3184C139.724 39.421 139.628 39.5448 139.559 39.6868C139.491 39.829 139.455 39.9868 139.455 40.1552C139.455 40.4948 139.598 40.771 139.889 40.9842C139.969 41.0474 140.087 41.1184 140.241 41.1974C140.398 41.2761 140.596 41.3684 140.838 41.471C140.953 41.521 141.05 41.5603 141.127 41.5948C141.204 41.629 141.267 41.6578 141.319 41.6842C141.371 41.7103 141.416 41.7368 141.451 41.7606C141.49 41.7842 141.525 41.8132 141.564 41.8448C141.751 41.9974 141.845 42.179 141.845 42.3919C141.845 42.6184 141.754 42.8052 141.575 42.9474C141.396 43.0894 141.162 43.1603 140.879 43.1603C140.552 43.1603 140.299 43.0761 140.117 42.9052C139.936 42.7368 139.834 42.4894 139.81 42.1684H139.301C139.315 42.3816 139.345 42.5578 139.389 42.6974C139.433 42.8368 139.504 42.9658 139.601 43.0842C139.735 43.2526 139.912 43.3816 140.126 43.4684C140.34 43.5552 140.585 43.6 140.86 43.6C141.088 43.6 141.294 43.571 141.482 43.5106C141.668 43.45 141.828 43.3658 141.96 43.2526C142.092 43.1419 142.196 43.0077 142.271 42.8526C142.345 42.6974 142.384 42.5236 142.384 42.3316C142.384 42.0342 142.29 41.7761 142.103 41.5632C142.059 41.5236 142.009 41.479 141.957 41.4342Z" fill="#807673"/>
<path d="M142.568 39.5078H143.778V43.5342H144.304V39.5078H145.519V39.0736H142.568V39.5078Z" fill="#807673"/>
<path d="M146.502 41.442H148.388V41.0052H146.502V39.5078H148.534V39.0736H145.977V43.5342H148.583V43.1H146.502V41.442Z" fill="#807673"/>
<path d="M149.731 41.442H151.617V41.0052H149.731V39.5078H151.763V39.0736H149.206V43.5342H151.813V43.1H149.731V41.442Z" fill="#807673"/>
<path d="M152.973 39.0736H152.434V43.5342H154.963V43.1H152.973V39.0736Z" fill="#807673"/>
<path d="M159.541 40.4107C159.541 40.1158 159.467 39.8607 159.321 39.6423C159.175 39.4239 158.972 39.2739 158.716 39.1949C158.647 39.1739 158.57 39.1529 158.493 39.1371C158.414 39.1213 158.326 39.1081 158.224 39.1003C158.125 39.0923 158.009 39.0845 157.88 39.079C157.751 39.0739 157.603 39.0713 157.429 39.0713H156.662V43.5316H157.187V41.7132H157.531C157.707 41.7132 157.861 41.7107 157.987 41.7055C158.117 41.7003 158.229 41.6923 158.326 41.6816C158.425 41.6713 158.51 41.6555 158.587 41.6345C158.664 41.6132 158.738 41.5897 158.815 41.5632C159.043 41.4739 159.222 41.329 159.349 41.1265C159.475 40.9265 159.541 40.6871 159.541 40.4107ZM158.831 40.9423C158.727 41.0816 158.576 41.1765 158.38 41.2187C158.326 41.2316 158.271 41.2423 158.221 41.2474C158.169 41.2555 158.111 41.2607 158.045 41.2632C157.979 41.2687 157.905 41.2713 157.822 41.2739C157.74 41.2765 157.636 41.2765 157.515 41.2765H157.187V39.5055H157.46C157.619 39.5055 157.751 39.5055 157.861 39.5081C157.971 39.5107 158.064 39.5158 158.141 39.5239C158.218 39.5316 158.284 39.5449 158.345 39.5581C158.403 39.5713 158.46 39.5897 158.515 39.6107C158.664 39.6687 158.782 39.7658 158.865 39.9055C158.947 40.0449 158.991 40.2107 158.991 40.4081C158.988 40.6265 158.936 40.8029 158.831 40.9423Z" fill="#807673"/>
<path d="M160.758 39.0474L159.152 43.5341H159.691L160.109 42.35H161.863L162.276 43.5341H162.82L161.215 39.0474H160.758ZM160.247 41.9158L160.981 39.6948L161.715 41.9158H160.247Z" fill="#807673"/>
<path d="M166.018 40.337C166.018 40.0684 165.952 39.837 165.82 39.6422C165.688 39.4448 165.501 39.3028 165.265 39.2132C165.185 39.187 165.108 39.1632 165.034 39.1422C164.96 39.1212 164.875 39.108 164.775 39.0974C164.676 39.0896 164.564 39.0816 164.437 39.0764C164.308 39.0712 164.154 39.0684 163.973 39.0684H163.147V43.529H163.673V41.6238H164.484L165.658 43.529H166.288L165.064 41.5422C165.699 41.3264 166.018 40.9212 166.018 40.337ZM164.781 41.15C164.729 41.1606 164.668 41.1712 164.6 41.1764C164.531 41.1842 164.445 41.187 164.352 41.1896C164.256 41.1922 164.137 41.1922 164 41.1922H163.673V39.508H163.986C164.154 39.508 164.291 39.508 164.399 39.5106C164.506 39.5132 164.597 39.5184 164.674 39.5238C164.751 39.5316 164.814 39.5422 164.866 39.558C164.918 39.5738 164.971 39.5922 165.026 39.6158C165.166 39.6738 165.273 39.7658 165.35 39.8896C165.427 40.0132 165.466 40.1606 165.466 40.3316C165.466 40.5238 165.419 40.687 165.328 40.8212C165.237 40.9554 165.108 41.05 164.94 41.108C164.888 41.1238 164.833 41.1396 164.781 41.15Z" fill="#807673"/>
<path d="M166.121 39.5078H167.331V43.5342H167.856V39.5078H169.071V39.0736H166.121V39.5078Z" fill="#807673"/>
<path d="M172.334 42.7842L170.099 39.0736H169.532V43.5342H170.03V39.8288L172.252 43.5342H172.824V39.0736H172.334V42.7842Z" fill="#807673"/>
<path d="M174.129 41.442H176.018V41.0052H174.129V39.5078H176.164V39.0736H173.606V43.5342H176.213V43.1H174.129V41.442Z" fill="#807673"/>
<path d="M179.566 40.337C179.566 40.0684 179.5 39.837 179.368 39.6422C179.236 39.4448 179.049 39.3028 178.812 39.2132C178.733 39.187 178.656 39.1632 178.582 39.1422C178.507 39.1212 178.422 39.108 178.323 39.0974C178.224 39.0896 178.111 39.0816 177.985 39.0764C177.856 39.0712 177.701 39.0684 177.52 39.0684H176.695V43.529H177.22V41.6238H178.031L179.206 43.529H179.835L178.612 41.5422C179.247 41.3264 179.566 40.9212 179.566 40.337ZM178.331 41.15C178.279 41.1606 178.219 41.1712 178.15 41.1764C178.081 41.1842 177.996 41.187 177.902 41.1896C177.806 41.1922 177.688 41.1922 177.55 41.1922H177.223V39.508H177.537C177.704 39.508 177.842 39.508 177.949 39.5106C178.056 39.5132 178.147 39.5184 178.224 39.5238C178.301 39.5316 178.364 39.5422 178.416 39.558C178.469 39.5738 178.521 39.5922 178.576 39.6158C178.716 39.6738 178.824 39.7658 178.9 39.8896C178.978 40.0132 179.016 40.1606 179.016 40.3316C179.016 40.5238 178.969 40.687 178.878 40.8212C178.788 40.9554 178.658 41.05 178.491 41.108C178.436 41.1238 178.381 41.1396 178.331 41.15Z" fill="#807673"/>
<path d="M182.609 41.4342C182.554 41.3894 182.488 41.3448 182.41 41.2974C182.331 41.25 182.237 41.2026 182.127 41.15C182.017 41.1 181.888 41.0419 181.74 40.979C181.572 40.9077 181.443 40.85 181.349 40.8077C181.256 40.7658 181.181 40.7316 181.129 40.7077C181.074 40.6842 181.035 40.6632 181.008 40.6474C180.981 40.6316 180.947 40.6103 180.909 40.5842C180.722 40.4684 180.629 40.3132 180.629 40.1158C180.629 39.9158 180.708 39.7526 180.871 39.6236C181.03 39.4974 181.234 39.4342 181.481 39.4342C181.748 39.4342 181.959 39.5026 182.116 39.6419C182.276 39.7816 182.367 39.9761 182.388 40.2316H182.897C182.889 40.0658 182.867 39.929 182.831 39.821C182.795 39.7132 182.74 39.6052 182.661 39.5026C182.54 39.3368 182.38 39.2103 182.182 39.1236C181.984 39.0368 181.759 38.9919 181.508 38.9919C181.302 38.9919 181.115 39.021 180.942 39.079C180.769 39.1368 180.621 39.2184 180.5 39.3184C180.376 39.421 180.279 39.5448 180.211 39.6868C180.142 39.829 180.106 39.9868 180.106 40.1552C180.106 40.4948 180.252 40.771 180.541 40.9842C180.62 41.0474 180.739 41.1184 180.893 41.1974C181.049 41.2761 181.247 41.3684 181.489 41.471C181.605 41.521 181.704 41.5603 181.778 41.5948C181.855 41.629 181.918 41.6578 181.97 41.6842C182.023 41.7103 182.067 41.7368 182.103 41.7606C182.141 41.7842 182.177 41.8132 182.215 41.8448C182.402 41.9974 182.496 42.179 182.496 42.3919C182.496 42.6184 182.405 42.8052 182.226 42.9474C182.047 43.0894 181.814 43.1603 181.531 43.1603C181.203 43.1603 180.95 43.0761 180.769 42.9052C180.587 42.7368 180.486 42.4894 180.461 42.1684H179.952C179.966 42.3816 179.996 42.5578 180.04 42.6974C180.084 42.8368 180.156 42.9658 180.252 43.0842C180.387 43.2526 180.563 43.3816 180.777 43.4684C180.992 43.5552 181.236 43.6 181.511 43.6C181.74 43.6 181.946 43.571 182.133 43.5106C182.32 43.45 182.479 43.3658 182.611 43.2526C182.743 43.1419 182.848 43.0077 182.922 42.8526C182.996 42.6974 183.035 42.5236 183.035 42.3316C183.035 42.0342 182.941 41.7761 182.754 41.5632C182.71 41.5236 182.663 41.479 182.609 41.4342Z" fill="#807673"/>
<path d="M187.52 42.8816C187.327 43.0761 187.066 43.1736 186.742 43.1736C186.533 43.1736 186.343 43.129 186.172 43.0419C186.002 42.9552 185.859 42.8316 185.743 42.671C185.628 42.5103 185.537 42.3158 185.474 42.0868C185.411 41.8577 185.38 41.5974 185.38 41.3078C185.38 41.0236 185.411 40.7632 185.474 40.5316C185.537 40.3 185.628 40.1026 185.746 39.9394C185.864 39.7761 186.007 39.6526 186.172 39.5658C186.337 39.479 186.524 39.4342 186.736 39.4342C187.313 39.4342 187.668 39.7261 187.797 40.3103H188.287C188.226 39.8919 188.064 39.5684 187.797 39.3368C187.531 39.1077 187.181 38.9919 186.742 38.9919C186.447 38.9919 186.183 39.0474 185.95 39.1552C185.713 39.2658 185.512 39.421 185.344 39.6236C185.177 39.8261 185.048 40.071 184.957 40.3603C184.866 40.6474 184.819 40.9684 184.819 41.321C184.819 41.6736 184.866 41.9919 184.957 42.2736C185.048 42.5577 185.177 42.7974 185.344 42.9948C185.512 43.1919 185.716 43.3448 185.955 43.4526C186.194 43.5606 186.464 43.6132 186.761 43.6132C187.231 43.6132 187.605 43.4761 187.883 43.2026C188.16 42.929 188.32 42.5342 188.361 42.0236H187.866C187.83 42.4026 187.715 42.6894 187.52 42.8816Z" fill="#807673"/>
<path d="M191.866 39.6316C191.698 39.429 191.498 39.271 191.264 39.1603C191.03 39.05 190.775 38.9919 190.494 38.9919C190.213 38.9919 189.958 39.0474 189.727 39.1603C189.493 39.271 189.292 39.429 189.125 39.629C188.957 39.829 188.828 40.0684 188.734 40.3474C188.641 40.6261 188.594 40.9316 188.594 41.2658C188.594 41.6184 188.641 41.9368 188.731 42.2261C188.822 42.5132 188.951 42.7606 189.116 42.9658C189.281 43.171 189.479 43.329 189.713 43.4394C189.947 43.55 190.208 43.6077 190.497 43.6077C190.777 43.6077 191.033 43.5526 191.267 43.4394C191.5 43.329 191.701 43.171 191.869 42.9684C192.037 42.7658 192.166 42.5235 192.257 42.2394C192.347 41.9552 192.394 41.6419 192.394 41.3C192.394 40.9577 192.347 40.6448 192.257 40.3603C192.163 40.079 192.034 39.8342 191.866 39.6316ZM191.737 42.0658C191.674 42.2948 191.583 42.4919 191.467 42.6552C191.352 42.8184 191.209 42.9448 191.044 43.0342C190.879 43.1236 190.695 43.1684 190.497 43.1684C190.291 43.1684 190.106 43.1236 189.941 43.0342C189.776 42.9448 189.636 42.8184 189.518 42.6552C189.402 42.4919 189.312 42.2948 189.248 42.0606C189.185 41.8261 189.155 41.5658 189.155 41.2736C189.155 40.9974 189.188 40.7474 189.254 40.521C189.32 40.2948 189.41 40.1026 189.526 39.9419C189.642 39.7816 189.785 39.6577 189.949 39.5684C190.115 39.479 190.299 39.4342 190.497 39.4342C190.697 39.4342 190.879 39.479 191.044 39.5684C191.209 39.6577 191.349 39.7842 191.467 39.9474C191.583 40.1103 191.674 40.3052 191.737 40.5368C191.8 40.7658 191.83 41.021 191.83 41.3026C191.83 41.5842 191.8 41.8368 191.737 42.0658Z" fill="#807673"/>
<path d="M195.03 42.9868L193.724 39.0736H192.935V43.5342H193.43V39.5762L194.772 43.5342H195.297L196.636 39.5762V43.5342H197.134V39.0736H196.344L195.03 42.9868Z" fill="#807673"/>
<path d="M200.794 40.4107C200.794 40.1158 200.72 39.8607 200.574 39.6423C200.428 39.4239 200.225 39.2739 199.969 39.1949C199.9 39.1739 199.823 39.1529 199.747 39.1371C199.667 39.1213 199.579 39.1081 199.477 39.1003C199.378 39.0923 199.263 39.0845 199.133 39.079C199.004 39.0739 198.855 39.0713 198.683 39.0713H197.915V43.5316H198.44V41.7132H198.784C198.96 41.7132 199.114 41.7107 199.241 41.7055C199.37 41.7003 199.482 41.6923 199.579 41.6816C199.678 41.6713 199.763 41.6555 199.84 41.6345C199.917 41.6132 199.991 41.5897 200.068 41.5632C200.296 41.4739 200.475 41.329 200.602 41.1265C200.731 40.9265 200.794 40.6871 200.794 40.4107ZM200.085 40.9423C199.98 41.0816 199.829 41.1765 199.634 41.2187C199.579 41.2316 199.524 41.2423 199.474 41.2474C199.422 41.2555 199.364 41.2607 199.298 41.2632C199.232 41.2687 199.158 41.2713 199.076 41.2739C198.993 41.2765 198.888 41.2765 198.767 41.2765H198.44V39.5055H198.713C198.872 39.5055 199.004 39.5055 199.114 39.5081C199.224 39.5107 199.318 39.5158 199.394 39.5239C199.472 39.5316 199.538 39.5449 199.598 39.5581C199.656 39.5713 199.714 39.5897 199.769 39.6107C199.917 39.6687 200.035 39.7658 200.118 39.9055C200.2 40.0449 200.244 40.2107 200.244 40.4081C200.244 40.6265 200.192 40.8029 200.085 40.9423Z" fill="#807673"/>
<path d="M202.009 39.0474L200.403 43.5341H200.942L201.36 42.35H203.114L203.527 43.5341H204.071L202.466 39.0474H202.009ZM201.5 41.9158L202.235 39.6948L202.969 41.9158H201.5Z" fill="#807673"/>
<path d="M207.204 42.7842L204.966 39.0736H204.402V43.5342H204.897V39.8288L207.119 43.5342H207.691V39.0736H207.204V42.7842Z" fill="#807673"/>
<path d="M211.371 39.0736H210.772L209.674 41.1604L208.555 39.0736H207.956L209.408 41.663L209.402 43.5342H209.925L209.919 41.663L211.371 39.0736Z" fill="#807673"/>
</svg>
