<svg width="146" height="32" viewBox="0 0 146 32" fill="none" xmlns="http://www.w3.org/2000/svg">
<path d="M15.8516 0C7.10108 0 0 7.10108 0 15.8516C0 24.6022 7.10155 31.7038 15.8516 31.7038C24.6026 31.7038 31.7032 24.6022 31.7032 15.8516C31.7032 7.10108 24.6026 0 15.8516 0Z" fill="url(#paint0_radial_2_1501)"/>
<path opacity="0.66" d="M15.9049 1.026C7.52722 1.026 0.728516 7.82419 0.728516 16.2029C0.728516 24.5806 7.52722 31.3841 15.9049 31.3841C24.2831 31.3841 31.0866 24.5811 31.0866 16.2029C31.0866 7.82423 24.2831 1.026 15.9049 1.026ZM15.9097 1.3787C15.9979 1.3787 16.089 1.40648 16.1599 1.45725C16.2385 1.51285 16.2955 1.59096 16.3271 1.67961V1.68441L16.3314 1.6892L16.8375 3.52556C23.4191 4.00334 28.6187 9.49949 28.6187 16.2028C28.6187 18.181 28.1648 20.0567 27.3574 21.7273L28.6604 23.0398L28.6652 23.0446L28.67 23.0489C28.7346 23.1241 28.7687 23.2114 28.7764 23.3C28.7845 23.3892 28.7677 23.4831 28.7203 23.5636C28.6747 23.6435 28.6049 23.707 28.521 23.7447C28.4352 23.784 28.3418 23.7935 28.2516 23.7768H28.2382L26.4478 23.3087C24.1615 26.6911 20.2898 28.9166 15.905 28.9166C11.5206 28.9166 7.65186 26.6911 5.36693 23.3087L3.58185 23.7821H3.56746C3.46732 23.8004 3.37578 23.7802 3.29862 23.7448C3.21492 23.7067 3.14522 23.6434 3.09924 23.5637C3.05565 23.488 3.03457 23.3936 3.04368 23.305C3.05232 23.2158 3.08537 23.1295 3.15052 23.0538L3.15484 23.0491L3.15963 23.0448L4.45834 21.7322C3.64942 20.0597 3.19705 18.1835 3.19705 16.203C3.19705 9.49775 8.39705 3.99922 14.9825 3.52568L15.4794 1.69408L15.4837 1.68449V1.67969C15.5151 1.59 15.5735 1.51229 15.651 1.45733C15.731 1.40074 15.8211 1.3787 15.9097 1.3787ZM15.9097 1.5637C15.8561 1.5637 15.8005 1.57903 15.7564 1.61066C15.7115 1.64291 15.6777 1.68828 15.6596 1.74052L14.5555 5.82202C14.5272 5.90156 14.5152 5.99742 14.5411 6.07739C14.5674 6.15697 14.6158 6.22022 14.6853 6.2677C14.8832 6.40422 14.958 6.66205 15.0515 6.91223C15.1444 7.16238 15.1598 7.37756 15.0932 7.63631C15.0261 7.89465 14.878 8.12989 14.6753 8.30391C14.3111 8.61587 13.9842 8.99251 13.7806 9.43533C13.5769 9.87863 13.5069 10.3526 13.5069 10.8318V12.0092L7.80185 8.71653L7.17071 9.80147L13.5069 13.4565V14.783L12.3659 15.4419L6.03013 11.7821L5.39903 12.8771L11.1041 16.1704L10.0834 16.7598C9.66837 16.9984 9.29795 17.2985 9.01666 17.6962C8.73489 18.0944 8.56619 18.5659 8.47849 19.0365C8.42911 19.2992 8.30309 19.5455 8.11188 19.7324C7.92161 19.9193 7.72561 20.0079 7.46207 20.052C7.19948 20.0956 6.9426 20.1689 6.72504 20.0663C6.64982 20.0309 6.56644 20.0203 6.48449 20.038C6.40253 20.0549 6.32105 20.0999 6.26597 20.1631L3.29335 23.1736C3.25788 23.2139 3.23303 23.2685 3.22815 23.3222C3.22288 23.3758 3.23394 23.4237 3.26073 23.4707C3.28756 23.5172 3.32735 23.5593 3.37673 23.5819C3.42597 23.6041 3.48083 23.6106 3.5339 23.6006L7.62498 22.5151C7.70741 22.5008 7.79175 22.4615 7.84735 22.3992C7.90343 22.3369 7.93838 22.2602 7.94511 22.1768C7.96425 21.9363 8.15072 21.7474 8.32081 21.5414C8.49141 21.3363 8.67161 21.2136 8.92845 21.1423C9.1858 21.0708 9.46039 21.0867 9.71291 21.1753C10.1648 21.3344 10.656 21.4245 11.141 21.3794C11.6269 21.3343 12.0716 21.1594 12.4862 20.9198L13.5069 20.3299V26.9172H14.7643V19.6072L15.9096 18.944L17.0511 19.6024V26.9172H18.312V20.3299L19.3327 20.9198C19.7477 21.159 20.1924 21.3344 20.6778 21.3794C21.1638 21.424 21.6545 21.3287 22.1064 21.1696C22.3585 21.0813 22.6379 21.0708 22.8947 21.1418C23.1516 21.2136 23.3232 21.3363 23.4928 21.5405C23.6624 21.7466 23.8541 21.9316 23.8728 22.1712C23.88 22.2546 23.9145 22.3312 23.9706 22.394C24.0266 22.4568 24.1062 22.5086 24.1886 22.5238L28.284 23.5959C28.3372 23.606 28.3922 23.5996 28.4417 23.5777C28.491 23.5552 28.5303 23.5173 28.5572 23.4708C28.5838 23.4244 28.5952 23.3707 28.5897 23.3175C28.5845 23.2638 28.5643 23.2097 28.5289 23.1684L25.5462 20.168C25.4921 20.1047 25.4144 20.0511 25.333 20.0338C25.2506 20.0165 25.1671 20.0252 25.0919 20.0616C24.8739 20.1647 24.618 20.0961 24.3548 20.052C24.0913 20.008 23.8953 19.915 23.7051 19.7281C23.5143 19.5403 23.3878 19.2939 23.3385 19.0322C23.2508 18.5597 23.0874 18.0891 22.8056 17.6913C22.5234 17.2926 22.1448 16.9984 21.7293 16.7597L20.7138 16.1703L26.4189 12.877L25.7882 11.7873L19.4525 15.4466L18.311 14.7882V13.4617L24.6472 9.80631L24.0162 8.71653L18.3111 12.0097V10.8318C18.3111 10.3521 18.2368 9.87859 18.0336 9.43537C17.8295 8.99255 17.5017 8.61591 17.138 8.30395C16.9353 8.12993 16.7877 7.89469 16.7205 7.63635C16.6539 7.37804 16.6736 7.16242 16.7666 6.91227C16.8605 6.66261 16.9252 6.40382 17.1241 6.26774C17.1926 6.21982 17.2467 6.15705 17.2721 6.07743C17.2985 5.9979 17.3004 5.90156 17.2721 5.82206L16.1498 1.74056C16.132 1.68928 16.101 1.64185 16.0573 1.6107C16.0147 1.57903 15.9639 1.5637 15.9097 1.5637ZM15.9097 9.45356C16.2088 9.45356 16.5049 9.57626 16.7167 9.78804C16.929 9.99986 17.0512 10.296 17.0512 10.595V12.7381L15.9097 13.3965L14.7644 12.7333V10.595C14.7644 10.2959 14.8866 10.0003 15.098 9.788C15.3097 9.57578 15.6102 9.45356 15.9097 9.45356ZM15.9145 14.8482L17.0512 15.5071V16.8331L15.9145 17.492L14.7644 16.8283V15.5109L15.9145 14.8482ZM12.3664 16.8987L13.5074 17.5572V18.8836L11.6571 19.9504C11.3979 20.0999 11.0792 20.1392 10.7893 20.062C10.4998 19.9839 10.2439 19.7874 10.0939 19.5287C9.94439 19.2699 9.90512 18.9507 9.98276 18.6612C10.0604 18.3708 10.2521 18.1192 10.5118 17.9702L12.3664 16.8987ZM19.4578 16.8987L21.3086 17.9655C21.5674 18.1149 21.7639 18.3666 21.842 18.6565C21.9201 18.946 21.876 19.269 21.726 19.5282C21.5765 19.7866 21.3191 19.9792 21.0302 20.0568C20.7407 20.1335 20.4268 20.0942 20.1675 19.9456L18.312 18.8741V17.5562L19.4578 16.8987Z" fill="black"/>
<path d="M15.8502 0.673828C7.47206 0.673828 0.673828 7.47154 0.673828 15.8502C0.673828 24.2289 7.47206 31.0319 15.8502 31.0319C24.2289 31.0319 31.0309 24.2289 31.0309 15.8502C31.031 7.47154 24.2285 0.673828 15.8502 0.673828ZM15.8546 1.02606C15.9423 1.02606 16.0338 1.05384 16.1047 1.10512C16.1821 1.1603 16.2403 1.23817 16.2715 1.32796V1.33227L16.2763 1.33754L16.7819 3.1739C23.3635 3.6512 28.5634 9.14784 28.5634 15.8502C28.5634 17.8284 28.1096 19.7032 27.3021 21.3746L28.6056 22.6877L28.6099 22.692L28.6147 22.6967C28.679 22.772 28.713 22.8587 28.7211 22.9469C28.7302 23.0365 28.7125 23.1304 28.666 23.2109C28.6201 23.2907 28.5504 23.354 28.4667 23.392C28.3827 23.4309 28.2886 23.4423 28.1978 23.4246H28.1834L26.3931 22.9559C24.1072 26.3383 20.2351 28.5638 15.8508 28.5638C11.4654 28.5638 7.59713 26.3383 5.31173 22.9559L3.52665 23.4294H3.51226C3.41212 23.4476 3.32057 23.4275 3.24341 23.392C3.15813 23.3527 3.08906 23.2895 3.04408 23.2109C3.00045 23.1361 2.97936 23.0413 2.98895 22.9522C2.9966 22.8635 3.03064 22.7768 3.09536 22.7011L3.10015 22.6967L3.10495 22.692L4.40365 21.3794C3.59425 19.7074 3.14188 17.8308 3.14188 15.8502C3.14188 9.14451 8.34284 3.64641 14.9283 3.1739L15.4243 1.34135L15.4286 1.33176V1.32748C15.4602 1.23784 15.5173 1.1602 15.5954 1.10464C15.6753 1.04762 15.7664 1.02606 15.8546 1.02606ZM15.8546 1.21152C15.8004 1.21152 15.7453 1.22686 15.7012 1.25801C15.6563 1.29021 15.6224 1.33557 15.6044 1.38784L14.5003 5.46937C14.4725 5.54891 14.4605 5.64093 14.4864 5.72047C14.5127 5.8 14.5616 5.86757 14.6301 5.91453C14.8285 6.05157 14.9028 6.30893 14.9967 6.55951C15.0902 6.80921 15.105 7.02484 15.0384 7.28318C14.9723 7.54192 14.819 7.77725 14.6163 7.95074C14.2525 8.26271 13.9295 8.63986 13.7259 9.08217C13.5217 9.52551 13.4527 9.99944 13.4527 10.4791V11.657L7.74709 8.3638L7.11642 9.44874L13.4526 13.1037V14.4298L12.3112 15.0887L5.97485 11.4289L5.34371 12.5187L11.0488 15.8167L10.0286 16.4061C9.61356 16.6453 9.23883 16.9448 8.95702 17.3426C8.67474 17.7403 8.51135 18.2119 8.42368 18.6834C8.37431 18.9451 8.24781 19.1913 8.05707 19.3793C7.86633 19.5657 7.67132 19.6543 7.40774 19.6984C7.14464 19.7425 6.88732 19.8159 6.67023 19.7124C6.59505 19.6765 6.50998 19.6669 6.42869 19.6851C6.34673 19.7014 6.26525 19.7454 6.21065 19.8098L3.23327 22.8197C3.19776 22.8609 3.17767 22.915 3.1724 22.9688C3.16665 23.022 3.17815 23.0703 3.2045 23.1173C3.23158 23.1639 3.27198 23.2013 3.3205 23.2247C3.36983 23.2467 3.42543 23.2563 3.47862 23.2472L7.56923 22.1617C7.65166 22.1464 7.73599 22.1085 7.79207 22.0457C7.84719 21.9829 7.88262 21.9067 7.88984 21.8234C7.90854 21.5828 8.09491 21.3935 8.26504 21.1879C8.43517 20.9814 8.61537 20.8601 8.87269 20.7892C9.13004 20.7174 9.40464 20.7336 9.6562 20.8218C10.1086 20.9804 10.5993 21.0709 11.0853 21.025C11.5702 20.9804 12.0154 20.8064 12.43 20.5668L13.4507 19.9768V26.5632H14.7077V19.2537L15.8535 18.5904L16.9945 19.2489V26.5632H18.2563V19.9768L19.2717 20.5667C19.6872 20.8054 20.1358 20.9804 20.6212 21.0249C21.1072 21.0709 21.5979 20.9756 22.0503 20.8164C22.3019 20.7282 22.5812 20.7124 22.8386 20.7843C23.095 20.8561 23.267 20.9813 23.4371 21.1878C23.6063 21.3934 23.798 21.5789 23.8167 21.8185C23.8239 21.9018 23.8584 21.9785 23.9145 22.0413C23.9701 22.1041 24.0506 22.1549 24.1325 22.1712L28.2279 23.2432C28.2811 23.2527 28.3372 23.247 28.3861 23.225C28.4349 23.2018 28.4754 23.1641 28.502 23.1171C28.5284 23.0711 28.5389 23.0184 28.5341 22.9643C28.5288 22.9101 28.5087 22.8564 28.4738 22.8157L25.4911 19.8148C25.4369 19.7511 25.3593 19.6974 25.2779 19.6811C25.1959 19.6638 25.112 19.672 25.0363 19.7084C24.8188 19.8119 24.5624 19.7434 24.2993 19.6993C24.0357 19.6543 23.8407 19.5613 23.65 19.3744C23.4593 19.1875 23.3332 18.9412 23.2834 18.6795C23.1952 18.207 23.0318 17.7355 22.75 17.3387C22.4682 16.9399 22.0892 16.6458 21.6742 16.4062L20.6539 15.8167L26.3634 12.5192L25.7322 11.4337L19.3964 15.0936L18.2549 14.4346V13.1081L24.5912 9.45362L23.9605 8.36341L18.2554 11.6566V10.4782C18.2554 9.999 18.1816 9.52503 17.9774 9.08181C17.7733 8.63903 17.446 8.26235 17.0822 7.95039C16.8791 7.77637 16.7314 7.54161 16.6649 7.28279C16.5983 7.02404 16.6174 6.80937 16.7109 6.55915C16.8043 6.30901 16.87 6.0507 17.0684 5.91414C17.1374 5.86674 17.1906 5.79917 17.2169 5.71959C17.2433 5.64053 17.2448 5.54804 17.2169 5.46945L16.0946 1.38748C16.0764 1.33667 16.041 1.28876 15.9973 1.2571C15.9559 1.2269 15.9058 1.21092 15.8546 1.21152ZM15.8546 9.10139C16.1541 9.10139 16.4492 9.22357 16.6616 9.43543C16.8738 9.64773 16.9956 9.9434 16.9956 10.2429V12.3855L15.8546 13.0444L14.7087 12.3807V10.2424C14.7087 9.94281 14.8309 9.64769 15.0427 9.43539C15.255 9.22309 15.555 9.10139 15.8546 9.10139ZM15.8546 14.496L16.9956 15.1544V16.4813L15.8594 17.1393L14.7093 16.4765V15.1592L15.8546 14.496ZM12.3064 16.5417L13.4518 17.2055V18.5315L11.601 19.5987C11.3418 19.7482 11.0235 19.7865 10.7336 19.7099C10.4437 19.6323 10.1873 19.4358 10.0378 19.1765C9.8878 18.9178 9.84853 18.5981 9.92616 18.3096C10.0038 18.0192 10.1955 17.7633 10.4552 17.6138L12.3064 16.5417ZM19.3984 16.5417L21.2535 17.6138C21.5132 17.7632 21.7092 18.0143 21.7868 18.3043C21.865 18.5942 21.816 18.9173 21.6661 19.176C21.5166 19.4348 21.2645 19.6275 20.9746 19.7051C20.6856 19.7819 20.3669 19.7425 20.1077 19.593L18.2564 18.5262V17.1998L19.3984 16.5417Z" fill="url(#paint1_radial_2_1501)"/>
<path d="M34.3232 2.53322L40.1697 20.3856V29.1054H45.9381V20.3856L51.4549 2.53322H46.2405L42.9645 14.1342L39.7825 2.53322H34.3232ZM70.3308 2.53322V29.1055H75.1287V11.8727L77.8785 29.1055H81.5014L84.2455 11.8727V29.1055H89.1336V2.53326H81.8072L79.7173 15.1736L77.7036 2.53326L70.3308 2.53322ZM111.389 2.53322V29.1055H116.737V17.9061H121.293V29.1055H126.514V2.53326H121.293V13.1044H116.737V2.53322H111.389ZM134.112 2.52795L129.49 29.1045H134.706L135.735 22.6125H139.731L140.739 29.1045H146L141.377 2.52795H134.112ZM137.777 8.35621L139.136 17.9708H136.36L137.777 8.35621ZM96.6562 2.52795L92.0352 29.1045H97.2509L98.2794 22.6125H102.276L103.283 29.1045H108.545L103.922 2.52795H96.6562ZM100.321 8.35621L101.681 17.9708H98.9043L100.321 8.35621ZM55.6193 2.52795L50.9977 29.1045H56.2135L57.2414 22.6125H61.2386L62.2454 29.1045H67.5068L62.8847 2.52795H55.6193ZM59.2839 8.35621L60.6443 17.9708H57.8668L59.2839 8.35621Z" fill="#F30711"/>
<defs>
<radialGradient id="paint0_radial_2_1501" cx="0" cy="0" r="1" gradientUnits="userSpaceOnUse" gradientTransform="translate(10.2678 8.38051) scale(21.3609)">
<stop stop-color="#FD9196"/>
<stop offset="1" stop-color="#F30713"/>
</radialGradient>
<radialGradient id="paint1_radial_2_1501" cx="0" cy="0" r="1" gradientUnits="userSpaceOnUse" gradientTransform="translate(-453.999 13.466) rotate(-45) scale(37.2293 33.7403)">
<stop offset="0.048" stop-color="#E4EBEE"/>
<stop offset="0.272" stop-color="#F5F8F9"/>
<stop offset="0.467" stop-color="white"/>
<stop offset="0.752" stop-color="#BFC1C3"/>
<stop offset="0.867" stop-color="#DCE0E6"/>
<stop offset="0.905" stop-color="#E2E6ED"/>
<stop offset="1" stop-color="#BCBEC0"/>
</radialGradient>
</defs>
</svg>
